<?xml version="1.0" encoding="UTF-8"?>
<!DOCTYPE svg PUBLIC "-//W3C//DTD SVG 1.1//EN" "http://www.w3.org/Graphics/SVG/1.1/DTD/svg11.dtd">
<svg xmlns="http://www.w3.org/2000/svg" version="1.1" width="112px" height="760px" style="shape-rendering:geometricPrecision; text-rendering:geometricPrecision; image-rendering:optimizeQuality; fill-rule:evenodd; clip-rule:evenodd" xmlns:xlink="http://www.w3.org/1999/xlink">
<g><path style="opacity:0.999" fill="#15B5FC" d="M -0.5,-0.5 C 31.1667,-0.5 62.8333,-0.5 94.5,-0.5C 94.0725,4.80326 93.0725,9.96992 91.5,15C 91.9574,15.414 92.2907,15.914 92.5,16.5C 90.703,17.6951 89.703,19.3618 89.5,21.5C 88.325,21.281 87.325,21.6143 86.5,22.5C 84.9442,25.5614 83.6109,28.7281 82.5,32C 84.5342,34.0989 84.8676,36.4323 83.5,39C 83.8047,43.9394 85.9713,47.7727 90,50.5C 90.0683,55.0033 91.235,59.17 93.5,63C 93.1667,64.6667 92.8333,66.3333 92.5,68C 93,68.5 93.5,69 94,69.5C 93.6211,74.4217 95.1211,78.5884 98.5,82C 99.448,82.4828 100.448,82.6495 101.5,82.5C 101.232,85.7396 100.566,88.9063 99.5,92C 99.8598,93.6515 100.193,95.3182 100.5,97C 96.5633,104.316 97.2299,111.316 102.5,118C 99.9659,120.587 99.9659,123.253 102.5,126C 100.903,132.763 102.569,138.929 107.5,144.5C 106.91,145.799 105.91,146.632 104.5,147C 106.204,150.482 107.537,154.148 108.5,158C 108.729,163.938 108.396,169.938 107.5,176C 108.079,179.139 109.079,182.139 110.5,185C 106.6,188.845 106.933,192.345 111.5,195.5C 111.5,196.167 111.5,196.833 111.5,197.5C 110.79,199.893 110.123,202.393 109.5,205C 110.159,209.258 110.326,213.758 110,218.5C 108.883,219.949 108.216,221.616 108,223.5C 107.747,228.039 107.247,232.539 106.5,237C 107.573,238.416 107.573,239.75 106.5,241C 107.167,241.333 107.833,241.667 108.5,242C 105.165,244.341 102.998,247.507 102,251.5C 101.926,255.691 101.093,259.691 99.5,263.5C 100.165,265.101 100.499,266.601 100.5,268C 93.9522,271.147 91.6189,276.313 93.5,283.5C 91.3863,286.973 91.053,290.639 92.5,294.5C 91.1183,297.352 89.785,300.185 88.5,303C 89.1667,305.667 89.8333,308.333 90.5,311C 85.687,315.154 85.687,319.487 90.5,324C 88.2895,330.074 85.9562,336.074 83.5,342C 83.8333,344.333 84.1667,346.667 84.5,349C 83.6422,350.57 82.9755,352.237 82.5,354C 83.7192,356.384 83.7192,358.717 82.5,361C 84.032,361.7 85.032,362.866 85.5,364.5C 85.7113,367.547 85.378,370.714 84.5,374C 85.1574,379.66 87.1574,384.66 90.5,389C 89.481,392.648 88.481,396.315 87.5,400C 87.6448,400.772 87.9781,401.439 88.5,402C 86.8012,404.227 85.4679,406.727 84.5,409.5C 85.5617,412.103 85.7284,414.77 85,417.5C 83.8379,421.922 82.0046,426.422 79.5,431C 80.1667,431.667 80.8333,432.333 81.5,433C 77.7927,439.582 73.9594,446.082 70,452.5C 69.2214,454.807 69.7214,456.807 71.5,458.5C 70.3406,463.708 68.3406,468.875 65.5,474C 66.0724,480.003 66.0724,485.837 65.5,491.5C 68.9184,496.61 69.2518,501.944 66.5,507.5C 66.48,510.607 66.8133,513.774 67.5,517C 63.9925,521.561 63.6592,526.395 66.5,531.5C 65.7309,534.546 65.3976,537.713 65.5,541C 66.1667,541.333 66.8333,541.667 67.5,542C 66.4464,543.388 66.2797,544.888 67,546.5C 70.8816,550.561 72.7149,555.228 72.5,560.5C 74.1587,561.998 75.8253,563.498 77.5,565C 79.6258,571.629 80.9591,578.295 81.5,585C 79.9839,589.203 78.3172,593.37 76.5,597.5C 76.0201,603.352 75.0201,609.019 73.5,614.5C 75.3799,617.175 75.5466,619.842 74,622.5C 73.701,626.807 73.5343,630.974 73.5,635C 76.0278,635.669 76.0278,636.502 73.5,637.5C 72.0668,641.196 72.4001,644.696 74.5,648C 73.8333,650 73.1667,652 72.5,654C 73.2753,656.29 72.4419,658.124 70,659.5C 68.4293,662.921 68.596,666.088 70.5,669C 65.9677,674.895 61.301,680.895 56.5,687C 58.6127,689.449 58.946,692.115 57.5,695C 58.4196,698.339 59.753,701.506 61.5,704.5C 59.6624,707.421 57.9958,710.421 56.5,713.5C 57.3412,716.597 57.3412,719.93 56.5,723.5C 61.2418,727.963 62.2418,733.13 59.5,739C 60.5916,742.386 60.5916,746.053 59.5,750C 59.7055,751.865 60.3722,753.532 61.5,755C 60.8524,756.44 60.5191,757.94 60.5,759.5C 40.1667,759.5 19.8333,759.5 -0.5,759.5C -0.5,506.167 -0.5,252.833 -0.5,-0.5 Z"/></g>
</svg>
