<?xml version="1.0" encoding="utf-8"?>
<!-- Generator: Adobe Illustrator 14.0.0, SVG Export Plug-In . SVG Version: 6.00 Build 43363)  -->
<!DOCTYPE svg PUBLIC "-//W3C//DTD SVG 1.1//EN" "http://www.w3.org/Graphics/SVG/1.1/DTD/svg11.dtd">
<svg version="1.1" id="Layer_1" xmlns="http://www.w3.org/2000/svg" xmlns:xlink="http://www.w3.org/1999/xlink" x="0px" y="0px"
	 width="283.465px" height="283.465px" viewBox="0 0 283.465 283.465" enable-background="new 0 0 283.465 283.465"
	 xml:space="preserve">
<path fill="rgb(21, 181, 252)" d="M134.387,49.948c-48.318,0-87.631,39.313-87.631,87.632s39.312,87.632,87.631,87.632
	c48.321,0,87.631-39.313,87.631-87.632S182.708,49.948,134.387,49.948z M145.038,211.943c-22.154,1.157-34.834-2.061-38.154-3.057
	c-8.262-7.651-14.719-18.807-16.479-21.996l19.711-22.666l34.748,3.073l17.563,26.187
	C155.26,204.184,148.237,209.761,145.038,211.943z M78.005,86.505c2.021-1.904,15.299-13.96,32.917-19.752
	c4.744,1.216,16.701,4.624,24.222,9.758l-3.614,31.848l-29.521,18.064l-28.762-11.653C72.889,101.842,76.475,90.647,78.005,86.505z
	 M164.033,71.461c4.524,2.743,19.163,12.344,29.587,27.33c0.297,5.11,0.361,14.327-1.572,25.936l-32.589,6.257l-25.533-22.153
	l3.683-32.498C141.593,74.634,152.275,70.7,164.033,71.461z M71.808,116.815l29.53,11.961l7.319,33.417l-20.223,23.252
	c-17.602-6.672-23.814-12.979-23.814-12.979c-0.009,0.017-0.011,0.034-0.02,0.051c-6.266-12.366-7.31-35.15-7.4-37.499
	C61.046,127.864,68.634,119.965,71.808,116.815z M63.804,175.902c-0.045-0.083-0.088-0.168-0.133-0.252l0.177-0.107
	C63.833,175.663,63.812,175.781,63.804,175.902z M190.944,184.494c-6.511,4.516-22.057,6.999-26.497,7.632l-17.246-25.712
	l13.343-33.158l32.825-6.304c2.67,3.491,8.588,11.892,12.441,22.219C204.792,154.663,200.956,171.734,190.944,184.494z
	 M205.297,99.891c-2.479-1.548-6.215-3.434-11.816-5.429c-10.318-13.498-23.478-22.209-28.025-24.984
	c-0.863-1.968-2.297-4.938-4.102-7.555C180.278,68.688,195.943,82.36,205.297,99.891z M115.059,59.619
	c-1.429,1.285-2.985,2.849-4.599,4.721c-19.572,6.335-33.557,19.83-34.408,20.663c-0.977,0.112-1.873,0.258-2.688,0.429
	C84.08,72.909,98.567,63.709,115.059,59.619z M54.153,133.84c0.216,0.462,0.424,0.901,0.617,1.303
	c0.088,2.479,0.892,20.53,5.581,33.604c-4.051-9.588-6.295-20.119-6.295-31.167C54.057,136.326,54.096,135.081,54.153,133.84z
	 M103.034,211.533c0.778-0.195,1.489-0.421,2.121-0.646c0.507,0.187,10.388,3.75,30.416,3.75c3.1,0,6.46-0.092,10.052-0.287
	c1.857,0.802,3.922,1.342,5.871,1.707c-5.516,1.204-11.235,1.854-17.107,1.854C123.268,217.91,112.671,215.636,103.034,211.533z
	 M191.996,193.482c0.47-2.613,0.47-5.042,0.346-6.826c11.12-13.706,15.01-32.078,15.943-37.435c1.643-1.361,4.074-3.867,6.34-8.02
	C213.719,161.481,205.257,179.817,191.996,193.482z"/>
</svg>

