<svg width="49" height="61" viewBox="0 0 49 61" fill="none" xmlns="http://www.w3.org/2000/svg">
<g clip-path="url(#clip0_2690_2048)">
<path d="M31.96 8.86041C35.05 4.63041 41.61 1.08041 45.47 6.63041C47.61 9.71041 45.22 14.0604 43.33 16.6104C42.39 17.8804 44.52 19.1004 45.45 17.8504C48.57 13.6404 50.37 7.67041 46.07 3.61041C40.65 -1.50959 33.46 2.67041 29.84 7.62041C28.9 8.90041 31.03 10.1204 31.96 8.86041Z" fill="#15B5FC"/>
<path d="M19.65 22.9104C15.28 30.8604 9.64997 37.2504 0.899972 40.3304C1.39997 40.8304 1.90997 41.3404 2.40997 41.8404C3.91997 36.8504 3.82997 31.2004 8.73997 28.1904C11.05 26.7704 13.33 25.4204 15.56 23.8704C16.82 22.9904 18.78 22.3904 19.85 21.3404C23.16 18.0604 26.47 14.7904 29.78 11.5104C30.91 10.4004 29.17 8.66037 28.04 9.78037C24.08 13.7004 20.42 18.1004 15.64 20.9004C11.88 23.1004 6.95997 25.6204 4.06997 28.9004C1.28997 32.0504 1.20997 37.3304 0.0499721 41.1904C-0.210028 42.0504 0.669972 43.0104 1.55997 42.7004C10.93 39.4104 17.07 32.7004 21.78 24.1504C22.54 22.7604 20.42 21.5304 19.66 22.9104H19.65Z" fill="#15B5FC"/>
<path d="M4.79993 39.4098C4.66993 42.3298 4.02993 45.1798 3.89993 48.0998C3.84993 49.1198 5.30993 49.7898 5.98993 48.9698C8.77993 45.6198 13.6499 46.1098 16.4299 42.6598C19.9599 38.2698 21.5299 32.8898 24.7699 28.3498C25.6899 27.0598 23.5599 25.8298 22.6499 27.1098C19.3699 31.7298 17.7399 37.1498 14.1499 41.6098C11.7399 44.5998 6.88993 44.0898 4.25993 47.2398C4.95993 47.5298 5.65993 47.8198 6.34993 48.1098C6.47993 45.1898 7.11993 42.3398 7.24993 39.4198C7.31993 37.8398 4.86993 37.8398 4.79993 39.4198V39.4098Z" fill="#15B5FC"/>
<path d="M11.7301 45.4299C12.2801 47.6499 12.4601 49.7299 12.2901 51.9999C12.2201 52.8899 13.4001 53.5799 14.1401 53.0599C18.0601 50.2899 22.4901 49.8099 25.0701 45.4299C27.7201 40.9299 28.1801 35.1499 29.9901 30.2999C30.5401 28.8099 28.1701 28.1799 27.6201 29.6499C26.0801 33.7699 25.2301 38.0899 23.7801 42.2399C21.8801 47.6999 17.0601 47.9999 12.9001 50.9399C13.5101 51.2899 14.1301 51.6499 14.7501 51.9999C14.9401 49.4899 14.7101 47.2099 14.1101 44.7799C13.7301 43.2399 11.3601 43.8999 11.7401 45.4299H11.7301Z" fill="#15B5FC"/>
<path d="M18.4501 50.8198C19.6301 52.7698 20.8101 54.5698 21.3201 56.8198C21.5801 57.9498 22.9801 57.8998 23.5601 57.1098C25.9401 53.8598 29.7101 52.2498 31.7701 48.7298C34.4001 44.2398 33.4101 37.7098 34.7701 32.8398C35.2001 31.3098 32.8301 30.6698 32.4001 32.1898C31.0801 36.9098 31.3201 41.8598 30.0001 46.5798C28.8901 50.5498 23.8001 52.6398 21.4301 55.8798C22.1801 55.9798 22.9301 56.0798 23.6701 56.1698C23.1001 53.6698 21.8601 51.7598 20.5501 49.5798C19.7301 48.2298 17.6101 49.4598 18.4301 50.8198H18.4501Z" fill="#15B5FC"/>
<path d="M25.9501 52.92C27.1201 54.89 28.3001 56.75 29.1201 58.92C29.4901 59.9 30.7601 60.17 31.3601 59.21C33.5701 55.68 36.4801 53.88 37.3001 49.62C38.2501 44.7 37.6301 39.03 39.0001 34.24C40.2801 29.74 41.5701 25.25 42.8601 20.75C43.3001 19.23 40.9301 18.58 40.4901 20.1C39.2301 24.5 37.9701 28.91 36.7201 33.31C35.7301 36.77 35.7601 41.24 35.3701 44.81C35.0201 47.98 35.0501 50.82 32.9401 53.51C31.7201 55.06 30.3001 56.29 29.2401 57.98C29.9901 58.08 30.7301 58.18 31.4801 58.27C30.5801 55.92 29.3501 53.85 28.0601 51.68C27.2501 50.32 25.1301 51.56 25.9401 52.92H25.9501Z" fill="#15B5FC"/>
<path d="M30.3799 8.29996C31.0299 10.88 33.7399 12.67 35.7999 14.08C38.1899 15.72 41.1799 17.6 44.0899 18.11C45.2999 18.32 45.8199 16.47 44.5999 16.26C42.3699 15.87 40.2399 14.55 38.3299 13.41C36.2899 12.2 32.8699 10.29 32.2399 7.78996C31.9399 6.58996 30.0799 7.09996 30.3899 8.29996H30.3799Z" fill="#15B5FC"/>
<path d="M29.8199 7.20983C28.9099 7.74983 28.2899 8.49983 27.6799 9.34983C27.4699 9.63983 27.5399 10.0198 27.6799 10.3198C30.1899 15.8198 37.1199 19.7498 42.6399 21.3498C43.1299 21.4898 43.6999 21.1798 43.8199 20.6798C44.0899 19.6098 44.3499 18.5498 44.6199 17.4798C44.9199 16.2798 43.0699 15.7698 42.7699 16.9698C42.4999 18.0398 42.2399 19.0998 41.9699 20.1698C42.3599 19.9498 42.7599 19.7198 43.1499 19.4998C39.7499 18.5098 36.7199 16.8198 33.9499 14.6298C32.9199 13.8198 31.9899 12.8998 31.0999 11.9498C29.8399 10.5898 29.0099 9.90983 30.7899 8.85983C31.8599 8.22983 30.8899 6.56983 29.8199 7.19983V7.20983Z" fill="#15B5FC"/>
<path d="M19.1499 19.2298C19.1899 26.9898 31.6599 32.4298 38.0899 33.1798C39.3199 33.3198 39.2999 31.3998 38.0899 31.2598C32.7699 30.6398 21.0999 25.6398 21.0699 19.2298C21.0699 17.9898 19.1399 17.9898 19.1499 19.2298Z" fill="#15B5FC"/>
<path d="M23.9801 14.2898C25.5201 21.3698 34.8301 24.8198 41.2901 24.9798C42.5301 25.0098 42.5301 23.0898 41.2901 23.0598C35.6701 22.9198 27.1801 19.9598 25.8301 13.7698C25.5701 12.5598 23.7101 13.0698 23.9801 14.2798V14.2898Z" fill="#15B5FC"/>
<path d="M29.82 13.3598C27.22 16.5198 23.92 19.0498 21.48 22.3498C20.74 23.3498 22.41 24.2998 23.14 23.3198C25.48 20.1598 28.69 17.7598 31.18 14.7198C31.96 13.7698 30.61 12.3998 29.82 13.3598Z" fill="#15B5FC"/>
<path d="M32.8201 14.5597C31.0101 16.2197 29.5801 18.4297 28.1001 20.3697C26.7201 22.1797 25.3601 23.9997 24.0101 25.8397C23.2801 26.8397 24.9401 27.7997 25.6701 26.8097C28.3201 23.1997 30.8701 18.9497 34.1801 15.9197C35.1001 15.0797 33.7301 13.7297 32.8201 14.5597Z" fill="#15B5FC"/>
<path d="M29.63 30.46C31.88 26.16 33.99 21.73 36.5 17.57C37.14 16.51 35.48 15.54 34.84 16.6C32.33 20.75 30.22 25.19 27.97 29.49C27.4 30.58 29.05 31.56 29.63 30.46Z" fill="#15B5FC"/>
<path d="M34.9701 31.4302C36.4601 27.4702 37.6501 23.1102 39.6501 19.3802C40.2301 18.2902 38.5801 17.3202 37.9901 18.4102C35.9201 22.2902 34.6701 26.8002 33.1201 30.9202C32.6801 32.0802 34.5401 32.5802 34.9701 31.4302Z" fill="#15B5FC"/>
<path d="M41.0901 6.44014C41.0901 6.44014 41.2201 6.38014 41.4301 6.30014C41.5301 6.26014 41.6601 6.21014 41.8401 6.23014C42.0201 6.23014 42.2501 6.23014 42.4501 6.32014C42.6701 6.38014 42.8901 6.48014 43.1001 6.64014C43.3301 6.79014 43.5001 7.00014 43.6801 7.22014C43.8301 7.45014 43.9801 7.71014 44.0601 7.98014C44.1701 8.25014 44.1901 8.52014 44.2401 8.80014C44.3201 9.90014 43.9001 10.9401 43.3001 11.4901C43.0301 11.7801 42.7201 11.9501 42.5001 12.0301C42.2701 12.1101 42.1401 12.1301 42.1401 12.1301C42.1401 12.1301 42.1401 11.9801 42.1601 11.7701C42.1801 11.5601 42.1801 11.2701 42.1801 10.9601C42.1701 10.3401 42.1401 9.62014 42.0901 8.97014C42.0301 8.32014 41.9801 7.81014 41.7501 7.32014C41.6901 7.19014 41.6401 7.10014 41.5701 6.99014C41.5201 6.88014 41.4101 6.78014 41.3301 6.70014C41.1701 6.54014 41.0801 6.43014 41.0801 6.43014L41.0901 6.44014Z" fill="#15B5FC"/>
<path d="M14.2699 14.2405C14.2699 14.2405 14.2399 14.1105 14.2299 13.9305C14.2199 13.7505 14.2199 13.5105 14.2599 13.2805C14.3299 12.8005 14.5599 12.3605 14.9399 12.0905C15.3099 11.8305 15.8299 11.7505 16.3199 11.8305C16.5699 11.8705 16.7999 11.9405 16.9799 12.0105C17.1599 12.0805 17.2699 12.1405 17.2699 12.1405C17.2699 12.1405 17.2899 12.2705 17.3099 12.4505C17.3199 12.6305 17.3099 12.8705 17.2899 13.1105C17.2199 13.5905 16.9899 14.0305 16.6099 14.2905C16.2299 14.5505 15.7199 14.6305 15.2299 14.5505C14.9799 14.5105 14.7499 14.4405 14.5699 14.3705C14.3899 14.3105 14.2799 14.2405 14.2799 14.2405H14.2699Z" fill="#15B5FC"/>
<path d="M20.71 9.88977C20.71 9.88977 20.82 9.64977 21.04 9.27977C21.26 8.90977 21.59 8.39977 22.02 7.82977C22.24 7.54977 22.48 7.24977 22.75 6.94977C23.03 6.64977 23.25 6.30977 23.53 5.98977C24.07 5.33977 24.67 4.68977 25.3 4.07977C25.96 3.43977 26.66 2.81977 27.35 2.27977C28.02 1.72977 28.75 1.28977 29.4 0.949766C30.05 0.609766 30.61 0.369766 31.01 0.219766C31.41 0.0697656 31.66 0.00976562 31.66 0.00976562C31.66 0.00976562 31.56 0.259766 31.36 0.639766C31.16 1.02977 30.86 1.54977 30.47 2.13977C29.68 3.25977 28.57 4.75977 27.25 6.03977C26.55 6.69977 25.82 7.31977 25.1 7.85977C24.74 8.11977 24.4 8.39977 24.04 8.57977C23.69 8.76976 23.34 8.93977 23.02 9.08977C22.37 9.37977 21.8 9.58977 21.39 9.71977C20.98 9.84977 20.72 9.89977 20.72 9.89977L20.71 9.88977Z" fill="#15B5FC"/>
<path d="M43.19 45.5598C43.19 45.5598 43.31 45.8098 43.46 46.2498C43.61 46.6898 43.79 47.3198 43.99 48.0598C44.08 48.4298 44.18 48.8198 44.22 49.2998C44.25 49.7698 44.34 50.2598 44.28 50.7898C44.22 51.3198 44.14 51.8698 44.03 52.4298C43.88 52.9498 43.75 53.3798 43.57 53.8898C43.2 54.8798 42.75 55.8198 42.21 56.6598C41.68 57.4998 41.07 58.2198 40.49 58.7698C39.88 59.3098 39.35 59.7098 38.92 59.9198C38.51 60.1498 38.25 60.2498 38.25 60.2498C38.25 60.2498 38.34 59.9798 38.51 59.5598C38.69 59.1498 38.9 58.5398 39.17 57.8698C39.66 56.5298 40.32 54.7398 40.97 52.9498C41.14 52.4998 41.32 52.0398 41.49 51.5998C41.59 51.1998 41.73 50.8098 41.87 50.4198C42.01 50.0298 42.04 49.6098 42.15 49.2198C42.26 48.8398 42.32 48.4198 42.4 48.0398C42.71 46.5398 43.19 45.5498 43.19 45.5498V45.5598Z" fill="#15B5FC"/>
<path d="M46.49 49.1497C46.49 49.1497 46.62 49.3096 46.8 49.5896C46.97 49.8796 47.22 50.2496 47.4 50.7796C47.58 51.2996 47.75 51.9296 47.79 52.6196C47.82 52.9596 47.85 53.3196 47.79 53.6796C47.76 54.0496 47.7 54.4197 47.64 54.7896C47.52 55.1596 47.41 55.5297 47.27 55.8797C47.16 56.2397 46.92 56.5596 46.72 56.8596C46.5 57.1596 46.33 57.4596 46.05 57.6796C45.79 57.9096 45.54 58.0996 45.31 58.2696C45.09 58.4496 44.82 58.5396 44.59 58.6196C44.37 58.7096 44.16 58.7596 44 58.7996C43.67 58.8796 43.48 58.8896 43.48 58.8896C43.48 58.8896 43.54 58.6796 43.65 58.3696C43.74 58.0496 43.96 57.6996 44.08 57.2296C44.15 56.9996 44.22 56.7596 44.31 56.5296C44.42 56.3096 44.44 56.0196 44.52 55.7696C44.59 55.5096 44.69 55.2696 44.74 54.9796C44.79 54.6996 44.87 54.4296 44.95 54.1596C45 53.8696 45.06 53.5796 45.14 53.2996C45.23 53.0196 45.27 52.7196 45.35 52.4396C45.51 51.8696 45.64 51.3396 45.8 50.8496C45.98 50.3696 46.1 49.9096 46.25 49.6196C46.38 49.3196 46.49 49.1396 46.49 49.1396V49.1497Z" fill="#15B5FC"/>
</g>
<defs>
<clipPath id="clip0_2690_2048">
<rect width="48.61" height="60.24" fill="white"/>
</clipPath>
</defs>
</svg>
