<svg width="93" height="89" viewBox="0 0 93 89" fill="none" xmlns="http://www.w3.org/2000/svg">
<g clip-path="url(#clip0_2690_2020)">
<path d="M37.6565 24.7954C37.6565 23.4789 37.5348 22.1392 37.6855 20.8342C37.9288 18.6804 38.8731 16.7691 40.4547 15.2909C45.0024 11.0352 49.5617 6.80259 54.2196 2.66815C57.1626 0.0466005 60.6791 -0.571255 64.4679 0.502774C70.0411 2.07917 75.6085 3.66711 81.1643 5.30703C85.2601 6.51964 87.8613 9.23359 88.8636 13.3796C90.1497 18.6977 91.4126 24.0275 92.6466 29.363C93.6894 33.8727 92.4322 37.6491 88.9678 40.7442C84.9241 44.3589 80.8862 47.9794 76.9062 51.6577C73.6272 54.6892 69.8847 55.6766 65.5918 54.4409C64.7981 54.21 64.6244 54.516 64.4621 55.2032C63.0254 61.3124 61.5829 67.4159 60.0824 73.5078C58.8832 78.3929 55.8185 81.6035 50.9695 82.9951C44.4057 84.8775 37.8303 86.7138 31.2317 88.4923C26.5623 89.7511 22.3969 88.677 18.8572 85.403C13.817 80.7431 8.77105 76.089 3.81777 71.3482C0.393927 68.0684 -0.672043 63.9628 0.39972 59.4011C1.94074 52.8703 3.58604 46.3626 5.27189 39.8665C6.40159 35.5242 9.19396 32.5619 13.4752 31.2627C20.2997 29.1897 27.1764 27.3015 34.0415 25.3844C35.1538 25.0726 36.3414 25.0091 37.6565 24.807V24.7954ZM63.709 51.369C63.6163 51.3517 63.5236 51.3343 63.4309 51.317C63.4309 50.8493 63.4715 50.3758 63.4251 49.9139C63.2687 48.4472 62.3244 47.7658 60.8993 48.1642C52.6728 50.4451 44.4578 52.7375 36.2371 55.0415C34.0357 55.6593 32.7843 57.0798 32.2861 59.3549C31.0405 65.0253 29.6675 70.6668 28.3466 76.3199C27.7557 78.8549 27.1416 81.384 26.5623 83.9247C26.0757 86.0728 26.8114 87.0256 28.9955 86.9332C30.1252 86.887 31.2723 86.7195 32.3614 86.4193C38.4907 84.7274 44.6143 83.0297 50.7146 81.2281C54.7526 80.0328 57.3653 77.3189 58.4197 73.2422C59.7522 68.0742 61.0093 62.883 62.2723 57.6977C62.7821 55.5958 63.2397 53.4824 63.7206 51.3748L63.709 51.369ZM1.13547 61.2604C1.23396 65.3198 2.53745 68.1204 4.98802 70.3955C9.37935 74.4721 13.7707 78.5431 18.1736 82.6024C19.2048 83.5552 20.2302 84.5195 21.3541 85.3568C22.5186 86.2229 23.9785 85.8303 24.6911 84.5657C24.9054 84.1904 25.0676 83.7804 25.1777 83.3646C27.2575 75.2517 29.3373 67.1387 31.3881 59.02C31.9153 56.9297 31.3418 55.1223 29.7892 53.6325C29.1403 53.0089 28.4683 52.4026 27.8137 51.779C22.3448 46.559 16.8759 41.3332 11.4012 36.1132C10.0224 34.7966 8.74209 34.8717 7.75143 36.5174C6.98671 37.7877 6.34366 39.1851 5.97288 40.6114C4.75629 45.2944 3.67873 50.012 2.578 54.7181C2.01605 57.1202 1.50624 59.5281 1.12388 61.2604H1.13547ZM37.0772 25.8753C35.9648 26.0831 34.8294 26.2217 33.7402 26.5162C29.2504 27.7288 24.7664 28.9703 20.2882 30.2291C17.7449 30.9451 15.1842 31.6265 12.6815 32.4696C10.903 33.0701 10.6886 34.2827 12.0501 35.5473C18.1504 41.2235 24.2682 46.8881 30.3859 52.5412C32.1818 54.1984 34.2558 54.6257 36.6253 53.9212C43.1717 51.9811 49.7355 50.0929 56.2878 48.1873C57.6724 47.7831 59.0628 47.4136 60.4358 46.9805C61.7856 46.5532 62.0347 45.7621 61.2005 44.6476C60.8587 44.1972 60.4705 43.7699 60.0592 43.3831C54.9727 38.5788 49.892 33.7746 44.7765 28.9992C42.6329 27.0012 40.0433 26.0254 37.0772 25.8753ZM91.5343 31.9037C91.4821 31.5052 91.43 30.7719 91.2736 30.0559C90.2829 25.5923 89.2749 21.1345 88.2495 16.6825C87.7744 14.6095 87.5195 12.4672 86.3435 10.6021C85.3992 9.10078 84.6055 8.94487 83.302 10.1228C78.059 14.8463 72.8335 19.5985 67.5905 24.322C65.9684 25.7829 65.4296 27.4285 66.0032 29.6113C67.2835 34.4848 68.39 39.3988 69.5718 44.2954C70.0874 46.4377 70.5683 48.5858 71.1418 50.7107C71.5416 52.1832 72.4511 52.5701 73.8067 51.854C74.6294 51.421 75.4347 50.907 76.1241 50.2834C80.2315 46.5936 84.2984 42.8634 88.3827 39.1447C90.4162 37.2911 91.4474 34.9756 91.5401 31.8979L91.5343 31.9037ZM63.1297 25.165C65.0241 25.1015 66.2349 24.4201 67.3298 23.3981C71.6343 19.3733 75.9619 15.3775 80.2837 11.3701C81.1179 10.5963 81.9811 9.85144 82.7922 9.05458C83.5685 8.28659 83.4758 7.65141 82.5199 7.15482C81.929 6.84878 81.3033 6.59471 80.666 6.39838C75.2145 4.75847 69.7514 3.1532 64.3057 1.49596C60.4879 0.335318 57.1742 1.1726 54.2659 3.8288C52.4352 5.49758 50.5814 7.14327 48.7449 8.80628C46.0916 11.2142 43.4093 13.5932 40.8196 16.0589C39.3713 17.4389 39.6726 18.4148 41.567 18.9749C47.6731 20.765 53.7793 22.5435 59.8912 24.3162C61.0788 24.6626 62.2839 24.9456 63.1355 25.165H63.1297ZM64.9372 50.474C64.9681 52.1254 65.5918 53.0897 66.8084 53.3669C66.8432 53.3727 66.8722 53.3842 66.9069 53.39C68.9867 53.8173 70.1628 52.7433 69.7225 50.6818C68.1988 43.5678 66.6346 36.4596 65.0589 29.3514C64.6591 27.5614 63.4831 26.4585 61.7393 25.9272C54.7931 23.7965 47.8527 21.66 40.9065 19.5408C39.4814 19.1077 38.5197 19.7198 38.3575 21.2154C38.259 22.1392 38.3285 23.0805 38.3459 24.0101C38.3575 24.6973 38.6472 25.0495 39.4177 25.165C41.6133 25.4999 43.612 26.3892 45.2573 27.8905C50.6683 32.8333 56.0792 37.782 61.4207 42.7999C63.7669 45.0057 64.8097 47.8755 64.9372 50.4624V50.474Z" fill="#15B5FC"/>
<path d="M42.1927 72.4164C42.21 74.2006 40.7675 76.2043 39.0585 76.7702C37.5348 77.2783 36.4457 76.5161 36.4225 74.934C36.3936 73.1093 37.9056 71.0478 39.6378 70.5397C41.1035 70.1066 42.1811 70.8977 42.1927 72.4164Z" fill="#15B5FC"/>
<path d="M55.274 58.6854C55.274 60.4639 53.7561 62.5253 52.076 63.0335C50.593 63.4781 49.5328 62.7043 49.5096 61.1626C49.4806 59.3899 50.8479 57.4612 52.5685 56.8376C54.1327 56.2717 55.2682 57.0512 55.274 58.6912V58.6854Z" fill="#15B5FC"/>
<path d="M15.0278 48.7533C15.022 50.4163 14.2805 51.629 13.1566 51.8022C12.0674 51.9696 10.9551 51.0111 10.4511 49.4405C10.0629 48.2279 10.034 47.0095 10.5785 45.8373C11.2274 44.4399 12.6583 44.2032 13.7764 45.2772C14.5759 46.0452 15.0394 47.3328 15.0336 48.7476L15.0278 48.7533Z" fill="#15B5FC"/>
<path d="M13.5969 59.8915C13.7417 59.2794 13.8055 58.6327 14.0488 58.0668C14.686 56.5944 16.3661 56.323 17.3799 57.5645C18.6139 59.0773 18.8978 60.827 18.1794 62.6459C17.5595 64.205 15.8215 64.4994 14.8309 63.1367C14.1762 62.2359 13.8808 61.0753 13.4231 60.0301C13.481 59.9839 13.539 59.9377 13.5969 59.8915Z" fill="#15B5FC"/>
<path d="M22.084 72.9475C22.0724 74.882 21.3367 76.0715 20.1954 76.2216C19.0541 76.3775 17.9939 75.4478 17.5015 73.8426C17.1423 72.6588 17.0786 71.4693 17.6058 70.3202C18.2604 68.894 19.6624 68.6283 20.7863 69.7139C21.7654 70.6609 22.0666 71.8735 22.0782 72.9475H22.084Z" fill="#15B5FC"/>
<path d="M37.9925 42.8629C36.4515 42.7532 35.0032 42.4009 33.8966 41.2403C32.8307 40.1258 33.1377 38.8324 34.6208 38.3878C36.4399 37.845 38.1258 38.2607 39.6436 39.3521C40.3156 39.8314 40.8544 40.4723 40.6574 41.3731C40.4489 42.3374 39.632 42.6088 38.7804 42.7763C38.5197 42.8282 38.2532 42.834 37.9867 42.8629H37.9925Z" fill="#15B5FC"/>
<path d="M77.4449 29.7212C77.891 28.8204 78.1923 27.8041 78.8122 27.0361C79.6406 26.0083 80.9499 26.2855 81.4713 27.4981C82.1375 29.0514 81.871 30.5354 80.8456 31.8289C79.9419 32.9722 78.5167 32.7412 77.9663 31.4016C77.7694 30.9165 77.7288 30.3737 77.6187 29.854C77.5608 29.8078 77.5029 29.7674 77.4449 29.7212Z" fill="#15B5FC"/>
<path d="M62.2838 20.8915C61.0034 20.903 60.0591 20.4295 59.8622 19.6846C59.6536 18.8936 60.2793 17.8715 61.5306 17.5193C62.614 17.2132 63.8248 17.0689 64.9313 17.219C66.2753 17.4038 66.6461 18.8416 65.557 19.6558C64.6416 20.3429 63.4656 20.6778 62.4054 21.1687C62.3649 21.082 62.3243 20.9896 62.2838 20.903V20.8915Z" fill="#15B5FC"/>
<path d="M72.6596 12.1671C71.049 12.1729 70.1047 11.6763 69.9425 10.8736C69.7861 10.1056 70.5218 9.17597 71.6979 8.70825C72.8392 8.25785 74.021 8.07307 75.2144 8.51192C76.3731 8.93922 76.6106 9.98438 75.7648 10.8794C74.8552 11.8379 73.6618 12.0978 72.6596 12.1671Z" fill="#15B5FC"/>
<path d="M60.8528 3.99014C62.2027 3.97282 63.1528 4.47519 63.2976 5.27782C63.4424 6.08623 62.7704 6.95238 61.5596 7.4432C60.4531 7.8936 59.306 8.07261 58.1415 7.68573C56.8786 7.2642 56.5368 6.03426 57.5854 5.24895C58.5007 4.56758 59.671 4.21534 60.7254 3.71875C60.7659 3.81114 60.8123 3.89775 60.8528 3.99014Z" fill="#15B5FC"/>
<path d="M50.0425 17.0173C48.5768 17.0462 47.6441 16.5842 47.4877 15.7585C47.3255 14.8981 48.0438 13.9049 49.4111 13.5469C50.4075 13.2871 51.5024 13.264 52.5337 13.3622C52.9682 13.4026 53.6112 13.9742 53.6865 14.3842C53.7676 14.8577 53.4664 15.6488 53.0724 15.9086C52.1861 16.4918 51.1375 16.8268 50.1584 17.2656C50.1236 17.1848 50.0831 17.0982 50.0483 17.0173H50.0425Z" fill="#15B5FC"/>
<path d="M61.2004 33.5895C61.2236 34.9291 60.2967 35.6394 59.0221 35.2525C57.5332 34.8021 56.224 32.9312 56.3167 31.401C56.392 30.2115 57.2262 29.6109 58.3907 29.917C59.839 30.2981 61.1772 32.0477 61.2004 33.5895Z" fill="#15B5FC"/>
</g>
<defs>
<clipPath id="clip0_2690_2020">
<rect width="93" height="89" fill="white"/>
</clipPath>
</defs>
</svg>
