<svg width="69" height="89" viewBox="0 0 69 89" fill="none" xmlns="http://www.w3.org/2000/svg">
<g clip-path="url(#clip0_2690_2072)">
<path d="M29.1575 23.2549C17.6819 23.7591 16.7334 31.8431 17.436 43.2099C17.4653 43.673 17.799 43.9368 18.162 43.9368C19.8482 43.9368 17.7112 39.206 19.7487 31.9193C21.0836 27.1709 24.1984 24.3805 32.3133 25.0663C41.1776 26.356 43.1624 32.6345 41.002 41.2929C40.1764 44.5582 38.016 46.9265 35.9492 48.1048C31.8508 50.4556 27.9338 49.5586 28.9409 49.6993C16.1713 47.8996 21.6281 31.5675 21.1246 30.7117C20.9489 30.4127 20.4923 30.5182 20.4513 30.7996C19.6374 36.1166 18.7768 42.6823 21.4115 46.5513C24.579 51.1942 31.4058 52.5835 37.1026 49.0604C43.9411 44.8396 43.7596 34.739 42.9282 31.6672C40.2584 21.7777 28.2266 23.2549 29.1634 23.2549H29.1575ZM20.8436 33.0976C20.8377 33.1503 20.8436 33.1445 20.8436 33.0976V33.0976Z" fill="#15B5FC"/>
<path d="M18.3257 41.715C18.4193 44.6168 18.5481 48.1693 21.0013 49.2245C22.1138 49.7111 26.0951 50.9304 28.9172 51.1942C31.1303 51.3994 32.0905 51.0183 34.1397 50.0042C36.5929 48.7907 37.1257 48.7907 36.833 48.2807C36.4349 47.6007 34.5145 49.248 32.1022 50.0159C29.9711 50.6901 27.5237 50.2387 25.2344 49.5997C21.7683 48.6324 20.6208 48.7321 19.7952 46.8445C18.6535 43.6789 19.5083 41.3457 18.7004 41.3457C18.3901 41.3457 18.2905 41.715 18.3315 41.715H18.3257ZM19.2215 44.353C19.2332 44.4175 19.2332 44.4234 19.2215 44.353V44.353ZM33.2147 49.5821C33.1444 49.6095 33.1444 49.6095 33.2147 49.5821V49.5821ZM18.5774 45.0448C18.5657 44.9685 18.5657 44.9803 18.5774 45.0448V45.0448Z" fill="#15B5FC"/>
<path d="M26.8035 30.7585C21.8269 36.1166 21.2063 42.5943 20.9545 48.7027C20.9311 49.3358 21.9498 49.4238 21.9791 48.7027C22.3655 39.3349 23.6126 34.3696 31.2708 28.2495C32.2837 27.4933 33.1737 27.0184 34.6842 26.7312C37.5239 26.1919 36.429 26.2739 36.9325 26.2446C37.5941 26.1977 37.6 25.2656 36.8564 25.2656C32.4945 25.2656 29.772 27.5577 26.8035 30.7585ZM23.6243 38.2035C23.5951 38.268 23.6009 38.2621 23.6243 38.2035V38.2035Z" fill="#15B5FC"/>
<path d="M24.1282 44.8929C23.8003 45.9422 23.6364 49.9578 24.3975 49.9578C25.3343 49.9578 23.9877 47.6364 24.901 44.8401C25.6271 42.6008 28.8121 39.1069 29.462 38.3624C31.5171 36.0116 33.1857 33.063 36.4059 30.0029C40.1589 26.4504 41.002 26.638 40.6683 26.0576C39.4739 24.0176 25.4807 40.5197 24.1282 44.8929ZM33.0101 33.7899C32.9867 33.825 32.9867 33.825 33.0101 33.7899V33.7899ZM30.1119 37.5534C30.0651 37.612 30.0651 37.6179 30.1119 37.5534V37.5534ZM24.6142 46.0126C24.6142 46.0477 24.6142 46.0536 24.6142 46.0126V46.0126ZM31.3239 34.6164C31.3707 34.552 31.3766 34.552 31.3239 34.6164V34.6164ZM31.8859 33.8778C31.9445 33.8016 31.9445 33.8016 31.8859 33.8778V33.8778ZM32.2899 33.3502C32.2724 33.3502 32.4422 33.1509 32.2899 33.3502V33.3502Z" fill="#15B5FC"/>
<path d="M21.9092 49.3836C20.6387 50.1281 31.6401 66.4543 34.913 72.2814C40.6098 82.4406 43.3733 89.3814 44.0525 88.9828C44.4096 88.7718 44.2281 88.8245 41.6988 83.8241C28.9234 58.6283 28.9702 63.277 22.3952 49.5008C22.2605 49.2136 21.88 49.3777 21.9151 49.3777L21.9092 49.3836Z" fill="#15B5FC"/>
<path d="M37.5942 51.6458C36.6515 51.9037 44.7781 71.0438 44.7957 71.0556C45.0826 71.2256 45.4046 70.9266 45.3109 70.6569C44.6844 68.8455 43.9175 66.9344 43.168 65.2871C41.4584 60.867 41.6399 61.9809 38.0567 51.9037C37.922 51.5344 37.559 51.6399 37.5942 51.6399V51.6458ZM42.9631 66.5944C42.9865 66.6472 42.9865 66.6472 42.9631 66.5944V66.5944ZM43.654 66.4068C43.6306 66.3541 43.6364 66.3599 43.654 66.4068V66.4068Z" fill="#15B5FC"/>
<path d="M43.1213 46.1528C43.0393 46.3931 43.2384 46.4342 43.9351 50.4967C43.9644 50.6549 44.222 50.7194 44.3216 50.5494C44.3333 50.5318 47.5183 59.7883 47.5242 59.8058C48.1507 61.7521 48.1097 62.098 48.5254 61.9807C49.146 61.8107 48.0394 59.6534 43.6424 46.1586C43.5136 45.7072 43.0159 46.1586 43.1213 46.1586V46.1528Z" fill="#15B5FC"/>
<path d="M42.7523 32.7224C42.8284 33.0506 43.3495 33.0741 43.4197 32.693C44.8776 35.8762 66.6695 74.2033 66.6754 74.2209C68.2152 76.9117 68.3089 77.3161 68.8007 77.0289C69.316 76.7299 69.0174 76.5775 65.8616 71.0084C49.6376 42.395 63.9997 67.0338 47.3308 38.2915C43.2558 31.2627 43.1973 29.293 42.5005 29.293C41.8038 29.293 42.1317 29.9319 42.7523 32.7224Z" fill="#15B5FC"/>
<path d="M19.8072 14.9841C15.7966 17.288 10.2345 22.7984 8.74731 28.4086C8.39602 29.7452 7.97447 33.5146 9.19228 33.1804C10.0647 32.9401 8.88783 32.6118 9.84218 28.7427C10.9722 24.1116 16.2943 18.4721 20.3869 16.0862C24.0227 13.9524 30.9081 14.6148 30.3285 14.5327C32.9632 14.8962 32.9222 14.9314 33.1681 14.6852C35.1295 12.7213 23.49 12.8737 19.8014 14.99L19.8072 14.9841ZM30.8847 13.4482C30.9491 13.4541 30.9549 13.46 30.8847 13.4482V13.4482ZM30.2055 14.5151C30.3402 14.5327 30.3577 14.5386 30.2055 14.5151V14.5151Z" fill="#15B5FC"/>
<path d="M5.99547 5.18812C2.00243 8.08991 0.913421 10.2941 0.0234759 13.3307C-0.146316 13.9052 0.737774 14.2218 0.94855 13.5828C1.49891 11.8828 2.02585 10.6927 3.35491 9.0689C4.87133 7.21058 12.1138 1.09043 19.1339 1.15492C22.3658 1.17837 24.2393 1.83493 26.9853 2.86082C27.5883 3.08945 28.045 2.08701 27.278 1.79976C18.5718 -1.45962 13.4663 -0.269597 5.99547 5.18812ZM1.39352 12.299C1.3701 12.3517 1.3701 12.3576 1.39352 12.299V12.299ZM11.8972 1.55941C11.9558 1.53596 11.9616 1.5301 11.8972 1.55941V1.55941Z" fill="#15B5FC"/>
<path d="M53.543 82.3346C53.543 84.1285 56.2596 84.1285 56.2596 82.3346C56.2596 80.5408 53.543 80.5408 53.543 82.3346Z" fill="#15B5FC"/>
<path d="M11.417 52.8711C11.417 54.2839 13.554 54.2839 13.554 52.8711C13.554 51.4583 11.417 51.4583 11.417 52.8711Z" fill="#15B5FC"/>
</g>
<defs>
<clipPath id="clip0_2690_2072">
<rect width="69" height="89" fill="white"/>
</clipPath>
</defs>
</svg>
