<svg width="70" height="88" viewBox="0 0 70 88" fill="none" xmlns="http://www.w3.org/2000/svg">
<g clip-path="url(#clip0_2692_2156)">
<path d="M16.1854 70.5213C15.6883 67.393 15.1444 64.3821 14.7474 61.3545C13.8198 54.3335 12.9924 47.2958 12.0548 40.2782C11.8579 38.7996 11.4475 37.3277 10.9738 35.9094C9.62915 31.8993 10.6368 29.5288 14.5638 28.1709C28.2836 23.4266 41.8198 23.5037 55.1025 29.8339C58.866 31.6277 59.6234 32.8314 59.2564 37.0326C59.1163 38.6286 58.8026 40.2078 58.489 42.3134C60.5109 39.9664 62.7698 40.0636 65.0653 40.352C68.0248 40.7275 69.9166 42.7325 69.9966 45.7233C70.1334 50.87 68.4919 55.2656 64.8684 59.0544C62.5128 61.5188 60.1539 63.7552 56.8274 64.7308C56.1001 64.9454 54.9924 64.9354 54.7188 65.4115C54.1249 66.4442 53.9013 67.7116 53.6277 68.9052C53.3608 70.072 54.3751 69.8608 55.0024 70.072C58.836 71.3662 62.7397 72.4928 66.4699 74.0385C69.4228 75.2589 69.7331 77.0024 68.0047 79.7719C66.4199 82.3067 64.0743 83.9832 61.2984 84.7376C57.2345 85.8407 53.1072 87.0108 48.9433 87.3629C38.2431 88.2614 27.4995 88.3386 16.846 86.7828C12.5319 86.1525 8.32457 84.7644 4.07719 83.6847C3.49331 83.5372 2.93944 83.2321 2.4056 82.9337C-0.387057 81.3645 -0.787438 78.9169 1.45136 76.6135C4.52095 73.4618 8.37796 71.839 12.6353 71.0779C13.7731 70.8733 14.9209 70.7225 16.1921 70.5246L16.1854 70.5213ZM29.9185 38.585C25.2373 38.756 20.703 37.8641 16.4356 36.067C15.1678 35.5339 13.9299 33.8977 13.5629 32.5263C13.1592 31.0175 14.9108 30.2598 16.172 29.7199C17.4399 29.1768 18.8112 28.8817 20.1325 28.466C21.7874 27.9463 23.439 27.4132 25.0905 26.8868C25.0305 26.6956 24.9704 26.5012 24.9104 26.3101C21.2135 27.4232 17.4866 28.4425 13.8365 29.6864C11.948 30.3302 10.9938 32.4492 11.7378 34.3939C13.4495 38.8599 13.4728 43.5842 13.98 48.2145C14.8208 55.8658 15.6816 63.5003 17.4099 71.0108C17.7836 72.637 18.0338 74.3302 18.6811 75.8423C19.0748 76.761 20.0324 77.901 20.8999 78.0653C24.0329 78.6621 27.276 79.3796 30.4056 79.1416C35.3703 78.7627 40.2617 77.5322 45.213 76.8918C47.9323 76.5397 50.4981 76.2413 51.8927 73.4484C51.3155 75.9429 49.694 77.1198 47.2183 77.5154C42.3904 78.2933 37.5858 79.2187 32.7745 80.0871C29.2111 80.7309 25.7211 80.466 22.2045 79.6009C19.3584 78.9002 17.8303 77.16 17.1797 74.4241C16.9161 73.3109 16.6125 72.2044 16.2988 70.9873C14.5505 71.4433 13.0024 71.8624 11.4475 72.2514C8.09769 73.0896 5.11151 74.6051 2.58244 76.9957C0.530483 78.937 0.750693 81.1365 3.33649 82.0921C6.50284 83.2623 9.73258 84.533 13.0424 84.989C19.1816 85.8373 25.3942 86.2195 31.5867 86.6286C38.6334 87.0946 45.6735 86.7526 52.6801 85.8742C56.774 85.3612 60.7712 84.4626 64.3379 82.2061C65.9428 81.1902 67.1806 79.9027 67.7445 78.0318C68.0948 76.865 67.9447 75.9329 66.7068 75.4165C63.7874 74.2028 60.888 72.9421 57.9418 71.8021C56.4204 71.2153 54.8122 70.8465 53.3107 70.4006C52.7536 71.5909 52.3065 72.5364 51.8627 73.4852C51.9328 72.9354 51.9628 72.3754 52.0829 71.8356C52.7836 68.6806 53.6411 65.5523 54.1883 62.3704C55.3761 55.4433 56.4204 48.4928 57.4914 41.5489C57.8017 39.5272 58.0086 37.4886 58.2922 35.2153C56.8741 35.8725 55.7564 36.466 54.5853 36.9253C47.7321 39.621 40.5553 39.5573 33.3751 39.326C32.204 39.2891 31.0429 38.8264 29.8751 38.5615C34.2526 38.4341 38.6468 38.4844 43.0043 38.129C46.4976 37.844 49.9542 37.0661 53.4242 36.5062C53.4442 36.2849 53.4642 36.0636 53.4842 35.8423C52.7602 35.3763 52.0829 34.8096 51.3088 34.4576C45.9904 32.0636 40.3017 31.1684 34.5963 31.45C30.5557 31.6479 26.5519 32.922 22.5748 33.8876C21.4871 34.1525 20.5495 35.0376 19.5419 35.6378C19.5853 35.849 19.6253 36.0636 19.6687 36.2749C21.1601 36.5699 22.6582 36.8314 24.1363 37.1701C26.0681 37.6093 27.9866 38.1089 29.9085 38.585H29.9185ZM58.2455 33.5322C57.2845 32.818 56.7407 32.3654 56.1501 31.9865C51.7659 29.1768 46.9147 27.6445 41.8231 26.8365C37.9761 26.2262 34.0958 25.6261 30.2321 26.5246C27.2126 27.2254 24.2431 28.1575 21.2602 29.0192C19.662 29.4819 18.0271 29.8909 16.5157 30.5615C15.6849 30.9303 15.0743 31.7987 14.367 32.4391C15.1744 33.3243 15.8851 34.3335 16.816 35.0544C17.6001 35.6613 18.4976 35.5137 19.3784 34.7795C20.4261 33.9077 21.5872 33.0427 22.8451 32.5733C27.0391 31.0175 31.4099 30.0385 35.8842 30.3268C39.4576 30.5548 43.0143 31.2254 46.5476 31.8658C49.3837 32.3821 52.2397 32.9957 54.2116 35.4601C54.325 35.6043 54.7755 35.6412 54.959 35.5372C55.9766 34.9605 56.9609 34.3235 58.2488 33.5255L58.2455 33.5322ZM55.346 61.663C55.6663 61.6965 55.7864 61.7501 55.8765 61.7166C62.3427 59.2858 66.3265 54.585 68.0715 47.9664C68.8155 45.1399 67.0972 43.6579 64.3012 44.5196C60.9247 45.559 58.5257 48.067 57.3746 51.0779C56.1134 54.3771 55.9766 58.1055 55.346 61.663ZM57.7083 48.6806C60.0972 44.7778 63.2702 42.6118 67.9547 43.3427C66.8169 41.7501 63.4804 40.8348 61.3985 41.435C58.9561 42.1424 57.8217 44.3084 57.7083 48.6772V48.6806ZM54.7588 63.6378C54.8956 63.7686 55.0357 63.9027 55.1725 64.0334C60.2607 63.212 65.132 58.5515 66.6434 54.4039C65.6859 55.4836 64.8417 56.4291 64.0076 57.3813C61.8455 59.8457 59.4066 61.8507 56.0667 62.5079C55.5762 62.6051 55.1925 63.2455 54.7588 63.6344V63.6378Z" fill="#15B5FC"/>
<path d="M28.6239 23.2925C27.286 22.3034 27.2393 20.704 26.989 19.222C26.4185 15.8658 27.316 12.6906 28.2135 9.51542C28.8375 7.31928 28.5405 5.18349 27.5663 3.18181C26.6454 1.29413 25.7746 1.02926 23.0853 1.46848C23.8627 -0.21802 25.7579 -0.516427 27.2359 0.91861C28.7807 2.414 29.6516 4.33856 29.5648 6.471C29.4881 8.33856 29.2679 10.2933 28.6339 12.0301C27.3761 15.4836 27.7598 18.8063 28.7307 22.1759C28.8175 22.4811 28.9242 22.7828 29.021 23.0879C28.8875 23.1583 28.7541 23.2254 28.6206 23.2958L28.6239 23.2925Z" fill="#15B5FC"/>
<path d="M21.5605 12.9721C21.0534 12.1171 20.5462 11.2621 20.0424 10.4105C18.4909 11.6377 18.6644 13.5488 20.3694 15.2051C21.3503 16.1574 22.2845 17.1666 23.142 18.2294C23.4323 18.5882 23.4256 19.1884 23.2254 19.8388C21.5906 17.9847 19.8122 16.2311 18.3742 14.2362C17.51 13.0358 17.53 11.4298 18.6344 10.206C19.0181 9.78016 19.8189 9.39793 20.3193 9.50858C20.8065 9.61587 21.2502 10.3267 21.5238 10.8665C21.8041 11.4264 21.8575 12.1004 22.011 12.7274C21.8608 12.8078 21.7107 12.8916 21.5605 12.9721Z" fill="#15B5FC"/>
<path d="M36.5548 4.92871C36.8984 5.59594 37.6191 6.32351 37.5224 6.92033C37.1687 9.08294 36.6449 11.2355 35.9842 13.3277C35.3703 15.2657 34.4995 17.1232 33.7922 18.8935C32.8146 17.9983 33.1082 15.6747 34.4027 13.5322C35.357 11.9564 36.0243 10.1525 36.5014 8.36207C36.7483 7.43332 36.3079 6.32016 36.1778 5.29082C36.3045 5.17012 36.428 5.04942 36.5548 4.92871Z" fill="#15B5FC"/>
<path d="M47.7988 83.9665C48.9666 83.7049 50.1377 83.4635 51.2988 83.1785C54.1449 82.4878 57.0243 81.8877 59.8169 81.0159C60.8513 80.694 61.8555 79.8659 62.5729 79.0109C63.704 77.6597 63.2168 76.3755 61.5252 75.8122C60.1406 75.3495 58.7326 74.9606 57.3746 74.4074C60.8913 73.6563 64.7183 75.5138 63.9776 78.4308C63.5472 80.1274 62.4228 81.2238 60.9981 81.8038C56.9709 83.4367 52.7636 84.3923 48.4094 84.6002C48.2192 84.6102 48.0224 84.4895 47.8289 84.4325C47.8189 84.2783 47.8088 84.124 47.7988 83.9665Z" fill="#15B5FC"/>
<path d="M30.5825 34.0518C28.5706 34.6251 26.8389 35.1146 24.9705 35.6478C25.6878 33.8204 28.3804 33.0157 30.5825 34.0518Z" fill="#15B5FC"/>
</g>
<defs>
<clipPath id="clip0_2692_2156">
<rect width="70" height="88" fill="white"/>
</clipPath>
</defs>
</svg>
