<svg width="170" height="207" viewBox="0 0 170 207" fill="none" xmlns="http://www.w3.org/2000/svg">
<g id="Layer_1" clip-path="url(#clip0_2915_2073)">
<g id="ivsf4L">
<g id="Group">
<path id="Vector" d="M38.673 159.187C38.049 152.159 37.3031 145.385 36.8861 138.597C35.9041 122.854 35.1471 107.089 34.1423 91.352C33.9321 88.0363 33.2461 84.7026 32.411 81.4783C30.0385 72.3612 32.6434 67.2491 41.5831 64.8364C72.8154 56.4066 102.898 58.6616 131.455 74.7717C139.546 79.3368 141.045 82.1279 139.583 91.4062C139.025 94.9309 138.085 98.3915 137.064 103.022C141.92 98.1181 146.927 98.6818 151.986 99.6759C158.508 100.966 162.406 105.712 162.124 112.37C161.636 123.827 157.31 133.341 148.672 141.202C143.055 146.315 137.467 150.921 129.921 152.577C128.271 152.941 125.81 152.749 125.128 153.764C123.649 155.967 122.957 158.749 122.165 161.359C121.392 163.911 123.68 163.598 125.042 164.163C133.366 167.629 141.872 170.733 149.927 174.742C156.304 177.908 156.726 181.83 152.457 187.718C148.544 193.106 143.071 196.47 136.783 197.719C127.579 199.544 118.223 201.509 108.911 201.65C84.9835 202 61.086 200.517 37.64 195.421C28.1457 193.356 19.0052 189.624 9.72836 186.571C8.45293 186.154 7.2685 185.39 6.12754 184.645C0.160163 180.729 -0.35344 175.229 4.97833 170.455C12.2877 163.925 21.1124 160.913 30.6947 159.877C33.2557 159.597 35.8307 159.439 38.6873 159.195L38.673 159.187ZM74.1182 90.3396C63.6846 89.9989 53.7408 87.3193 44.5298 82.6692C41.793 81.2895 39.2927 77.4634 38.6877 74.3598C38.0223 70.9452 42.0333 69.5311 44.9203 68.5258C47.8226 67.5141 50.9168 67.0696 53.9182 66.3492C57.6774 65.4492 61.4313 64.5189 65.1841 63.6034C65.08 63.1695 64.9764 62.7282 64.8723 62.2943C56.482 64.1986 48.0394 65.8897 39.7329 68.0918C35.4353 69.2315 32.9878 73.793 34.3428 78.2285C37.4611 88.4154 36.7863 98.916 37.2015 109.282C37.8937 126.413 38.633 143.509 41.32 160.463C41.9007 164.133 42.1965 167.934 43.403 171.394C44.137 173.496 46.0905 176.176 47.9939 176.675C54.8675 178.483 61.9673 180.577 68.9619 180.529C80.058 180.452 91.1219 178.471 102.229 177.81C108.328 177.446 114.079 177.178 117.609 171.187C115.942 176.641 112.156 179.006 106.591 179.504C95.7375 180.489 84.9133 181.806 74.0831 182.995C66.0618 183.877 58.3434 182.751 50.658 180.288C44.4384 178.292 41.3087 174.191 40.2831 168.011C39.8684 165.497 39.3635 162.992 38.8535 160.24C34.8964 160.984 31.39 161.677 27.8734 162.301C20.2969 163.648 13.4247 166.556 7.43419 171.479C2.57353 175.476 2.72474 180.397 8.3266 182.919C15.1862 186.006 22.1712 189.327 29.4596 190.849C42.978 193.679 56.7313 195.485 70.436 197.347C86.0309 199.467 101.735 199.791 117.448 198.918C126.629 198.408 135.654 197.027 143.93 192.562C147.655 190.552 150.605 187.881 152.146 183.811C153.105 181.272 152.914 179.178 150.242 177.84C143.938 174.694 137.686 171.447 131.311 168.46C128.019 166.922 124.5 165.855 121.23 164.633C119.809 167.192 118.669 169.224 117.537 171.264C117.777 170.053 117.93 168.814 118.28 167.633C120.323 160.73 122.711 153.911 124.417 146.926C128.123 131.717 131.514 116.434 134.964 101.17C135.965 96.7251 136.738 92.2274 137.718 87.2199C134.465 88.4618 131.888 89.6084 129.214 90.4488C113.563 95.3837 97.6168 94.1374 81.6891 92.5181C79.0911 92.2559 76.5809 91.049 74.0253 90.2807C83.7772 90.6715 93.5388 91.4596 103.281 91.3407C111.092 91.2452 118.896 90.0488 126.697 89.3388C126.776 88.8502 126.854 88.3616 126.933 87.873C125.395 86.726 123.976 85.3627 122.309 84.4613C110.853 78.3233 98.3436 75.4585 85.6157 75.2061C76.6022 75.0237 67.5047 77.2383 58.514 78.7717C56.0551 79.1928 53.8345 81.0153 51.5019 82.1938C51.5659 82.6698 51.6219 83.1527 51.6858 83.6288C54.9562 84.5139 58.2466 85.3256 61.4806 86.3056C65.708 87.5789 69.8964 88.9843 74.0959 90.338L74.1182 90.3396ZM137.873 83.4729C135.847 81.7381 134.707 80.6486 133.453 79.7159C124.138 72.7979 113.588 68.6465 102.393 66.0674C93.9337 64.1193 85.399 62.1884 76.6708 63.5903C69.8498 64.6825 63.1045 66.2965 56.3404 67.752C52.716 68.5341 49.0183 69.1913 45.5548 70.4487C43.651 71.1403 42.16 72.9758 40.4889 74.2899C42.1478 76.381 43.5726 78.7328 45.5312 80.4779C47.1811 81.947 49.1992 81.7574 51.2705 80.2614C53.7338 78.4857 56.4483 76.7423 59.3171 75.8929C68.8807 73.0817 78.7488 71.5792 88.6518 72.9086C96.5613 73.9652 104.366 76.0027 112.123 77.9696C118.348 79.5534 124.604 81.3564 128.609 87.1357C128.839 87.4735 129.834 87.6247 130.258 87.422C132.61 86.2973 134.896 85.0333 137.882 83.4585L137.873 83.4729ZM127.1 145.532C127.807 145.656 128.065 145.793 128.271 145.733C143.021 141.327 152.601 131.495 157.499 117.058C159.588 110.892 155.995 107.334 149.647 108.819C141.98 110.608 136.26 115.812 133.238 122.324C129.927 129.461 129.049 137.724 127.1 145.532ZM134.349 117.049C140.26 108.745 147.648 104.421 157.95 106.766C155.666 103.052 148.389 100.505 143.668 101.518C138.129 102.714 135.274 107.352 134.349 117.042L134.349 117.049ZM125.49 149.829C125.774 150.141 126.065 150.461 126.349 150.772C137.788 149.73 149.335 140.125 153.333 131.142C151.038 133.393 149.016 135.364 147.015 137.351C141.829 142.494 136.098 146.574 128.572 147.52C127.466 147.661 126.515 149.025 125.491 149.822L125.49 149.829Z" fill="#15B5FC"/>
<path id="Vector_2" d="M73.5929 56.1612C70.7705 53.7575 70.9127 50.1967 70.5843 46.8653C69.8322 39.32 72.3161 32.4031 74.8 25.4861C76.525 20.7024 76.1934 15.9111 74.3353 11.3135C72.5783 6.97738 70.683 6.25479 64.6366 6.81678C66.6244 3.18911 70.8837 2.81778 73.9491 6.23389C77.1535 9.79437 78.7935 14.2047 78.2726 18.9295C77.8147 23.0673 77.0243 27.3768 75.3478 31.1383C72.0199 38.6181 72.3618 46.0601 74.002 53.6968C74.148 54.3881 74.3389 55.075 74.5071 55.7679C74.1995 55.9038 73.8925 56.0322 73.585 56.1681L73.5929 56.1612Z" fill="#15B5FC"/>
<path id="Vector_3" d="M59.4769 32.1427C58.4809 30.1649 57.4849 28.1871 56.4958 26.2173C52.8577 28.7051 52.9494 32.9783 56.4852 36.9211C58.5195 39.1879 60.4413 41.5741 62.1842 44.0677C62.7743 44.9096 62.6672 46.2421 62.122 47.6566C58.7725 43.2851 55.0885 39.115 52.1983 34.4609C50.4618 31.6608 50.7533 28.0953 53.3969 25.5461C54.3155 24.659 56.1546 23.933 57.2503 24.2559C58.3168 24.5692 59.194 26.217 59.7192 27.4585C60.2562 28.7458 60.2712 30.2515 60.516 31.6682C60.1698 31.8239 59.8231 31.9871 59.4769 32.1427Z" fill="#15B5FC"/>
<path id="Vector_4" d="M94.0502 16.5785C94.7116 18.114 96.2019 19.8416 95.895 21.1528C94.776 25.9035 93.2802 30.6058 91.4896 35.1529C89.8266 39.3645 87.6048 43.3577 85.7598 47.1824C83.7241 45.0428 84.7343 39.9251 87.9421 35.3639C90.306 32.0093 92.0671 28.1039 93.4033 24.1991C94.0951 22.1735 93.2872 19.6323 93.1563 17.3251C93.4567 17.0764 93.7498 16.8272 94.0502 16.5785Z" fill="#15B5FC"/>
<path id="Vector_5" d="M106.889 193.927C109.526 193.526 112.167 193.17 114.792 192.715C121.226 191.619 127.72 190.728 134.063 189.221C136.412 188.665 138.772 186.98 140.498 185.191C143.221 182.362 142.335 179.434 138.661 177.922C135.654 176.681 132.583 175.6 129.649 174.162C137.583 173.034 145.806 177.75 143.71 184.118C142.493 187.821 139.824 190.084 136.567 191.154C127.363 194.162 117.862 195.638 108.149 195.429C107.725 195.422 107.306 195.124 106.885 194.968C106.886 194.623 106.887 194.279 106.889 193.927Z" fill="#15B5FC"/>
<path id="Vector_6" d="M76.2918 80.3695C71.7306 81.3338 67.8054 82.1549 63.5693 83.0518C65.4453 79.102 71.5553 77.7285 76.2918 80.3695Z" fill="#15B5FC"/>
</g>
</g>
</g>
<defs>
<clipPath id="clip0_2915_2073">
<rect width="156" height="196" fill="white" transform="translate(13.5381) rotate(3.96067)"/>
</clipPath>
</defs>
</svg>
