<svg width="72" height="85" viewBox="0 0 72 85" fill="none" xmlns="http://www.w3.org/2000/svg">
<g clip-path="url(#clip0_2690_2085)">
<path d="M1.07333 26.3624C0.866906 26.5695 0.273443 25.7515 9.30957 36.0128C13.6186 40.9053 12.4111 41.2987 24.7344 54.6612C30.2356 60.6099 33.8273 64.7154 37.9248 72.6211C38.0641 72.8903 38.5131 72.6884 38.3531 72.3726C35.0504 65.8026 31.0613 60.5426 25.9678 55.1737C13.0664 41.6249 14.4495 40.9208 9.00509 34.967C1.57906 26.818 1.42424 26.0052 1.07333 26.3624ZM10.9506 37.9957C10.9042 37.9335 10.9093 37.9387 10.9506 37.9957V37.9957Z" fill="#15B5FC" stroke="#15B5FC" stroke-miterlimit="10"/>
<path d="M4.89723 26.7146C3.45228 27.983 1.93507 28.4438 2.23955 28.9615C2.45113 29.3239 2.74528 29.0081 3.63806 28.3765C10.4706 23.5409 7.18851 20.9109 12.4213 27.5015C22.6547 40.4343 23.3307 39.1918 29.1776 47.2268C36.8617 57.8402 36.485 61.2934 39.7774 78.2023C39.8342 78.4871 40.2728 78.5854 40.4483 78.2903C40.6082 78.0107 39.6639 74.1123 39.0394 70.804C37.9041 64.7984 37.7338 59.6678 33.6467 52.7147C27.6707 42.5621 25.6426 42.8573 11.8691 25.7879C8.17934 20.9679 9.19081 22.8938 4.90239 26.7094L4.89723 26.7146ZM8.95858 23.5565C8.84505 23.572 8.90182 23.5565 8.95858 23.5565V23.5565ZM8.85537 23.5875C8.82957 23.5979 8.83473 23.5979 8.85537 23.5875V23.5875Z" fill="#15B5FC" stroke="#15B5FC" stroke-miterlimit="10"/>
<path d="M16.1631 17.458C15.745 17.7013 16.1011 18.0533 16.9939 19.3839C21.3546 25.8606 26.0661 28.413 33.1567 36.8467C39.1739 44.0017 43.8494 52.7823 50.6665 60.6673C50.8419 60.8743 51.198 60.5948 50.9813 60.3514C42.8173 50.8305 39.9532 42.5521 29.9056 32.182C20.8333 22.8009 21.3288 24.7113 16.6327 17.5874C16.4417 17.2975 16.1321 17.4631 16.1579 17.4631L16.1631 17.458ZM34.9681 38.9953C35.0197 39.0678 35.03 39.073 34.9681 38.9953V38.9953ZM49.3557 58.3686C49.3918 58.4151 49.4022 58.4307 49.3557 58.3686V58.3686Z" fill="#15B5FC" stroke="#15B5FC" stroke-miterlimit="10"/>
<path d="M23.9138 14.0612C19.4654 16.2046 19.6977 16.0907 17.4425 20.481C17.1948 20.9676 17.8863 21.2731 18.0979 20.8641C20.255 16.655 19.8215 16.6861 25.911 13.9421C31.1386 11.8039 29.6575 15.4383 35.7367 26.0258C48.6432 48.4588 49.4379 51.5289 51.657 65.9734C51.724 66.4031 52.5188 66.3824 52.4259 65.7612C49.4895 46.3103 48.0755 46.8797 35.6231 24.2604C29.7917 13.6056 31.7166 10.2715 23.9138 14.056V14.0612ZM47.2395 47.7599C47.2602 47.8065 47.2602 47.8065 47.2395 47.7599V47.7599Z" fill="#15B5FC" stroke="#15B5FC" stroke-miterlimit="10"/>
<path d="M37.6619 4.7065C36.3408 5.48309 50.8574 23.3342 53.608 26.8392C60.5438 35.713 63.4543 41.6358 64.0736 41.8066C64.4091 41.8998 64.6464 41.5064 64.4813 41.2734C62.8764 38.9643 62.4119 37.5251 57.5455 30.6134C53.7525 25.2446 48.1791 18.6902 44.2003 13.2541C37.7909 4.5253 38.2915 4.33374 37.6619 4.7065ZM47.6321 17.7273C47.6837 17.7946 47.694 17.8049 47.6321 17.7273V17.7273ZM47.694 17.8049C47.6063 17.691 47.6218 17.7066 47.694 17.8049V17.8049Z" fill="#15B5FC" stroke="#15B5FC" stroke-miterlimit="10"/>
<path d="M45.4127 2.13267C42.8118 2.82642 41.9242 3.99647 39.5968 6.67311C39.3388 6.96821 39.7671 7.30473 39.9838 7.0614C42.0429 4.68505 42.8738 3.603 44.8193 2.88337C46.2642 2.34493 46.7132 2.49507 47.6524 3.58747C56.9259 14.3768 61.0131 22.2514 63.5211 28.169C64.1868 29.7999 70.5033 47.154 70.9265 51.1042C71.1949 53.5997 70.4414 54.1329 70.524 54.4384C70.751 55.2564 71.7831 54.2261 71.7367 51.7307C71.6851 48.5984 65.1828 26.678 58.2625 16.5668C56.4924 13.9834 55.4913 12.4975 49.7476 5.20277C47.5905 2.35529 46.8732 1.73919 45.4076 2.13267H45.4127ZM46.9403 2.87819C46.9712 2.90407 46.9764 2.90925 46.9403 2.87819V2.87819ZM51.3732 7.32026C51.399 7.35133 51.4041 7.36168 51.3732 7.32026V7.32026ZM53.7986 11.4724C53.7728 11.4414 53.778 11.4465 53.7986 11.4724V11.4724ZM53.4838 11.0582C53.4374 11.0013 53.4426 11.0065 53.4838 11.0582V11.0582ZM50.8674 6.64722C50.9139 6.70935 50.8932 6.68346 50.8468 6.62134C50.852 6.63169 50.8623 6.64205 50.8674 6.64722ZM50.1656 5.7412C50.1398 5.70496 50.145 5.71014 50.1656 5.7412V5.7412Z" fill="#15B5FC" stroke="#15B5FC" stroke-miterlimit="10"/>
<path d="M67.4125 49.5414C67.4125 49.5414 67.815 50.1989 67.0254 47.4654C66.7829 46.5852 65.9108 44.2296 65.8746 44.2089C65.4773 43.9759 66.5713 45.8449 67.4125 49.5414Z" fill="#15B5FC" stroke="#15B5FC" stroke-miterlimit="10"/>
<path d="M11.2552 14.2892C8.63366 14.3979 8.59753 15.4281 3.26152 17.1108C0.748337 17.8977 -0.629531 20.2119 0.903153 24.1518C1.0012 24.3951 1.19214 24.4728 1.37792 24.421C2.21909 24.188 0.815423 23.1319 1.08377 20.7814C1.54306 17.7372 3.85499 18.1928 6.52815 16.9813C8.00923 16.3135 11.0849 14.284 12.9118 15.5006C13.1801 15.7491 12.3544 17.4473 12.1893 17.7734C11.7197 18.695 10.5689 19.8081 9.83607 20.5277C8.41691 21.9101 7.50866 22.0343 6.41462 22.2207C2.76095 22.7177 2.29134 22.6815 2.43584 23.2199C2.55969 23.6651 2.70935 23.4995 6.55396 22.9714C6.53847 22.9714 8.70074 23.106 11.539 19.9324C12.179 19.2179 12.4163 18.9694 12.8653 18.2187C13.1853 17.6906 13.7632 16.272 13.8148 15.7957C14.0058 14.0614 10.8217 14.2892 11.2501 14.2892H11.2552ZM1.06829 21.9308C1.07345 21.9722 1.07345 21.9774 1.06829 21.9308V21.9308ZM5.83148 22.3035C5.77987 22.3087 5.78503 22.3087 5.83148 22.3035V22.3035ZM6.55912 22.9662C6.63136 22.9559 6.63136 22.9559 6.55912 22.9662V22.9662Z" fill="#15B5FC" stroke="#15B5FC" stroke-miterlimit="10"/>
<path d="M23.0522 4.07413C20.4719 5.55482 20.1623 6.44531 19.6049 8.8372C18.836 12.1558 18.7379 12.6218 19.2798 12.7719C20.0074 12.9738 19.7959 12.3008 20.5596 9.19443C21.1634 6.75077 21.2253 5.43575 27.8412 3.28201C32.8262 1.65636 33.5848 1.11792 34.9575 1.25771C36.5883 1.52175 36.4799 2.77464 35.6491 4.19838C31.9696 10.468 23.7385 6.75594 22.9386 7.55842C22.7528 7.7448 22.758 8.03472 22.9386 8.21593C22.9748 8.25217 30.6433 9.95548 33.91 7.44969C38.8383 3.69619 37.9455 -0.787303 33.0636 0.481122C33.0894 0.481122 24.9822 2.97138 23.0573 4.07413H23.0522Z" fill="#15B5FC" stroke="#15B5FC" stroke-miterlimit="10"/>
</g>
<defs>
<clipPath id="clip0_2690_2085">
<rect width="72" height="85" fill="white"/>
</clipPath>
</defs>
</svg>
