<svg width="83" height="72" viewBox="0 0 83 72" fill="none" xmlns="http://www.w3.org/2000/svg">
<g clip-path="url(#clip0_2692_2165)">
<path d="M30.1409 26.0042C38.7782 30.013 47.302 33.9676 55.9348 37.9689C57.3321 35.1865 58.7041 32.3786 60.1388 29.5992C61.5132 26.9327 62.9772 24.3144 64.3336 21.6432C64.8663 20.594 65.7439 20.4193 66.5999 20.783C67.9547 21.3625 69.2927 22.0593 70.4607 22.95C70.935 23.3132 71.079 24.3032 71.0911 25.0102C71.1006 25.6013 70.7612 26.2386 70.4522 26.7812C64.5357 37.0664 59.9575 47.9717 55.4867 58.9297C54.7489 60.7398 54.1022 62.5921 53.2897 64.3705C52.1615 66.8433 50.4181 67.5734 48.2732 66.6213C45.1335 65.2255 44.2811 63.6403 45.4657 60.9193C47.664 55.8757 49.973 50.8729 52.2401 45.8594C52.3307 45.652 52.4214 45.4445 52.6118 44.9935C44.1394 40.9112 35.6895 36.8409 27.0916 32.7013C26.0243 34.9336 25.1321 36.8006 24.228 38.6645C22.569 42.1039 20.9026 45.5477 19.2317 48.9841C18.1329 51.2404 16.94 51.6554 14.4508 50.7057C11.6838 49.6474 10.6647 48.2184 11.4942 45.9452C12.2678 43.8178 13.3298 41.7826 14.423 39.8C20.1967 29.2996 24.8906 18.2892 29.589 7.28628C30.6212 4.84035 31.2958 4.56301 33.7872 5.32765C33.8291 5.33823 33.8769 5.35034 33.9172 5.36694C37.984 6.94606 37.9759 7.45599 36.5036 10.9874C34.5719 15.6056 32.555 20.1832 30.577 24.7834C30.4364 25.1126 30.3302 25.4569 30.1364 25.9967L30.1409 26.0042ZM46.5422 61.1404C45.8792 63.6606 46.4228 64.6557 48.602 65.6485C50.0284 66.2973 51.1586 65.8536 52.2085 64.1929C52.4224 63.8503 52.6125 63.476 52.7593 63.0971C57.7077 50.628 62.5694 38.1241 69.1534 26.3823C70.3023 24.3306 70.0902 23.861 68.0688 22.7225C65.2217 21.1255 64.9221 21.2033 63.53 24.1662C59.2979 33.1751 55.0538 42.181 50.8724 51.2156C49.2884 54.6355 47.8566 58.1323 46.5497 61.1359L46.5422 61.1404ZM12.6474 45.3602C12.1223 47.1344 12.603 48.4784 13.7655 49.2652C15.58 50.4922 17.5788 49.8843 18.8081 47.565C20.0857 45.1555 21.2497 42.6917 22.3914 40.2158C26.828 30.5995 31.2244 20.9665 35.6611 11.3502C37.15 8.13023 37.0807 7.87592 33.807 6.68299C31.4536 5.82528 31.3969 5.79813 30.5404 8.07734C26.6847 18.3142 21.8763 28.0925 16.651 37.6822C15.1928 40.3531 13.8362 43.0754 12.6459 45.3662L12.6474 45.3602ZM55.4395 39.0467C46.8355 34.9311 38.3451 30.8698 29.7457 26.7618C28.9089 28.6108 28.1492 30.2809 27.4363 31.8669C36.0929 35.8998 44.5853 39.8528 53.1508 43.8435C53.8574 42.3583 54.6227 40.7664 55.4395 39.0467Z" fill="#15B5FC"/>
<path d="M13.4676 19.5082C14.719 16.9001 15.9764 14.2936 17.2189 11.6704C18.1671 9.65759 19.0395 9.30231 21.1101 10.1461C24.9017 11.6812 25.1664 12.0682 23.4871 15.7391C20.083 23.1848 16.5251 30.5596 13.0479 37.9675C12.7036 38.6996 12.2492 38.9367 11.5534 38.5686C9.99153 37.7512 8.4266 36.9457 6.90092 36.0606C5.87535 35.462 6.28774 34.5359 6.64862 33.7633C7.67081 31.5836 8.73333 29.4205 9.84065 27.2815C10.2631 26.4668 10.2605 25.999 9.60848 25.1813C8.9073 24.3063 8.44145 22.979 8.4581 21.8568C8.49388 19.3764 10.6678 18.4032 13.4751 19.5037L13.4676 19.5082ZM23.7774 12.8559C22.6276 12.2707 21.4255 11.6658 20.2309 11.0564C19.3692 10.6145 18.7547 10.8558 18.368 11.7307C17.8453 12.8912 17.3391 14.0623 16.7882 15.2093C14.1159 20.8434 11.4049 26.4549 8.76704 32.1041C7.25256 35.3496 7.3154 35.3527 10.5742 36.9066C11.6808 37.4361 12.294 37.1753 12.794 36.0538C14.6007 31.9799 16.4314 27.912 18.3412 23.8833C20.0729 20.232 21.9105 16.6395 23.7834 12.8574L23.7774 12.8559ZM12.9482 20.6056C11.4506 19.8107 10.5717 19.9148 9.94232 20.8435C9.13824 22.0353 9.46755 23.4497 10.9612 24.8387C11.6225 23.4317 12.2687 22.0592 12.9482 20.6056Z" fill="#15B5FC"/>
<path d="M71.5003 46.7317C73.5123 47.631 74.2785 49.0536 73.7894 50.7858C73.2653 52.6563 71.2125 53.6538 68.5086 53.2513C67.622 55.2221 66.7157 57.2456 65.8169 59.2645C65.7036 59.511 65.6411 59.7832 65.5458 60.0343C64.5367 62.6653 64.1468 62.8482 61.5531 61.8593C60.6253 61.503 59.7263 61.058 58.7819 60.7423C57.4384 60.2937 57.3802 59.543 57.9418 58.3539C59.9649 54.0787 61.8984 49.7553 63.8871 45.465C65.5527 41.8737 67.2735 38.3156 68.9047 34.7093C69.4137 33.5773 70.1209 33.3722 71.1667 33.7903C72.0451 34.1405 72.9703 34.4066 73.8065 34.8485C75.7924 35.9012 76.0372 36.7695 75.0948 38.835C73.9032 41.4327 72.7281 44.0408 71.5063 46.7332L71.5003 46.7317ZM58.7584 59.5524C60.0329 60.022 61.1862 60.493 62.3683 60.8752C63.2276 61.1502 63.8577 60.772 64.2248 59.9497C67.5462 52.5791 70.8617 45.207 74.2011 37.841C74.5288 37.1239 74.4589 36.6455 73.7256 36.3C72.468 35.7131 71.2225 35.1036 69.9636 34.4971C66.2265 42.8569 62.5468 51.0904 58.7644 59.5539L58.7584 59.5524ZM69.0657 52.0803C71.1345 52.2773 72.5412 51.5452 72.8118 50.1737C73.0702 48.8503 72.2663 48.2054 71.0576 47.7524C70.3961 49.185 69.7664 50.5681 69.0657 52.0803Z" fill="#15B5FC"/>
</g>
<defs>
<clipPath id="clip0_2692_2165">
<rect width="70.5357" height="55.9686" fill="white" transform="translate(13.8142 0.255859) rotate(14.1961)"/>
</clipPath>
</defs>
</svg>
