<svg width="79" height="70" viewBox="0 0 79 70" fill="none" xmlns="http://www.w3.org/2000/svg">
<g clip-path="url(#clip0_2690_2131)">
<path d="M77.8979 28.0756C77.3947 26.611 76.6505 24.7546 75.0913 24.1263C73.1919 23.3605 71.2924 24.9275 70.0025 26.2192C69.8147 25.3087 69.6233 24.3981 69.4462 23.4875C69.2477 22.464 69.0386 21.4406 68.8048 20.4241C68.7197 20.05 68.6311 19.6441 68.4894 19.27C69.4887 17.8795 68.5921 15.6843 68.741 14.0926C68.8685 12.7232 69.7864 11.6644 70.4809 10.5456C71.133 9.49037 71.6681 8.33276 71.8204 7.09398C72.2599 3.5188 69.6552 -0.825758 65.6083 0.134209C63.4892 0.635369 62.5288 2.43884 60.9838 3.75879C58.9639 5.48462 56.3167 3.9529 54.1302 5.13169C50.2676 7.2175 51.6106 12.5926 48.9564 15.4902C46.9932 17.636 43.694 17.2548 41.4331 18.9242C40.4692 19.6371 39.6542 20.6923 39.3352 21.857C39.0695 22.8311 39.1049 23.8616 39.1439 24.8781C39.0198 24.7687 38.832 24.7228 38.6726 24.811C38.3926 24.9663 38.2048 25.1957 38.1304 25.4463C38.063 25.4816 38.0099 25.5416 37.9922 25.6334C37.5811 27.7686 38.5273 30.0379 39.0092 32.099C39.5443 34.3825 40.2885 36.6095 40.8165 38.8964C41.791 43.1034 42.8222 47.3597 44.8989 51.1854C45.3702 52.0572 45.9265 52.8654 46.5467 53.6065C47.2129 54.4783 47.989 55.2547 48.9174 55.8512C49.4135 56.1723 49.9557 56.4335 50.5156 56.6594C51.0578 56.9029 51.6213 57.1147 52.2237 57.2593C52.7482 57.3864 53.2762 57.4817 53.8078 57.5487C54.963 57.7393 56.1289 57.8417 57.2239 57.9052C60.314 58.0817 63.3333 57.3299 66.0513 55.89C68.1137 54.7959 70.0628 53.3983 71.3598 51.489C72.2563 50.3949 73.0147 49.1384 73.0962 47.7585C73.2734 47.1938 73.323 46.5727 73.3336 45.9868C73.3372 45.6833 73.3301 45.3797 73.3159 45.0762C73.3761 43.7669 73.2167 42.4575 72.9863 41.1622C74.5066 41.1728 76.367 40.0682 77.2352 39.1153C78.5819 37.6329 79.0461 35.6601 78.9929 33.7048C78.9433 31.7955 78.5145 29.865 77.8979 28.065V28.0756ZM45.7423 37.1424C45.6395 36.6412 45.5332 36.1259 45.5296 35.6142C45.5296 35.1766 45.5757 34.6542 45.8734 34.3084C46.5715 33.4931 47.3901 34.6578 47.7374 35.2507C48.6091 36.74 49.0982 38.4729 49.6191 40.114C50.5546 43.0539 51.359 46.0397 52.1989 49.0079C52.6844 50.7196 53.1663 52.4348 53.6164 54.1571C53.7723 54.75 53.9282 55.3465 54.0735 55.9429C54.0877 56.0029 54.1019 56.0594 54.1161 56.1194C53.7581 56.0912 53.4002 56.0629 53.0423 56.0135C52.3903 55.9182 51.7276 55.7665 51.0826 55.5582C51.1464 55.5371 51.196 55.4806 51.1748 55.3924C49.7077 49.2302 47.0215 43.3645 45.7458 37.1494L45.7423 37.1424ZM60.5302 55.5653C59.382 49.6467 57.4507 43.8833 56.3096 37.9541C56.1076 36.9059 55.7816 35.653 56.0332 34.5872C56.2246 33.786 56.8837 33.2707 57.5712 33.959C58.1063 34.4954 58.4252 35.293 58.6839 35.9848C59.0383 36.9377 59.3041 37.9329 59.5698 38.9176C60.3246 41.7022 60.8916 44.5468 61.5082 47.3632C61.9016 49.1631 62.2949 50.9631 62.6493 52.7701C62.7733 53.4089 62.9009 54.0477 63.0143 54.6865C63.0214 54.7288 63.032 54.7853 63.0427 54.8418C62.217 55.1171 61.3771 55.3641 60.5302 55.5653ZM69.308 51.5278C69.0245 51.8242 68.7197 52.0925 68.3972 52.336C67.9259 49.8972 67.2632 47.5009 66.6821 45.0833C65.8564 41.6422 64.9279 38.2153 64.2015 34.7495C63.9569 33.5849 63.6876 32.3814 63.6664 31.1885C63.6522 30.285 64.2759 28.7674 65.2965 29.7909C66.2745 30.772 66.6076 32.4237 66.9585 33.7119C67.7345 36.5636 68.3193 39.4682 68.9394 42.3587C69.3328 44.201 69.7261 46.0397 70.0805 47.8891C70.2081 48.5561 70.3321 49.2231 70.449 49.8937C70.4632 49.9749 70.4845 50.0808 70.5057 50.1937C70.1018 50.6737 69.6871 51.1254 69.3044 51.5278H69.308ZM72.2705 37.1847C71.9516 35.3918 71.5901 33.6025 71.2003 31.8237C71.0196 30.9979 70.8424 30.172 70.6652 29.3426C71.2676 28.7109 72.2457 27.9662 73.0714 28.5274C74.0565 29.1979 74.0353 30.6732 74.0459 31.7179C74.0601 32.9778 74.0813 34.3366 73.5037 35.4907C73.2734 35.9495 73.0289 36.4153 72.6851 36.8C72.5611 36.9412 72.4229 37.0683 72.2705 37.1812V37.1847ZM41.9824 19.3406C43.9562 18.0701 46.5112 18.3171 48.5064 17.0678C51.8693 14.9608 51.0968 10.8986 52.7376 7.80336C53.2691 6.79752 54.0842 5.84461 55.2323 5.5552C56.3309 5.27639 57.4826 5.54814 58.5953 5.46697C60.6011 5.32227 61.6854 4.07996 62.9222 2.65412C64.2865 1.08359 66.2462 -0.003433 68.2307 1.26005C69.7226 2.20943 70.1726 4.09761 70.2045 5.7599C70.2541 8.29394 68.5283 10.228 67.7239 12.5256C67.327 13.662 67.4085 14.7243 67.5928 15.889C67.7097 16.6478 67.8621 17.4172 67.7735 18.1583C67.7027 18.1689 67.6318 18.2007 67.5751 18.2712C67.001 18.9383 66.7175 19.7712 66.0796 20.4206C65.3638 21.1547 64.5098 21.7405 63.6238 22.2488C61.5827 23.4205 59.3289 24.2146 57.0715 24.8534C52.5214 26.1451 47.8649 26.7133 43.1305 26.4204C42.1808 26.3604 41.224 26.2757 40.292 26.071C40.129 26.0357 39.966 25.9969 39.803 25.951C39.803 25.9369 39.8101 25.9263 39.8101 25.9122C39.8349 23.4311 39.5975 20.8759 41.9859 19.3406H41.9824ZM39.1722 25.711C39.1332 25.6792 39.0872 25.6475 39.0553 25.6298C39.0836 25.5875 39.1261 25.5063 39.1651 25.4392C39.1651 25.531 39.1687 25.6192 39.1722 25.711ZM40.1503 32.4555C39.9022 31.3614 39.6648 30.2638 39.4238 29.1662C40.4231 29.5332 41.5642 29.6956 42.5777 29.8297C43.9491 30.0097 45.3347 30.0767 46.7203 30.0838C49.3639 30.0979 52.0465 30.0167 54.6653 29.632C57.2452 29.2544 59.7328 28.485 62.1 27.4086C63.2128 26.9004 64.2901 26.318 65.2965 25.6192C66.1859 25.0016 67.2526 24.3063 67.8196 23.3605C67.9365 23.1628 67.6743 22.9758 67.5113 23.124C66.6218 23.9252 65.8776 24.7863 64.8748 25.4675C63.9463 26.0992 62.9541 26.6533 61.9264 27.1121C59.5096 28.1921 56.866 28.7885 54.2472 29.145C51.7134 29.4909 49.1123 29.5579 46.5609 29.5368C45.2532 29.5262 43.9491 29.4591 42.6521 29.2897C41.5217 29.145 40.4231 28.8238 39.3069 28.6368C39.1616 27.9768 39.0057 27.3204 38.8533 26.6604C39.3919 26.9392 40.0759 27.0415 40.6216 27.1333C42.9534 27.5215 45.3418 27.4898 47.6948 27.4227C50.3916 27.3451 53.0388 26.8792 55.654 26.2333C58.2232 25.6016 60.7853 24.8004 63.1561 23.6146C64.3716 23.0076 65.5516 22.2876 66.5439 21.3558C66.916 21.0064 67.3766 20.5371 67.7239 20.0182C67.9259 21.2359 68.2059 22.4499 68.4291 23.6605C68.904 26.2051 69.4355 28.7427 69.9742 31.2767C70.3144 32.8825 70.6439 34.4919 70.9416 36.1048C70.9345 37.22 71.257 38.3812 71.5086 39.4717C71.5688 39.8599 71.6326 40.2446 71.6858 40.6328C71.8949 42.1399 72.1004 43.6645 72.1677 45.1856C72.1819 45.528 72.1713 45.8597 72.15 46.1915C72.0331 47.1444 71.785 48.115 71.3952 49.0043C71.3669 49.0467 71.3385 49.089 71.3102 49.1314C71.2464 48.7679 71.179 48.4044 71.1117 48.0797C70.7502 46.3115 70.3534 44.5504 69.9458 42.7928C69.191 39.5529 68.3547 36.3412 67.444 33.1402C67.1215 32.0143 66.0123 27.8639 64.0491 29.0144C62.9576 29.6567 63.0923 31.319 63.1986 32.3919C63.5423 35.8859 64.4247 39.3305 65.2788 42.7257C66.108 46.0291 67.0896 49.3008 68.0818 52.5548C67.0577 53.2642 65.8918 53.7759 64.7366 54.2277C64.4814 54.3265 64.2192 54.4183 63.9605 54.5136C63.8861 53.9842 63.7798 53.423 63.6805 52.943C63.3262 51.2525 62.9364 49.5655 62.5395 47.8855C61.8059 44.7833 61.0334 41.6846 60.1297 38.6247C59.7966 37.4953 59.506 36.3483 59.0383 35.2648C58.6839 34.4495 58.1417 33.2672 57.1566 33.066C55.6824 32.7661 55.367 34.7601 55.4095 35.8048C55.5513 39.1505 56.4974 42.5104 57.3089 45.7397C58.1453 49.0679 59.141 52.3642 60.1652 55.6359C58.5032 56.0029 56.8093 56.197 55.1083 56.1582C55.0977 56.0664 55.0835 55.9747 55.0658 55.9006C54.9524 55.3606 54.8142 54.8277 54.6689 54.2983C54.2295 52.6924 53.7581 51.0937 53.2762 49.4984C52.2946 46.2374 51.2244 43.0081 50.1577 39.7752C49.5836 38.0388 49.084 36.1154 48.0173 34.6119C47.5744 33.9872 46.8302 33.2284 45.9797 33.5566C45.2603 33.8354 44.991 34.7072 44.9414 35.4024C44.8563 36.6024 45.193 37.8765 45.4588 39.0376C45.8805 40.894 46.4333 42.7187 47.0038 44.5362C48.1591 48.2244 49.534 51.8454 50.8913 55.4594C50.8984 55.4771 50.9125 55.4841 50.9232 55.4947C50.4271 55.3253 49.9486 55.1171 49.4951 54.8665C47.3015 53.5007 45.8592 51.0019 44.9768 48.662C44.3992 47.1338 43.8393 45.588 43.2794 44.0527C42.8222 42.7963 42.5671 41.4728 42.0993 40.227C42.0249 39.9058 41.9469 39.5846 41.8725 39.2635C41.3445 36.9836 40.6712 34.7354 40.1538 32.4555H40.1503ZM77.012 36.9377C76.5513 37.9047 75.8532 38.6 74.9318 39.1364C74.2266 39.5458 73.4683 39.6729 72.7347 39.9023C72.7135 39.7929 72.6887 39.6835 72.6674 39.5741C72.6142 39.2317 72.5575 38.8929 72.5008 38.5506C72.7312 38.4765 72.958 38.36 73.1387 38.2435C73.61 37.9471 74.0105 37.5482 74.3577 37.1141C75.1728 36.0836 75.5874 34.8272 75.5768 33.5107C75.5662 32.1802 75.2472 30.832 74.7476 29.6003C74.4074 28.7568 73.812 27.9839 72.8871 27.7545C71.9941 27.5356 71.1578 27.9697 70.4951 28.5521C70.3604 27.9309 70.2329 27.3062 70.1018 26.6816C71.6007 25.291 74.1912 23.3852 75.8036 25.6616C76.8348 27.1192 77.1715 29.1944 77.4691 30.9167C77.8093 32.8825 77.8944 35.0848 77.0155 36.9342L77.012 36.9377Z" fill="#15B5FC"/>
<path d="M62.7911 17.3216C62.8372 17.3569 62.8833 17.3922 62.9329 17.431C63.0392 17.4946 63.1561 17.5263 63.2837 17.5263C63.3794 17.5299 63.468 17.5087 63.5495 17.4663C63.6345 17.4381 63.7089 17.3922 63.7727 17.3252C63.8401 17.2616 63.8897 17.1875 63.9145 17.1028C63.957 17.0216 63.9783 16.9334 63.9747 16.8381C63.9676 16.7781 63.957 16.7146 63.9499 16.6546C63.918 16.5381 63.8578 16.4358 63.7727 16.3511C63.7267 16.3158 63.6806 16.2805 63.631 16.2417C63.5247 16.1781 63.4077 16.1464 63.2802 16.1464C63.1845 16.1428 63.0959 16.164 63.0144 16.2064C62.9293 16.2346 62.8549 16.2805 62.7911 16.3475C62.7238 16.4111 62.6742 16.4852 62.6494 16.5699C62.6068 16.6511 62.5856 16.7393 62.5891 16.8346C62.5962 16.8946 62.6068 16.9581 62.6139 17.0181C62.6458 17.1346 62.7061 17.2369 62.7911 17.3216Z" fill="#15B5FC"/>
<path d="M63.4254 14.269C64.1448 14.269 64.1448 13.1572 63.4254 13.1572C62.706 13.1572 62.706 14.269 63.4254 14.269Z" fill="#15B5FC"/>
<path d="M65.1476 15.2607C65.1937 15.3065 65.2504 15.3418 65.3177 15.3595C65.3319 15.3665 65.3496 15.3736 65.3638 15.3771C65.3709 15.3771 65.378 15.3842 65.3886 15.3877C65.3922 15.3877 65.3957 15.3877 65.4028 15.3912C65.4347 15.3948 65.463 15.3983 65.4949 15.4018C65.5268 15.3983 65.5552 15.3948 65.5871 15.3912C65.6012 15.3877 65.6154 15.3807 65.6296 15.3736C65.6721 15.3595 65.7076 15.3348 65.7394 15.303C65.7572 15.2818 65.7749 15.2571 65.7926 15.236C65.8068 15.2112 65.8174 15.183 65.828 15.1548C65.8316 15.1407 65.8351 15.123 65.8351 15.1089C65.8458 15.063 65.8422 15.0171 65.828 14.9713C65.828 14.9677 65.828 14.9642 65.8245 14.9607C65.8245 14.9536 65.8174 14.9466 65.8139 14.936C65.8068 14.9183 65.7997 14.9042 65.7926 14.8866C65.7749 14.823 65.743 14.7666 65.6934 14.7171C65.6473 14.6713 65.5906 14.636 65.5233 14.6183C65.3922 14.583 65.2469 14.6183 65.1512 14.7171C65.0555 14.816 65.0165 14.9571 65.052 15.0877C65.0697 15.1513 65.1016 15.2077 65.1512 15.2571L65.1476 15.2607Z" fill="#15B5FC"/>
<path d="M41.2062 23.8265C41.2311 23.8654 41.263 23.8971 41.3019 23.9218C41.3338 23.9536 41.3763 23.9783 41.4189 23.9924C41.4827 24.0277 41.5535 24.0418 41.6244 24.0383C41.6705 24.0312 41.7201 24.0242 41.7662 24.0207C41.8087 24.003 41.8512 23.9854 41.8937 23.9677C41.9292 23.9395 41.9646 23.9113 42.0036 23.883C42.0319 23.8477 42.0603 23.8124 42.0886 23.7736C42.1064 23.7313 42.1241 23.6889 42.1418 23.6466C42.1631 23.576 42.1666 23.5054 42.1524 23.4313C42.1524 23.3819 42.1418 23.3395 42.117 23.2972C42.0957 23.2301 42.0567 23.1736 42.0071 23.1242C41.993 23.1136 41.9823 23.0995 41.9681 23.0889C41.9256 23.043 41.8725 23.0078 41.8122 22.9901C41.7555 22.9583 41.6917 22.9478 41.6244 22.9478L41.4968 22.9654C41.4153 22.9866 41.3445 23.0289 41.2842 23.0889C41.27 23.0995 41.2594 23.1136 41.2452 23.1242C41.2169 23.1595 41.1885 23.1948 41.1602 23.2336C41.1425 23.276 41.1247 23.3183 41.107 23.3607C41.0858 23.4313 41.0822 23.5019 41.0964 23.576C41.0964 23.6254 41.1106 23.6677 41.1318 23.7101C41.146 23.756 41.1673 23.7948 41.2027 23.8265H41.2062Z" fill="#15B5FC"/>
<path d="M42.3402 22.5134C42.8931 22.5134 42.8966 21.6558 42.3402 21.6558C41.7839 21.6558 41.7839 22.5134 42.3402 22.5134Z" fill="#15B5FC"/>
<path d="M54.7362 9.07396C54.9028 9.07396 55.0587 8.98573 55.1437 8.84103C55.2288 8.69633 55.2288 8.5128 55.1437 8.3681L55.126 8.33987C55.126 8.33987 55.1189 8.32928 55.1189 8.32575C55.1189 8.32575 55.1189 8.32575 55.1189 8.32222C55.0906 8.27281 55.0551 8.23046 55.0055 8.1987C54.963 8.15987 54.9134 8.13517 54.8567 8.12105C54.8177 8.11046 54.7787 8.10693 54.7397 8.10693C54.7008 8.10693 54.6618 8.11399 54.6228 8.12105C54.5874 8.13517 54.5519 8.14929 54.5165 8.1634C54.4527 8.1987 54.396 8.26222 54.357 8.32222C54.357 8.32575 54.3499 8.33281 54.3499 8.33634C54.3428 8.34693 54.3393 8.35398 54.3322 8.36457C54.2472 8.50927 54.2472 8.6928 54.3322 8.8375C54.4173 8.97867 54.5732 9.07043 54.7397 9.07043L54.7362 9.07396Z" fill="#15B5FC"/>
<path d="M65.6899 3.22925C65.7182 3.25043 65.7466 3.2716 65.7749 3.29631C65.8423 3.33513 65.9131 3.35278 65.9875 3.35278C66.0442 3.35278 66.1009 3.34219 66.1506 3.31749C66.2037 3.29984 66.2498 3.2716 66.2852 3.22925C66.3277 3.19043 66.3561 3.14455 66.3738 3.09514C66.3986 3.04573 66.4128 2.98926 66.4092 2.93279C66.4057 2.89397 66.3986 2.85868 66.3951 2.81986C66.3738 2.74927 66.3384 2.68574 66.2852 2.6328C66.2569 2.61163 66.2285 2.59045 66.2002 2.56575C66.1328 2.52692 66.062 2.50928 65.9875 2.50928C65.9308 2.50928 65.8741 2.51987 65.8245 2.54457C65.7714 2.56222 65.7253 2.59045 65.6899 2.6328C65.6473 2.67162 65.619 2.71751 65.6013 2.76692C65.5765 2.81633 65.5623 2.87279 65.5658 2.92926C65.5694 2.96809 65.5765 3.00338 65.58 3.0422C65.6013 3.11279 65.6367 3.17631 65.6899 3.22925Z" fill="#15B5FC"/>
<path d="M68.4114 3.54354C68.6524 3.54354 68.6524 3.16943 68.4114 3.16943C68.1705 3.16943 68.1705 3.54354 68.4114 3.54354Z" fill="#15B5FC"/>
<path d="M36.1707 35.5045C36.1707 35.5045 36.1778 35.5045 36.1814 35.5045C36.2806 35.5292 36.3444 35.5292 36.4436 35.5045C36.4436 35.5045 36.4436 35.5045 36.4471 35.5045C36.4471 35.5045 36.4471 35.5045 36.4507 35.5045C36.5393 35.4798 36.6172 35.4339 36.6846 35.3669C36.7519 35.2998 36.7944 35.2222 36.8228 35.1339C36.8299 35.0881 36.8369 35.0387 36.8405 34.9928C36.8405 34.8975 36.8157 34.8092 36.7696 34.7245C36.7235 34.6434 36.6598 34.5834 36.5783 34.534C36.4967 34.4846 36.4046 34.4634 36.3089 34.4634C36.2133 34.4634 36.1247 34.4881 36.0396 34.534C36.0042 34.5622 35.9687 34.5904 35.9333 34.6151C35.866 34.6822 35.8234 34.7598 35.7951 34.8481C35.7703 34.9434 35.7703 35.0351 35.7951 35.1304C35.8199 35.2186 35.866 35.2963 35.9333 35.3633C36.0006 35.4304 36.0786 35.4728 36.1672 35.501L36.1707 35.5045Z" fill="#15B5FC"/>
<path d="M40.4692 36.3905C40.4054 36.1541 40.3452 35.9211 40.285 35.6847C40.3735 36.2741 40.4232 36.8776 40.4444 37.4952C40.3204 37.6576 40.1538 37.774 39.9554 37.827C39.8951 37.8411 39.8384 37.827 39.7853 37.8023C39.4522 37.9681 39.0765 38.0528 38.7151 38.134C37.7831 38.3387 36.8263 38.4234 35.8766 38.4834C31.1386 38.7763 26.4857 38.2081 21.9356 36.9164C19.6747 36.2776 17.4245 35.4835 15.3833 34.3118C14.4973 33.8 13.6433 33.2177 12.9275 32.4836C12.4668 32.0142 11.914 31.2731 11.4249 30.6449C11.4143 30.6307 11.4072 30.6166 11.3931 30.6025C11.3399 30.5354 11.2938 30.4754 11.2442 30.4119C10.6205 29.3778 9.646 28.5873 9.34479 27.3485C8.94789 25.7038 9.15343 24.0063 9.01168 22.344C8.88765 20.8934 8.18954 19.9123 6.93861 19.1923C5.82588 18.55 4.70961 17.957 3.77053 17.0606C0.602447 14.0395 0.9391 8.43854 4.6033 5.94686C6.98113 4.33044 9.82673 4.27044 12.162 5.96098C13.3882 6.85036 14.1713 8.20561 15.0643 9.39498C15.8333 10.4149 16.6519 11.4067 17.6548 12.2043C18.6612 13.0054 19.8165 13.5807 21.0638 13.9089C22.5168 14.2936 23.991 14.4983 25.3482 15.1901C26.8047 15.9312 28.0202 17.1382 28.5234 18.7158C29.0266 20.297 28.9096 21.9946 29.3313 23.5933C29.7141 25.0403 30.4972 26.3285 31.6773 27.2567C32.6979 28.0579 33.8921 28.5626 35.0403 29.1484C36.5251 29.9037 37.8185 30.8672 38.8639 32.173C39.3069 32.7307 39.6223 33.3201 39.8562 33.9377C39.6435 33.0342 39.4522 32.1236 39.2892 31.206C38.7753 30.4825 38.1694 29.8437 37.4925 29.3461C35.3167 27.7508 32.2195 27.2073 30.8977 24.638C30.0613 23.0075 30.1464 21.1405 29.7885 19.3864C29.4589 17.7841 28.6368 16.3759 27.3717 15.3277C26.266 14.4101 24.9407 13.8419 23.5622 13.4607C22.0136 13.0302 20.4756 12.8431 19.0829 11.9749C16.5066 10.3726 15.3124 7.46093 13.1685 5.42805C11.0103 3.37753 8.06905 2.92931 5.32622 4.08339C0.914294 5.93274 -0.98868 11.3926 1.12692 15.6207C1.69391 16.7571 2.56212 17.7876 3.60397 18.5182C4.98956 19.4888 7.34259 19.6511 7.99818 21.4299C8.68566 23.2969 7.71114 25.4497 8.10449 27.3732C8.41279 28.8731 9.42275 30.1331 10.6241 31.0507C10.4008 31.4919 10.298 32.0107 10.1917 32.4801C9.95785 33.4965 9.74877 34.52 9.55032 35.5435C9.37314 36.4576 9.18178 37.3646 8.99396 38.2752C7.70759 36.9835 5.80816 35.4129 3.90519 36.1823C2.3495 36.8105 1.60177 38.6669 1.09857 40.1316C0.481961 41.9351 0.0531714 43.8691 0.00355944 45.7749C-0.0495963 47.7302 0.41463 49.703 1.76124 51.1853C2.62945 52.1382 4.49344 53.2429 6.01015 53.2323C5.77981 54.5276 5.62035 55.8369 5.68059 57.1463C5.66641 57.4498 5.65578 57.7534 5.66287 58.0569C5.6735 58.6427 5.72311 59.2639 5.9003 59.8286C5.9818 61.2085 6.74016 62.465 7.63672 63.559C8.93372 65.4684 10.8828 66.866 12.9452 67.9601C15.6632 69.4035 18.6825 70.1518 21.7726 69.9753C22.8676 69.9118 24.0335 69.8094 25.1887 69.6188C25.7203 69.5518 26.2518 69.4565 26.7728 69.3294C27.3752 69.1812 27.9387 68.9694 28.4844 68.7259C29.0443 68.4965 29.5829 68.2389 30.0791 67.9177C31.0075 67.3177 31.7836 66.5448 32.4498 65.6731C33.0699 64.9319 33.6228 64.1237 34.0976 63.252C36.1742 59.4262 37.2055 55.1664 38.18 50.963C38.708 48.676 39.4522 46.449 39.9873 44.1656C40.3913 42.4327 41.1177 40.5516 41.0929 38.7234C40.8874 37.947 40.6783 37.167 40.4692 36.3905ZM6.33263 51.63C6.31137 51.7394 6.28656 51.8488 6.2653 51.9583C5.52821 51.7288 4.76985 51.6018 4.0682 51.1924C3.14683 50.6559 2.44872 49.9607 1.98804 48.9936C1.10565 47.1478 1.1907 44.942 1.53444 42.9762C1.83566 41.2539 2.16877 39.1787 3.19999 37.7211C4.81238 35.4447 7.39929 37.3505 8.90182 38.7411C8.77071 39.3657 8.64313 39.9869 8.50847 40.6116C7.84225 40.0292 7.00948 39.5951 6.11647 39.814C5.18801 40.0398 4.59621 40.8163 4.25602 41.6598C3.75635 42.895 3.43742 44.2397 3.42679 45.5702C3.41616 46.8867 3.83077 48.1431 4.64582 49.1736C4.98956 49.6077 5.39355 50.0066 5.86486 50.303C6.04559 50.416 6.26885 50.5359 6.50273 50.6101C6.44603 50.9524 6.38933 51.2912 6.33617 51.6336L6.33263 51.63ZM6.31491 48.8631C5.97117 48.4748 5.72666 48.0125 5.49632 47.5537C4.91515 46.3996 4.93995 45.0408 4.95413 43.7809C4.96476 42.7362 4.94704 41.261 5.92865 40.5904C6.75788 40.0257 7.7324 40.7739 8.33483 41.4057C8.15764 42.2315 7.98046 43.0609 7.79973 43.8868C7.41346 45.6655 7.05201 47.4549 6.72953 49.2478C6.57715 49.1383 6.43894 49.0078 6.31491 48.8666V48.8631ZM9.69207 63.5873C9.30935 63.1849 8.89119 62.7332 8.49075 62.2532C8.51202 62.1403 8.53328 62.0344 8.54745 61.9532C8.6644 61.2826 8.78843 60.6156 8.916 59.9486C9.27037 58.0992 9.66018 56.2569 10.0571 54.4182C10.6772 51.5312 11.2619 48.6231 12.038 45.7714C12.3888 44.4832 12.7219 42.828 13.7 41.8504C14.7206 40.8269 15.3443 42.3445 15.3301 43.248C15.3124 44.4409 15.0395 45.6444 14.795 46.809C14.0686 50.2748 13.1436 53.6982 12.3144 57.1428C11.7333 59.5604 11.0706 61.9567 10.5993 64.3955C10.2768 64.1484 9.96848 63.8837 9.68853 63.5873H9.69207ZM15.9574 66.9013C15.968 66.8448 15.9786 66.7883 15.9893 66.746C16.1026 66.1072 16.2302 65.4684 16.3543 64.8296C16.7086 63.0226 17.102 61.2226 17.4953 59.4227C18.1119 56.6063 18.6754 53.7617 19.4337 50.9771C19.6995 49.996 19.9653 49.0007 20.3197 48.0478C20.5784 47.3561 20.8973 46.5584 21.4324 46.022C22.1199 45.3338 22.779 45.849 22.9704 46.6502C23.222 47.716 22.8959 48.9689 22.694 50.0171C21.5529 55.9428 19.6216 61.7097 18.4734 67.6283C17.6264 67.4271 16.7901 67.1801 15.9609 66.9048L15.9574 66.9013ZM25.9577 68.0695C25.5998 68.1224 25.2419 68.1471 24.884 68.1754C24.8981 68.1154 24.9123 68.0589 24.9265 67.9989C25.0718 67.4024 25.2277 66.8095 25.3836 66.2131C25.8337 64.4908 26.3156 62.7755 26.8011 61.0638C27.641 58.0957 28.4454 55.1099 29.3809 52.17C29.9019 50.5289 30.3909 48.796 31.2627 47.3066C31.6099 46.7137 32.4285 45.5491 33.1266 46.3643C33.4243 46.7102 33.4739 47.2325 33.4704 47.6702C33.4704 48.1819 33.3605 48.7007 33.2578 49.1983C31.982 55.417 29.2959 61.2791 27.8288 67.4413C27.8075 67.5295 27.8571 67.586 27.9209 67.6071C27.276 67.8189 26.6133 67.9671 25.9613 68.0624L25.9577 68.0695ZM39.6967 40.7033C38.5804 40.8904 37.4819 41.2116 36.3514 41.3563C35.0544 41.5221 33.7468 41.5927 32.4427 41.6033C29.8877 41.6245 27.2866 41.5539 24.7564 41.2116C22.1411 40.8551 19.494 40.2551 17.0772 39.1787C16.0495 38.7199 15.0608 38.1658 14.1288 37.534C13.1259 36.8529 12.3818 35.9917 11.4923 35.1906C11.3293 35.0459 11.067 35.2329 11.184 35.427C11.751 36.3729 12.8176 37.0682 13.7071 37.6858C14.7135 38.3846 15.7873 38.9669 16.9035 39.4716C19.2707 40.5516 21.762 41.321 24.3382 41.6951C26.9535 42.0762 29.6396 42.1609 32.2832 42.1468C33.6688 42.1398 35.0509 42.0727 36.4258 41.8927C37.4429 41.7586 38.5804 41.5927 39.5798 41.2292C39.3388 42.3268 39.1013 43.4244 38.8533 44.5185C38.3324 46.802 37.6626 49.0466 37.1346 51.3265C37.0602 51.6477 36.9822 51.9688 36.9078 52.29C36.44 53.5394 36.1849 54.8629 35.7277 56.1193C35.1678 57.6581 34.6079 59.2004 34.0303 60.7285C33.1479 63.072 31.7056 65.5707 29.5121 66.933C29.0585 67.1836 28.5765 67.3918 28.0839 67.5613C28.0946 67.5471 28.1087 67.5436 28.1158 67.526C29.4731 63.912 30.848 60.2909 32.0033 56.6028C32.5738 54.7852 33.1266 52.9641 33.5483 51.1042C33.8141 49.943 34.1508 48.6725 34.0657 47.469C34.0161 46.7737 33.7468 45.8985 33.0274 45.6232C32.1769 45.295 31.4328 46.0537 30.9898 46.6784C29.9196 48.1819 29.4235 50.1054 28.8494 51.8418C27.7792 55.0746 26.709 58.3039 25.7309 61.565C25.2525 63.1602 24.7777 64.7555 24.3382 66.3648C24.1929 66.8942 24.0547 67.4271 23.9413 67.9671C23.9272 68.0412 23.913 68.133 23.8988 68.2248C22.1978 68.2636 20.5039 68.0695 18.8419 67.7024C19.8696 64.4272 20.8619 61.1344 21.6982 57.8063C22.5097 54.577 23.4559 51.2171 23.5976 47.8713C23.6401 46.8302 23.3247 44.8326 21.8506 45.1326C20.8654 45.3338 20.3232 46.5126 19.9688 47.3314C19.5011 48.4148 19.2105 49.5619 18.8774 50.6912C17.9737 53.7511 17.2012 56.8498 16.4677 59.9521C16.0708 61.6356 15.6809 63.319 15.3266 65.0096C15.2274 65.4896 15.121 66.0507 15.0466 66.5801C14.7879 66.4848 14.5257 66.3966 14.2705 66.2942C13.1153 65.846 11.9494 65.3343 10.9253 64.6214C11.9175 61.3638 12.8991 58.0957 13.7284 54.7923C14.5789 51.3971 15.4648 47.949 15.8085 44.4585C15.9148 43.3856 16.053 41.7198 14.958 41.081C12.9984 39.9304 11.8856 44.0809 11.5632 45.2067C10.6489 48.4043 9.81256 51.6194 9.06129 54.8593C8.65376 56.6169 8.25687 58.378 7.89541 60.1462C7.82808 60.4744 7.76075 60.8344 7.69696 61.1979C7.66861 61.1556 7.64026 61.1132 7.61191 61.0709C7.21856 60.1815 6.97404 59.211 6.8571 58.258C6.8323 57.9263 6.82166 57.591 6.83938 57.2522C6.90671 55.7311 7.11225 54.2064 7.32133 52.6994C7.37448 52.3112 7.43827 51.9265 7.49851 51.5383C7.75012 50.4477 8.0726 49.2866 8.06551 48.1713C8.36672 46.5584 8.69629 44.9491 9.03294 43.3433C9.56804 40.8092 10.0996 38.2752 10.578 35.727C10.8048 34.5165 11.0848 33.3059 11.2832 32.0848C11.6269 32.6001 12.0876 33.0695 12.4633 33.4224C13.4555 34.3541 14.6391 35.0741 15.851 35.6812C18.2218 36.8635 20.7839 37.6681 23.3531 38.2999C25.9683 38.9422 28.6155 39.4116 31.3123 39.4893C33.6653 39.5563 36.0538 39.5881 38.3855 39.1999C38.9348 39.1081 39.6187 39.0093 40.1538 38.7269C40.0014 39.3834 39.8455 40.0434 39.7002 40.7033H39.6967Z" fill="#15B5FC"/>
<path d="M9.90821 18.4549C9.8834 18.3631 9.83379 18.2819 9.76646 18.2149C9.69913 18.1478 9.61762 18.1019 9.52548 18.0737C9.4298 18.049 9.33058 18.049 9.2349 18.0737C9.14276 18.0984 9.06126 18.1478 8.99393 18.2149L8.90533 18.2925C8.83092 18.3702 8.77776 18.4584 8.74941 18.5607C8.72106 18.6702 8.72106 18.776 8.74941 18.8854C8.80611 19.0901 8.97267 19.256 9.1782 19.3125C9.38728 19.369 9.61762 19.3125 9.77354 19.1572C9.84796 19.0796 9.90112 18.9913 9.92947 18.889C9.95782 18.7796 9.95782 18.6737 9.92947 18.5643L9.90821 18.4549Z" fill="#15B5FC"/>
<path d="M11.2903 17.4911C11.2903 17.4911 11.308 17.5158 11.3116 17.5299C11.308 17.5228 11.3045 17.5122 11.3009 17.5052C11.308 17.5263 11.3151 17.544 11.3257 17.5616C11.3257 17.5616 11.3257 17.5652 11.3257 17.5687C11.3293 17.5863 11.3364 17.6005 11.3399 17.6181C11.347 17.6322 11.3541 17.6463 11.3576 17.664C11.3683 17.6781 11.3789 17.6887 11.386 17.7028C11.4001 17.7134 11.4108 17.724 11.425 17.731C11.4462 17.7452 11.471 17.7522 11.4958 17.7522C11.5135 17.7557 11.5277 17.7557 11.5454 17.7522C11.5632 17.7522 11.5773 17.7487 11.5915 17.7381C11.6057 17.7346 11.6199 17.724 11.634 17.7134C11.6553 17.6993 11.6695 17.6816 11.6836 17.6605C11.7014 17.6252 11.7191 17.5863 11.7262 17.5475C11.7333 17.5193 11.7368 17.4875 11.7368 17.4593C11.7368 17.4522 11.7368 17.4487 11.7368 17.4416V17.4346C11.7368 17.4134 11.7297 17.3958 11.7297 17.3746C11.7297 17.3746 11.7297 17.3675 11.7297 17.364C11.7155 17.3252 11.6978 17.2828 11.673 17.2475C11.6482 17.2122 11.6199 17.1734 11.5844 17.1452C11.5632 17.124 11.5383 17.1064 11.51 17.0993C11.4816 17.0852 11.4533 17.0781 11.4214 17.0781C11.3895 17.0781 11.3612 17.0852 11.3328 17.0993C11.3045 17.1099 11.2797 17.124 11.2584 17.1452C11.2194 17.1875 11.1875 17.244 11.1911 17.3075C11.1911 17.3675 11.2123 17.4275 11.2584 17.4699C11.2655 17.4769 11.2726 17.484 11.2797 17.4946L11.2903 17.4911ZM11.3009 17.5016L11.2903 17.4769C11.2903 17.4769 11.2974 17.4946 11.3009 17.5016Z" fill="#15B5FC"/>
<path d="M11.9458 20.4806C11.9458 20.4806 11.96 20.4947 11.9671 20.5053C12.0061 20.5476 12.0557 20.5794 12.1088 20.597C12.162 20.6253 12.2187 20.6359 12.2789 20.6359C12.3179 20.6323 12.3569 20.6253 12.3959 20.6217C12.4703 20.6006 12.5376 20.5617 12.5908 20.5088C12.5979 20.5017 12.6049 20.4947 12.612 20.4841L12.6864 20.3888C12.7042 20.35 12.7183 20.3147 12.7361 20.2759C12.7573 20.2123 12.7573 20.1488 12.7431 20.0853C12.7431 20.0429 12.7325 20.0041 12.7113 19.9653C12.7006 19.9265 12.6794 19.8912 12.651 19.8594C12.6298 19.8241 12.6014 19.7959 12.566 19.7747C12.5376 19.7465 12.5022 19.7253 12.4597 19.7147C12.403 19.6865 12.3427 19.6724 12.2754 19.6724C12.2329 19.6794 12.1903 19.683 12.1478 19.69C12.1088 19.7077 12.0734 19.7218 12.0344 19.7394C12.0025 19.7641 11.9706 19.7888 11.9387 19.8135C11.9139 19.8453 11.8891 19.8771 11.8643 19.9088C11.8466 19.9476 11.8324 19.9829 11.8147 20.0218C11.7934 20.0853 11.7934 20.1488 11.8076 20.2123C11.8076 20.2547 11.8182 20.2935 11.8395 20.3323C11.8572 20.3923 11.8927 20.4417 11.9387 20.4841L11.9458 20.4806Z" fill="#15B5FC"/>
<path d="M5.9535 9.80086C5.91452 9.7691 5.87554 9.74087 5.83656 9.7091C5.74442 9.65616 5.6452 9.63146 5.54243 9.62793C5.46093 9.62793 5.38651 9.64205 5.31564 9.67734C5.24476 9.70204 5.18097 9.74087 5.12782 9.79734C5.07112 9.85027 5.03214 9.9138 5.00733 9.98439C4.9719 10.055 4.95418 10.1291 4.95772 10.2103L4.97898 10.3656C5.00733 10.4644 5.05694 10.5491 5.12782 10.6232C5.1668 10.655 5.20578 10.6832 5.24476 10.715C5.3369 10.7679 5.43612 10.7926 5.53889 10.7961C5.62039 10.7961 5.69481 10.782 5.76569 10.7467C5.83656 10.722 5.90035 10.6832 5.9535 10.6267C6.0102 10.5738 6.04918 10.5103 6.07399 10.4397C6.10943 10.3691 6.12715 10.295 6.1236 10.2138C6.11652 10.1609 6.10943 10.1114 6.10234 10.0585C6.07399 9.95968 6.02438 9.87498 5.9535 9.80086Z" fill="#15B5FC"/>
<path d="M25.1993 18.0134C25.7451 18.0134 25.7451 17.1699 25.1993 17.1699C24.6536 17.1699 24.6536 18.0134 25.1993 18.0134Z" fill="#15B5FC"/>
<path d="M26.7196 19.4643C27.3079 19.4643 27.3079 18.5537 26.7196 18.5537C26.1314 18.5537 26.1314 19.4643 26.7196 19.4643Z" fill="#15B5FC"/>
<path d="M35.5506 33.1932C36.1565 33.1932 36.1565 32.2544 35.5506 32.2544C34.9446 32.2544 34.9446 33.1932 35.5506 33.1932Z" fill="#15B5FC"/>
<path d="M18.647 34.5764C19.3309 34.5764 19.3309 33.5176 18.647 33.5176C17.963 33.5176 17.963 34.5764 18.647 34.5764Z" fill="#15B5FC"/>
<path d="M37.372 13.4292C37.4252 12.2327 37.2657 11.0751 37.1204 9.88928C37.0495 9.31401 36.9539 8.73873 36.8794 8.16346C36.8015 7.55642 36.805 6.95291 36.6775 6.35646C36.6137 6.06 36.2239 6.12353 36.1317 6.35646C35.9049 6.93526 35.9085 7.54936 35.912 8.16346C35.9156 8.74226 35.9652 9.32812 36.0502 9.89987C36.2239 11.0751 36.4684 12.2468 36.5782 13.4292C36.6243 13.9303 37.3472 13.9444 37.372 13.4292Z" fill="#15B5FC"/>
<path d="M43.2652 10.3231C43.3644 9.9031 43.4636 9.47959 43.5806 9.06666C43.6373 8.86549 43.6904 8.66432 43.7507 8.46668C43.7861 8.34668 43.8215 8.23728 43.8357 8.11375C43.8463 8.03964 43.8641 7.92317 43.8818 7.82435C43.903 7.70435 43.8676 7.58436 43.7578 7.52083C43.6621 7.46436 43.5097 7.47142 43.4317 7.56318C43.2829 7.73965 43.1376 7.90905 43.0455 8.12081C42.9498 8.34316 42.8576 8.56903 42.7903 8.79843C42.6663 9.22901 42.5635 9.66311 42.4608 10.1007C42.4111 10.3125 42.5281 10.5596 42.7513 10.6125C42.964 10.6619 43.212 10.549 43.2652 10.3231Z" fill="#15B5FC"/>
<path d="M32.588 12.1229C32.184 11.6782 31.8013 11.2194 31.4221 10.7536C31.2414 10.5277 31.0429 10.3124 30.8374 10.1077C30.7346 10.0053 30.6354 9.8924 30.5256 9.79711C30.4051 9.69476 30.2598 9.62065 30.1216 9.53948C29.8593 9.38419 29.5475 9.64182 29.6184 9.92417C29.6574 10.0795 29.6857 10.2418 29.7601 10.383C29.8239 10.5065 29.9019 10.623 29.9763 10.7394C30.157 11.0218 30.3661 11.2971 30.5893 11.5476C30.9933 11.9994 31.4257 12.4264 31.8651 12.8429C32.06 13.0264 32.3966 13.0476 32.588 12.8429C32.7829 12.6311 32.7794 12.3347 32.588 12.1229Z" fill="#15B5FC"/>
</g>
<defs>
<clipPath id="clip0_2690_2131">
<rect width="79" height="70" fill="white"/>
</clipPath>
</defs>
</svg>
