<svg width="76" height="82" viewBox="0 0 76 82" fill="none" xmlns="http://www.w3.org/2000/svg">
<g clip-path="url(#clip0_2690_2036)">
<path d="M52.7058 21.7655C53.9454 22.4599 55.0951 23.0504 56.1839 23.7251C57.2483 24.3812 58.1035 25.2899 58.9189 26.2394C60.9752 28.6385 63.2577 30.8601 64.8324 33.6602C65.7008 35.2031 66.2613 36.8439 66.8996 38.4756C67.9097 41.0488 68.3 43.7023 68.6692 46.3991C69.2041 50.3248 68.6995 54.0806 67.0124 57.644C66.2135 59.3338 65.0845 60.8502 63.7835 62.1564C60.6934 65.2802 57.4422 68.199 53.2564 69.8768C51.5499 70.5591 49.9797 71.6079 48.2321 72.2235C44.0974 73.6856 39.8018 74.088 35.4476 73.881C27.8634 73.5177 21.7959 69.9559 16.8061 64.4186C14.626 61.9995 13.8452 58.8429 13.3091 55.6913C12.5907 51.4963 12.4497 47.2539 12.443 43.0099C12.4415 41.5799 12.8738 40.2334 13.395 38.9099C13.8639 37.6946 13.8011 37.6174 12.5402 37.3803C11.4329 37.1709 10.3358 36.9129 9.35791 36.2987C7.47259 35.1178 6.60432 33.368 7.02358 31.6211C7.44808 29.8633 9.41577 28.3527 11.444 28.2605C13.3217 28.1755 14.9672 28.8728 16.4376 29.9728C17.5717 30.8297 17.586 30.8967 18.5755 29.8336C19.3847 28.9769 20.2375 28.1681 20.9732 27.229C22.1692 25.6983 23.919 24.8301 25.5464 23.8423C25.6424 23.782 25.7496 23.7538 25.8484 23.7015C27.2715 22.9287 27.2922 22.8586 26.0797 21.75C24.7232 20.5115 23.668 19.0784 22.9347 17.3807C21.6537 14.4157 23.7305 10.4201 26.8629 9.85461C27.6755 9.7075 28.43 9.85947 29.1729 10.1594C32.1576 11.3456 34.0477 14.2251 33.9884 17.4755C33.9772 18.0911 33.8476 18.7029 34.0193 19.327C34.2052 20.0182 34.5684 20.261 35.2565 20.0402C36.2203 19.7326 37.1782 19.3821 38.165 19.1926C40.3798 18.7567 42.601 18.6245 44.8546 19.1557C46.3158 19.5033 46.2739 19.3828 46.9351 18.0737C47.901 16.1911 49.3168 14.827 51.5138 14.4693C53.3299 14.1808 55.1745 16.2035 54.7053 18.0397C54.536 18.6922 54.3048 19.3482 53.9869 19.9354C53.6689 20.5226 53.2183 21.0389 52.7083 21.7467L52.7058 21.7655ZM47.7375 70.254C51.6408 68.7732 55.3761 66.9639 58.6579 64.3404C60.678 62.7216 62.711 61.0623 64.1654 58.9021C66.2056 55.8638 67.0151 52.4161 66.7198 48.74C66.482 45.7998 65.968 42.9194 65.1667 40.0667C64.1966 36.5979 62.421 33.6336 60.0819 30.9638C59.2968 30.0757 58.4957 29.1932 57.7665 28.2588C56.7151 26.9144 55.4968 25.7629 54.013 24.8835C52.735 24.1305 51.3162 23.7233 50.0284 23.0457C47.6042 21.764 45.0008 21.4171 42.3792 21.1215C39.7576 20.826 37.2703 21.6173 34.7932 22.3601C32.4795 23.0553 30.3211 24.1463 28.2061 25.2583C26.0456 26.395 23.7729 27.3638 22.1887 29.4611C21.1069 30.8802 19.9145 32.2657 18.6641 33.5364C16.8379 35.4028 15.9366 37.7308 15.1243 40.082C14.517 41.8312 14.4194 43.7273 14.4723 45.6162C14.56 49.2384 14.825 52.853 15.5434 56.4002C16.2479 59.9072 17.5878 63.0677 20.4743 65.4485C22.2286 66.8998 24.0744 68.1484 26.0212 69.299C28.3092 70.655 30.7873 71.5222 33.32 71.7946C38.2076 72.3203 43.0912 72.0826 47.7507 70.2404L47.7375 70.254ZM31.4984 15.4339C31.3475 15.1804 31.362 14.3927 30.8776 14.3449C30.003 14.2616 29.8285 13.6294 29.4617 13.091C28.8592 12.1845 27.8061 11.7944 26.8287 12.0886C25.1656 12.5849 24.0443 15.1603 24.6641 16.8164C25.3836 18.7079 26.8368 19.9398 28.2373 21.253C28.7322 21.72 29.1074 22.2825 29.9346 21.7884C30.6283 21.3767 31.6332 21.3428 31.4298 20.1089C31.3776 19.8031 31.5939 19.4672 31.6597 19.1384C31.8926 17.969 31.9963 16.7905 31.5012 15.4419L31.4984 15.4339ZM10.8873 30.4149C8.54847 31.0378 8.66563 33.3452 9.7055 34.1898C10.8919 35.1455 12.3702 35.3611 13.8489 35.3966C14.9756 35.4284 15.1878 34.3292 15.8202 33.7408C16.3437 33.2532 16.3659 32.8766 15.8819 32.2079C14.7689 30.66 12.7402 29.8437 10.8873 30.4149ZM48.3838 19.3702C49.0282 19.7493 49.5996 20.0998 50.1812 20.4017C50.476 20.5513 50.8135 20.6681 51.1027 20.3608C51.6569 19.7545 52.3905 19.302 52.6459 18.4307C52.8057 17.8804 52.9767 17.3622 52.5083 16.868C52.0535 16.3871 51.5272 16.4259 50.9651 16.621C49.6483 17.078 49.0574 18.2008 48.3838 19.3702Z" fill="#15B5FC"/>
<path d="M19.2832 54.5273C18.3426 50.8323 16.9043 47.1032 17.0733 43.158C17.2038 40.0089 18.0539 37.0149 19.926 34.2959C22.4794 30.5847 26.1879 28.5688 29.9945 26.6537C33.8653 24.7164 38.0318 23.864 42.3818 23.9555C43.2341 23.9746 44.0735 24.0341 44.8879 24.2552C48.2103 25.1442 51.5559 25.9442 54.3147 28.2164C57.5327 30.878 59.8704 34.088 61.0042 38.1838C61.64 40.4821 62.2004 42.7706 62.3992 45.1577C62.5689 47.15 62.4427 49.119 62.0582 51.0698C61.6432 53.1661 60.5312 54.9645 59.2938 56.6355C57.5885 58.9278 55.927 61.2948 53.5229 62.9479C49.6583 65.6028 45.5471 67.4437 40.7031 67.4067C36.835 67.3818 33.0456 66.9878 29.4191 65.6375C25.3174 64.1103 21.9943 61.6382 20.4699 57.2462C20.1549 56.3389 19.7035 55.479 19.2804 54.5193L19.2832 54.5273ZM46.2028 61.1164C46.2028 61.1164 46.1627 61.1304 46.1386 61.1387C45.8599 60.3358 45.5651 59.5385 45.3025 58.73C45.1541 58.2507 45.2347 57.8089 45.7454 57.5956C46.2269 57.4015 46.6564 57.5763 46.9249 57.9869C47.1386 58.3176 47.2696 58.6949 47.4006 59.0723C47.8022 60.2554 48.3267 61.3778 48.8995 62.4835C49.2299 63.1245 49.4584 63.3421 50.1605 62.9545C50.9988 62.4926 51.8015 61.98 52.5823 61.4301C55.0366 59.7146 56.673 57.2753 58.3963 54.9049C61.2639 50.9586 60.8095 46.5911 59.9381 42.1884C59.7175 41.0864 59.4994 41.0541 58.3614 41.4042C57.6625 41.6198 56.9887 41.9076 56.2954 42.1393C55.7735 42.3204 55.2542 42.2757 54.968 41.7363C54.6819 41.1969 55.0071 40.7601 55.3598 40.3768C55.6728 40.0343 56.1091 39.8918 56.5319 39.7361C57.1152 39.5246 57.6986 39.3131 58.2767 39.1125C58.8869 38.9007 59.032 38.4634 58.786 37.9101C58.435 37.1323 58.0708 36.368 57.6664 35.6177C55.557 31.7437 52.6475 28.8041 48.3044 27.5406C47.7056 27.3706 47.1096 27.2086 46.5342 26.9765C41.8583 25.0909 37.3381 26.246 32.8589 27.6747C31.6916 28.0439 31.6684 28.3399 32.0735 29.5847C32.1654 29.8497 32.2602 30.1227 32.2743 30.3967C32.2967 30.9017 32.0406 31.2785 31.5613 31.4269C31.1462 31.5529 30.7841 31.3908 30.5375 31.0175C30.3486 30.7322 30.1837 30.4386 29.9947 30.1533C29.3019 29.1163 29.1989 29.0531 28.1242 29.741C26.8494 30.5523 25.6405 31.4757 24.3769 32.3192C21.9352 33.9674 20.4748 36.2916 19.5655 39.0632C18.835 41.287 19.9036 43.5881 19.216 45.806C19.7107 48.6571 20.3797 51.4657 21.3514 54.1873C21.8081 55.4772 22.0537 55.5629 23.3695 55.0252C23.9445 54.7896 24.4892 54.4926 25.0753 54.2892C25.5892 54.1108 26.1249 54.1768 26.387 54.7246C26.6794 55.3338 26.425 55.8449 25.8615 56.1395C25.314 56.4285 24.7335 56.648 24.1749 56.9048C22.9561 57.4628 22.8393 57.8002 23.5527 58.9741C25.1411 61.5805 27.5885 63.0072 30.3821 63.9538C33.9532 65.1703 37.6242 65.5605 41.3678 65.5116C42.7813 65.4888 44.1744 65.3291 45.5494 65.0138C46.9833 64.687 47.2304 64.2324 46.8103 62.8668C46.631 62.2723 46.4007 61.6865 46.1972 61.1004L46.2028 61.1164Z" fill="#15B5FC"/>
<path d="M36.0137 36.3225C36.9308 38.1094 37.4094 40.0844 38.5377 41.78C38.7842 42.1533 39.0335 42.5345 39.2374 42.9406C40.0722 44.5941 41.4205 45.1607 43.0728 44.4522C44.1931 43.9734 45.4483 43.7536 46.4744 42.8217C45.9032 42.4982 44.9168 42.7146 44.975 41.7678C45.0328 40.7941 45.8681 40.7381 46.5979 40.6377C48.0496 40.4397 49.5064 40.4378 50.9677 40.5784C52.4369 40.7161 52.6694 41.2562 51.9646 42.5175C51.2413 43.8031 50.4444 45.0064 49.382 46.0409C49.1802 46.2369 48.9919 46.4462 48.7709 46.6128C48.3686 46.9054 47.9362 46.9296 47.5238 46.6229C47.0763 46.2924 47.1435 45.8642 47.2883 45.4001C47.3891 45.0682 47.8505 44.998 47.7926 44.4424C45.8055 45.2491 43.8996 46.1085 42.0548 47.1177C41.7451 47.2882 41.5839 47.731 41.3296 48.0351C40.5056 49.0049 39.2459 49.2892 38.3091 48.7417C37.2694 48.1309 36.9155 47.1112 37.4587 45.8251C37.7041 45.2361 37.6231 44.7694 37.4468 44.2098C36.8199 42.1963 35.4556 40.5467 34.7812 38.6036C34.4186 38.6215 34.3545 38.8776 34.2113 39.0353C33.8771 39.3942 33.4599 39.566 33.0007 39.3835C32.5119 39.1934 32.3959 38.7298 32.4116 38.2565C32.4754 36.678 32.4828 35.092 32.6569 33.5202C32.7991 32.1933 33.7592 31.7971 34.9758 32.3734C36.4412 33.0703 37.4987 34.2507 38.5614 35.4202C39.0409 35.9465 38.9502 36.4368 38.4397 36.8839C37.8918 37.353 37.3803 37.5125 36.9062 36.7684C36.7636 36.539 36.5382 36.3564 36.3502 36.1517C36.2354 36.2096 36.1125 36.2702 35.9976 36.3281L36.0137 36.3225Z" fill="#15B5FC"/>
</g>
<defs>
<clipPath id="clip0_2690_2036">
<rect width="56.7486" height="65.9701" fill="white" transform="translate(0.119751 19.0928) rotate(-19.1418)"/>
</clipPath>
</defs>
</svg>
