<svg width="104" height="106" viewBox="0 0 104 106" fill="none" xmlns="http://www.w3.org/2000/svg">
<g clip-path="url(#clip0_2690_2046)">
<path d="M66.2485 49.539C64.9887 51.6672 63.7303 53.5818 62.6988 55.6069C61.9103 57.1434 62.0821 58.9078 62.2088 60.5866C62.3443 62.4021 62.8949 64.1267 63.4911 65.8484C64.2382 68.018 65.0031 70.1803 65.6637 72.3798C66.3661 74.7078 67.729 76.3983 70.2596 77.0373C72.6442 77.6369 74.9642 78.5121 77.41 78.8789C77.9459 78.9572 78.1705 79.3179 78.3079 79.7453C78.5735 80.5518 78.8328 81.3557 79.035 82.1724C79.2958 83.2354 79.6752 84.2451 80.085 85.2528C80.5501 86.4094 80.2817 86.8355 79.103 87.1953C74.7961 88.5258 70.379 89.5217 66.1541 91.1306C64.4301 91.7849 62.5699 92.0788 60.7687 92.5307C58.9282 92.9881 57.1006 93.5026 55.2463 93.8877C53.5812 94.2271 52.0091 94.8715 50.3513 95.2287C49.8397 95.338 49.3183 95.4357 48.8038 95.4994C48.3134 95.5585 47.953 95.3622 47.7598 94.8743C47.2709 93.6338 46.75 92.4167 46.2701 91.1725C46.0097 90.4938 45.7503 89.8303 45.3356 89.2195C44.6333 88.1696 44.7674 87.6942 45.8716 87.1257C46.1193 86.9938 46.4093 86.9019 46.6075 86.7121C48.2258 85.2227 50.2176 84.179 51.6676 82.493C53.0155 80.9264 54.0961 79.188 54.9426 77.3213C55.2842 76.5641 55.407 75.6776 55.3227 74.8441C55.077 72.3616 54.8393 69.8602 53.7508 67.554C53.0541 66.0707 52.1738 64.6724 51.4922 63.188C50.9917 62.0977 50.3693 61.1037 49.4125 60.412C48.0115 59.4073 46.6634 58.2771 44.8809 57.9315C44.0129 57.7649 43.1586 57.4784 42.3141 57.2034C41.6721 56.9917 41.2483 57.138 40.8923 57.7192C40.3105 58.678 39.6723 59.6131 39.0394 60.5355C38.3142 61.589 37.4006 62.5113 36.5695 63.4832C36.3085 63.7868 36.0411 64.0878 35.7801 64.3914C35.3574 64.8854 34.8619 65.2896 34.2835 65.5923C33.5955 65.9448 32.9886 65.9474 32.7316 65.5582C32.3899 65.0373 32.5652 64.5867 32.9389 64.1385C33.4511 63.5198 33.8663 62.8157 34.4208 62.2369C35.7207 60.8718 36.6054 59.265 37.3877 57.5855C37.4707 57.4062 37.5438 57.2154 37.6205 57.0335C38.1988 55.4526 37.8987 54.868 36.2715 54.3293C34.7625 53.8258 33.2074 53.6943 31.6325 53.5397C29.4503 53.3359 27.2771 53.6012 25.1036 53.3419C22.2843 53.0022 19.6883 52.0106 17.2333 50.6499C16.0183 49.9748 15.0766 48.9496 14.3351 47.765C14.0059 47.2494 13.7774 46.6876 13.7257 46.0747C13.5328 43.607 13.8916 41.3203 15.3561 39.1971C16.7426 37.1888 18.3092 35.419 20.298 33.9972C20.6683 33.7323 21.0508 33.5612 21.4646 33.4033C22.5697 32.9903 23.7351 32.8022 24.882 32.658C26.2316 32.4885 27.5134 32.9701 28.7447 33.5191C29.6587 33.9268 30.5876 34.2817 31.6679 34.5232C31.6076 33.3526 31.5033 32.3038 30.9997 31.3083C30.2149 29.736 30.3478 29.0533 31.6419 27.9295C32.6443 27.0594 33.673 26.267 34.9456 25.7547C36.1673 25.2579 37.3146 24.5524 38.4413 23.8604C40.1435 22.8201 41.9699 22.0982 43.8861 21.584C47.3168 20.667 50.7557 19.7831 54.294 19.3991C56.6326 19.1444 58.9584 19.1651 61.2777 19.7445C63.0482 20.1885 64.3139 21.1287 64.985 22.8303C65.0549 23.0149 65.1185 23.1969 65.2283 23.4796C66.0201 22.5134 66.8996 21.7244 67.7755 20.9266C69.4499 19.4092 71.2642 18.5935 73.5804 18.7948C75.5254 18.9651 77.4392 19.1222 79.1922 20.0981C80.7112 20.9458 81.9493 22.0739 82.8934 23.5138C83.8618 25.001 84.7893 26.5152 85.4754 28.164C85.9666 29.3464 85.8387 30.4377 85.2559 31.5216C84.03 33.7972 82.3339 35.5936 80.0775 36.9321C78.6815 37.7543 77.2645 38.4864 75.7726 39.0983C74.3877 39.6666 73.1166 40.4381 71.8699 41.2568C71.0507 41.7978 70.4506 42.5198 69.8669 43.308C69.3728 43.9713 68.8662 44.6294 68.347 45.2822C68.0648 45.6359 67.9949 45.9242 68.3209 46.3424C68.7937 46.9556 69.2572 47.5205 69.9371 47.9403C71.1409 48.6771 72.2818 49.5278 73.4581 50.3121C74.1624 50.7792 74.8181 51.3439 75.6887 51.5043C75.84 51.5311 75.9961 51.6339 76.0977 51.7433C76.6339 52.3462 77.1611 52.9528 77.6831 53.572C77.9404 53.8726 78.0237 54.2181 77.8148 54.5732C77.6032 54.9346 77.2614 55.0269 76.8738 54.9299C75.7765 54.659 74.6199 54.511 73.5939 54.0708C71.0026 52.9629 68.3145 51.962 66.2448 49.53L66.2485 49.539ZM69.4631 50.2375C68.5547 48.783 67.8842 48.1308 67.1387 47.9715C67.7729 49.1477 68.3319 49.679 69.4915 50.2051C70.4644 51.0514 71.6406 51.5032 72.8177 51.9703C72.1374 51.1661 71.23 50.6725 70.3537 50.1403C70.0424 49.9499 69.7363 50.0277 69.4568 50.2348L69.4631 50.2375ZM80.7066 30.7994C78.0971 33.7104 75.0019 36.0913 71.9652 38.5265C71.3157 39.0504 70.6367 39.5915 70.2641 40.3873C70.6796 40.208 71.0294 39.9566 71.4063 39.7462C72.5317 39.1275 73.5614 38.3502 74.8069 37.9373C78.4415 36.7296 81.632 34.9282 83.6782 31.5136C84.2511 30.5584 84.3972 29.704 83.974 28.6758C83.5108 27.5495 82.8009 26.5704 82.2085 25.5226C79.9827 21.5694 76.4568 20.2076 72.1317 20.4075C71.1738 20.454 70.3336 20.7645 69.6071 21.4185C69.0708 21.9015 68.4653 22.3037 67.8994 22.752C67.3424 23.1968 66.8761 23.7241 66.549 24.517C67.2154 24.4435 67.5224 24.0484 67.873 23.7604C69.2173 22.6578 70.7426 21.9492 72.4923 21.882C75.0847 21.7787 77.5417 22.3645 79.8016 23.6798C81.6338 24.7482 82.4038 27.319 81.3971 29.1625C81.13 29.6556 80.9606 30.1973 80.7562 30.7169C80.7456 30.742 80.7225 30.7618 80.7056 30.7843L80.7066 30.7994ZM70.8649 80.8389C71.935 80.4037 73.126 80.4702 74.4156 80.1277C73.7734 79.7238 73.2491 79.6356 72.7549 79.4936C70.7245 78.9474 68.6952 78.4165 66.9159 77.2226C66.6162 77.0223 66.3157 76.999 66.0339 77.2643C65.048 78.2004 63.7207 78.5271 62.6029 79.2155C60.5347 80.4929 58.4036 80.4658 56.2173 79.6765C55.6082 79.4565 55.3054 79.4913 54.9781 80.092C54.1741 81.5777 53.1879 82.9348 52.0356 84.1775C51.3827 84.8847 50.7684 85.623 49.97 86.5347C51.8358 86.2801 53.2786 85.5219 54.8762 85.2724C56.1328 85.0784 57.3966 84.7619 58.6124 84.3143C60.1171 83.7596 61.6634 83.2815 63.2001 82.8437C64.8563 82.3677 66.4787 81.7443 68.2077 81.4985C69.1178 81.3726 70 81.0503 70.8881 80.8191L70.8586 80.8362L70.8649 80.8389ZM64.7401 28.63C64.4951 27.6697 64.2732 26.6895 63.9915 25.7284C63.8084 25.1118 63.5693 25.048 63.0526 25.5023C62.3367 26.1312 61.5218 26.5041 60.6153 26.7792C59.1875 27.2039 57.7835 27.7124 56.4656 28.4198C54.8847 29.2601 53.1727 29.6757 51.3918 29.9218C49.0786 30.2389 46.7795 30.6802 44.4702 31.058C41.759 31.4954 39.0646 32.0506 36.2989 32.0217C35.4532 32.0122 34.5994 31.9697 33.7528 31.9451C33.2423 31.9292 33.0041 32.1612 33.0803 32.681C33.1537 33.1552 33.2002 33.6403 33.295 34.1161C33.7552 36.2828 34.5598 38.3511 35.0718 40.5175C35.9237 44.1201 37.0843 47.6388 38.269 51.1529C38.7363 52.5321 39.2544 53.8958 40.8582 54.4024C41.0417 54.4576 41.2569 54.578 41.3615 54.7329C41.981 55.6813 42.9814 55.8669 43.9649 56.0749C46.5879 56.6347 48.9263 57.7467 50.9449 59.5291C51.6178 60.1232 52.1714 60.8074 52.6272 61.5834C53.5019 63.0827 54.3026 64.6173 55.0088 66.2007C56.3695 69.2275 56.9231 72.4163 56.8248 75.7142C56.8092 76.2765 56.7105 76.8259 56.4919 77.3616C56.1744 78.1143 56.207 78.1945 56.9791 78.4833C58.733 79.1419 61.1736 79.0484 62.7237 77.2126C62.9164 76.9835 63.1043 76.8707 63.4332 76.8617C64.9535 76.8307 65.5167 75.9158 64.844 74.5681C64.477 73.8444 64.1519 73.1089 63.9249 72.3334C63.3029 70.1649 62.4571 68.0719 61.7816 65.9252C61.0069 63.4707 60.2197 61.0109 60.5497 58.3722C60.7147 57.0528 60.7671 55.7377 61.5085 54.5581C62.6333 52.7497 63.6856 50.9033 64.8167 49.0975C65.3783 48.2041 65.9174 47.2937 66.204 46.2991C66.4959 45.2918 66.6294 44.2399 67.1289 43.2833C67.2704 43.018 67.238 42.657 67.2567 42.3325C67.2841 41.8121 67.3053 41.2891 67.3112 40.7671C67.334 39.2769 67.3327 37.7914 66.5375 36.4364C66.3109 36.0453 66.3423 35.5857 66.3468 35.1369C66.3768 33.3321 65.8317 31.6468 65.1252 30.0115C64.9314 29.5603 64.6529 29.1695 64.7527 28.6353L64.7401 28.63ZM48.3276 88.1691C48.0852 88.1482 47.7961 88.3956 47.4563 88.5182C47.0656 88.6563 46.9848 88.9178 47.1272 89.2807C47.6299 90.5936 48.1388 91.9091 48.6389 93.2282C48.864 93.833 49.2905 94.0129 49.8849 93.8647C50.0831 93.8153 50.2704 93.7391 50.4622 93.6871C52.8407 93.0577 55.2129 92.4256 57.5924 91.8114C60.4788 91.0637 63.4143 90.4624 66.247 89.5444C68.9664 88.6672 71.7003 87.8257 74.4352 86.9994C75.6291 86.6386 76.8421 86.3376 77.9833 85.8216C78.3211 85.6687 78.5471 85.4832 78.4278 85.1005C78.0492 83.9138 77.6528 82.7344 77.2564 81.555C77.0899 81.0563 76.7796 81.0215 76.3096 81.2074C75.3339 81.5937 74.3092 81.8337 73.265 81.9622C70.9776 82.2532 68.7965 83.0102 66.5511 83.4816C62.7649 84.2781 59.2159 85.9135 55.4353 86.7494C53.1223 87.2586 50.9284 88.291 48.3375 88.1807L48.3276 88.1691ZM36.1533 50.8441C35.1764 49.6045 35.1099 49.377 35.3223 47.7525C35.3684 47.3804 35.3449 47.0159 35.2196 46.6823C34.5123 44.7512 34.0147 42.7608 33.4662 40.7859C33.3822 40.4771 33.286 40.2148 32.9738 40.0092C31.7975 39.2249 30.6063 38.4934 29.3282 37.8804C27.2443 36.8831 25.1451 37.1132 23.2558 38.0893C21.2095 39.1396 19.4584 40.6986 18.5836 42.9302C17.847 44.7989 18.1504 46.4266 20.2967 47.2582C22.6679 48.1698 25.0788 48.9873 27.5886 49.4476C29.8918 49.8724 32.1827 50.3438 34.4832 50.7749C35.0237 50.8773 35.5727 51.0646 36.1533 50.8441ZM51.6558 28.2452C53.2143 28.1934 54.478 27.6848 55.7305 27.0976C57.1131 26.447 58.4585 25.6921 59.9862 25.3982C60.7817 25.2462 61.415 24.8484 61.9931 24.3535C63.388 23.1835 63.1786 22.2087 61.4168 21.5689C61.2636 21.5117 61.1088 21.4759 60.9477 21.4375C59.64 21.1223 58.2626 21.2875 56.9712 20.8461C56.9336 20.8303 56.8916 20.8421 56.8523 20.8477C55.1076 20.8505 53.3707 20.9748 51.6755 21.368C50.2535 21.6916 48.8219 21.9152 47.397 22.1932C44.8541 22.6868 42.3851 23.4258 40.0868 24.6358C38.2341 25.6126 36.4536 26.7159 34.4924 27.477C34.2364 27.5759 33.8814 27.6995 33.8248 27.9564C33.676 28.6768 33.1834 29.1265 32.7376 29.6403C32.394 30.0347 32.4975 30.3147 33.0109 30.3762C33.6531 30.4476 34.3002 30.4546 34.9458 30.4831C36.564 30.5525 38.2109 30.6415 39.7786 30.3054C43.762 29.4442 47.8424 29.1412 51.6647 28.2416L51.6558 28.2452ZM68.9502 38.9834C69.1216 38.9449 69.2163 38.948 69.2715 38.9047C71.6845 36.9674 74.0949 35.0364 76.4855 33.0822C77.9544 31.877 79.3064 30.5634 80.0218 28.7448C80.5725 27.3518 80.0723 25.8405 78.7596 25.1168C78.0602 24.7257 77.3198 24.3617 76.5568 24.1211C72.7852 22.9217 70.282 23.3212 67.5111 26.1419C66.6012 27.0731 66.3885 28.0325 66.7641 29.3139C67.6965 32.4629 68.6262 35.6182 68.9439 38.9808L68.9502 38.9834ZM30.132 51.7025C28.23 51.2548 26.5208 50.9106 24.852 50.4357C22.8322 49.8644 20.8002 49.3397 18.9307 48.3073C16.8397 47.1519 16.39 44.1547 17.0299 42.5851C17.788 40.718 18.976 39.1801 20.5753 37.9634C21.5 37.26 22.402 36.4879 23.5559 36.1694C26.1038 35.4711 28.5779 35.4731 30.8813 37.0358C31.3883 37.3752 31.9577 37.6893 32.6292 37.7435C32.6547 37.1928 32.4545 36.8793 32.0068 36.7496C31.7642 36.6768 31.549 36.5564 31.3995 36.3678C30.9528 35.7804 30.3276 35.5462 29.6455 35.3767C29.1774 35.2605 28.6931 35.1301 28.2752 34.8947C26.2789 33.7423 24.2717 34.2624 22.2743 34.794C21.2489 35.0706 20.3738 35.6915 19.6307 36.4197C18.6041 37.4347 17.7366 38.5981 16.8393 39.7268C16.0379 40.7333 15.6333 41.8851 15.3212 43.098C14.7081 45.4622 15.3883 47.3523 17.3365 48.8464C18.2837 49.5784 19.3899 49.986 20.4587 50.4295C23.5023 51.6912 26.6927 52.0618 30.1221 51.691L30.132 51.7025ZM39.3776 57.3167C39.8741 56.5952 39.8856 56.5853 39.7632 56.4376C39.7236 56.3914 39.584 56.3546 39.5582 56.3807C39.2978 56.6477 39.2111 56.9583 39.3776 57.3167Z" fill="#15B5FC"/>
</g>
<defs>
<clipPath id="clip0_2690_2046">
<rect width="81.4815" height="78.357" fill="white" transform="translate(0 75.0752) rotate(-67.1283)"/>
</clipPath>
</defs>
</svg>
