<svg xmlns="http://www.w3.org/2000/svg" width="80" height="66.024" viewBox="0 0 80 66.024">
  <g id="Group_34245" data-name="Group 34245" transform="translate(-2413.514 -5288)">
    <path id="Path_51685" data-name="Path 51685" d="M92.248,80.436,74.126,54.118a5.123,5.123,0,0,0-8.453,0l-3.2,4.707-5.619-8.133h0L49.28,39.662A5.171,5.171,0,0,0,46.7,37.757V32.074h6.115v.736a1.6,1.6,0,0,0,1.6,1.6H66.025A1.6,1.6,0,0,0,67.45,32.09l-2.433-4.723L67.45,22.66a1.569,1.569,0,0,0-1.361-2.369H56.02v-.752a1.6,1.6,0,0,0-1.6-1.6H46.607A1.6,1.6,0,0,0,43.5,18.4V37.613a5.123,5.123,0,0,0-2.673,1.953L31.7,52.837h0L12.78,80.436A1.583,1.583,0,0,0,14.093,82.9H90.935a1.583,1.583,0,0,0,1.313-2.465Zm-23.9-24.51a1.985,1.985,0,0,1,3.2,0l4.29,6.243-.416,1.473-1.121-1.5a1.425,1.425,0,0,0-1.3-.64,1.6,1.6,0,0,0-1.3.672l-1.409,2-1.473-2.738a1.6,1.6,0,0,0-1.409-.832h-.176L65,60.842ZM43.453,41.439l.16-.176a1.985,1.985,0,0,1,2.85,0l.176.192,7.156,10.406c-.128.4-.272.929-.448,1.6-.288,1.041-.64,2.273-.961,3.362-.608-1.009-1.313-2.289-1.905-3.442a1.6,1.6,0,0,0-1.185-.848h-.24a1.6,1.6,0,0,0-1.137.48l-3.41,3.346L41.5,51.941a1.6,1.6,0,0,0-1.6-.688l-3.586.5ZM63.4,23.477l-1.6,3.2a1.6,1.6,0,0,0,0,1.473l1.6,3.106H56.02v-7.78Zm-10.582-1.6v6.948H46.7V21.172h6.115ZM33.927,55.319,39.4,54.55l3.554,5.219a1.614,1.614,0,0,0,2.465.224l3.2-3.282c2.385,4.354,3.442,4.8,4.21,4.8h.336a1.857,1.857,0,0,0,1.6-1.441c.224-.88.832-2.994,1.361-4.8l4.386,6.4L48.079,79.764H17.134Zm18.058,24.43,10.6-15.417,3.906-.416,2.193,4.05a1.609,1.609,0,0,0,2.722.16l1.6-2.289,1.745,2.337a1.6,1.6,0,0,0,1.281.656h.288a1.6,1.6,0,0,0,1.249-1.137l.592-2.065L87.877,79.78Z" transform="translate(2401 5271.122)" fill="#15B5FC"/>
    <path id="Path_51686" data-name="Path 51686" d="M42.23,32.6a1.6,1.6,0,0,0,1.6,1.6H55.645a1.6,1.6,0,1,0,0-3.2H43.831A1.6,1.6,0,0,0,42.23,32.6Z" transform="translate(2418.856 5279.608)" fill="#15B5FC"/>
    <path id="Path_51687" data-name="Path 51687" d="M53.843,35H46.831a1.6,1.6,0,1,0,0,3.2h7.012a1.6,1.6,0,1,0,0-3.2Z" transform="translate(2420.659 5282.011)" fill="#15B5FC"/>
    <path id="Path_51688" data-name="Path 51688" d="M25.856,49.1l-3.2,4.514a1.6,1.6,0,0,0,2.593,1.873l3.2-4.514A1.606,1.606,0,0,0,25.84,49.1Z" transform="translate(2406.911 5290.083)" fill="#15B5FC"/>
    <path id="Path_51689" data-name="Path 51689" d="M44.7,50.511l-2.289,3.2A1.6,1.6,0,0,0,45,55.586l2.305-3.2A1.606,1.606,0,1,0,44.7,50.511Z" transform="translate(2418.776 5290.93)" fill="#15B5FC"/>
  </g>
</svg>