<?xml version="1.0" encoding="UTF-8"?>
<svg id="Layer_2" data-name="Layer 2" xmlns="http://www.w3.org/2000/svg" xmlns:xlink="http://www.w3.org/1999/xlink" viewBox="0 0 861.63 211.64">
  <defs>
    <style>
      .cls-1 {
        fill: url(#New_Gradient_Swatch_3-11);
      }

      .cls-1, .cls-2, .cls-3, .cls-4, .cls-5, .cls-6, .cls-7, .cls-8, .cls-9, .cls-10, .cls-11, .cls-12, .cls-13, .cls-14, .cls-15, .cls-16, .cls-17, .cls-18, .cls-19, .cls-20 {
        stroke-width: 0px;
      }

      .cls-2 {
        fill: url(#linear-gradient);
      }

      .cls-3 {
        fill: url(#New_Gradient_Swatch_3-2);
      }

      .cls-4 {
        fill: url(#linear-gradient-6);
      }

      .cls-5 {
        fill: url(#linear-gradient-5);
      }

      .cls-6 {
        fill: url(#New_Gradient_Swatch_3-4);
      }

      .cls-7 {
        fill: #1c75bc;
      }

      .cls-8 {
        fill: #fff;
      }

      .cls-9 {
        fill: url(#New_Gradient_Swatch_3-6);
      }

      .cls-10 {
        fill: url(#linear-gradient-2);
      }

      .cls-11 {
        fill: url(#linear-gradient-3);
      }

      .cls-12 {
        fill: url(#radial-gradient);
      }

      .cls-13 {
        fill: url(#New_Gradient_Swatch_3-7);
      }

      .cls-14 {
        fill: url(#New_Gradient_Swatch_3-3);
      }

      .cls-15 {
        fill: url(#New_Gradient_Swatch_3-9);
      }

      .cls-16 {
        fill: url(#New_Gradient_Swatch_3-8);
      }

      .cls-17 {
        fill: url(#New_Gradient_Swatch_3-5);
      }

      .cls-18 {
        fill: url(#New_Gradient_Swatch_3);
      }

      .cls-19 {
        fill: url(#linear-gradient-4);
      }

      .cls-20 {
        fill: url(#New_Gradient_Swatch_3-10);
      }
    </style>
    <linearGradient id="New_Gradient_Swatch_3" data-name="New Gradient Swatch 3" x1="-1989.43" y1="76.45" x2="-1925.67" y2="76.45" gradientTransform="translate(-1713.21) rotate(-180) scale(1 -1)" gradientUnits="userSpaceOnUse">
      <stop offset="0" stop-color="#cbeaf1"/>
      <stop offset="0" stop-color="#4474b7"/>
      <stop offset="1" stop-color="#42c6e8"/>
    </linearGradient>
    <linearGradient id="New_Gradient_Swatch_3-2" data-name="New Gradient Swatch 3" x1="-1955.69" y1="76.38" x2="-1925.55" y2="76.38" xlink:href="#New_Gradient_Swatch_3"/>
    <linearGradient id="New_Gradient_Swatch_3-3" data-name="New Gradient Swatch 3" x1="-1974.32" y1="20.16" x2="-1935.95" y2="20.16" xlink:href="#New_Gradient_Swatch_3"/>
    <linearGradient id="New_Gradient_Swatch_3-4" data-name="New Gradient Swatch 3" x1="-1860.16" y1="147.19" x2="-1766.92" y2="147.19" xlink:href="#New_Gradient_Swatch_3"/>
    <linearGradient id="New_Gradient_Swatch_3-5" data-name="New Gradient Swatch 3" x1="-1860.16" y1="133.14" x2="-1831.97" y2="133.14" xlink:href="#New_Gradient_Swatch_3"/>
    <linearGradient id="New_Gradient_Swatch_3-6" data-name="New Gradient Swatch 3" x1="-1844.49" y1="164.53" x2="-1766.92" y2="164.53" xlink:href="#New_Gradient_Swatch_3"/>
    <linearGradient id="New_Gradient_Swatch_3-7" data-name="New Gradient Swatch 3" x1="-1824.51" y1="96.93" x2="-1944.13" y2="96.93" xlink:href="#New_Gradient_Swatch_3"/>
    <linearGradient id="New_Gradient_Swatch_3-8" data-name="New Gradient Swatch 3" x1="-1962.52" y1="20.4" x2="-1935.95" y2="20.4" xlink:href="#New_Gradient_Swatch_3"/>
    <linearGradient id="New_Gradient_Swatch_3-9" data-name="New Gradient Swatch 3" x1="-1911.93" y1="129.56" x2="-1832.08" y2="129.56" xlink:href="#New_Gradient_Swatch_3"/>
    <linearGradient id="New_Gradient_Swatch_3-10" data-name="New Gradient Swatch 3" x1="128.18" y1="45.76" x2="187.12" y2="45.76" gradientTransform="matrix(1,0,0,1,0,0)" xlink:href="#New_Gradient_Swatch_3"/>
    <linearGradient id="linear-gradient" x1="0" y1="210.41" x2="46.55" y2="210.41" gradientUnits="userSpaceOnUse">
      <stop offset="0" stop-color="#42c6e8"/>
      <stop offset="1" stop-color="#4474b7"/>
      <stop offset="1" stop-color="#cbeaf1"/>
    </linearGradient>
    <linearGradient id="linear-gradient-2" x1="5.68" y1="205.42" x2="52.22" y2="205.42" xlink:href="#linear-gradient"/>
    <linearGradient id="linear-gradient-3" x1="5.68" y1="205.42" x2="52.22" y2="205.42" xlink:href="#linear-gradient"/>
    <linearGradient id="linear-gradient-4" x1="11.36" y1="200.42" x2="57.9" y2="200.42" xlink:href="#linear-gradient"/>
    <linearGradient id="linear-gradient-5" x1="11.36" y1="200.42" x2="57.9" y2="200.42" xlink:href="#linear-gradient"/>
    <linearGradient id="linear-gradient-6" x1="17.04" y1="195.42" x2="63.58" y2="195.42" xlink:href="#linear-gradient"/>
    <radialGradient id="radial-gradient" cx="799.36" cy="129.22" fx="799.36" fy="129.22" r="66.37" gradientUnits="userSpaceOnUse">
      <stop offset="0" stop-color="#4487c3"/>
      <stop offset=".44" stop-color="#4482c0"/>
      <stop offset=".94" stop-color="#4474b7"/>
      <stop offset=".96" stop-color="#4474b7"/>
    </radialGradient>
    <linearGradient id="New_Gradient_Swatch_3-11" data-name="New Gradient Swatch 3" x1="307.01" y1="148.8" x2="722.74" y2="148.8" gradientTransform="matrix(1,0,0,1,0,0)" xlink:href="#New_Gradient_Swatch_3"/>
  </defs>
  <g id="Layer_1-2" data-name="Layer 1">
    <g>
      <g>
        <g>
          <g>
            <path class="cls-18" d="M212.49,66.88c.04-2.41.16-4.61.29-6.54.12-1.94.3-3.61.46-4.99.15-1.38.3-2.46.42-3.2.12-.74.19-1.13.19-1.13.63-3.79,3.46-6.96,7.28-7.66,4.87-.89,9.5,2.53,10.35,7.65h0s.06.4.19,1.13c.11.74.27,1.81.42,3.18.15,1.37.34,3.02.48,4.91.15,1.89.3,4.01.41,6.31.23,4.58.4,9.88.57,15.18.07,2.64.13,5.29.32,7.75.1,1.23.25,2.4.45,3.47.04.21.08.42.12.62.66.09,1.34.17,2.02.24,2.75.26,5.6.49,8.36.66,2.77.2,5.46.33,8.03.48,2.58.13,5.01.26,7.26.37,2.26.12,4.33.23,6.17.33,1.84.09,3.44.17,4.77.26,2.65.16,4.17.26,4.17.26.41.03.78.3.93.73.2.58-.09,1.21-.64,1.42h0s-1.44.55-3.97,1.42c-1.27.45-2.81.96-4.58,1.53-1.77.57-3.77,1.23-5.97,1.88-2.2.66-4.58,1.36-7.12,2.05-2.54.71-5.23,1.38-8.04,2.07-2.82.65-5.75,1.3-8.88,1.78-1.57.24-3.17.47-4.97.57-.91.05-1.85.08-3.06,0-.62-.05-1.28-.11-2.29-.37-.52-.15-1.12-.32-2.04-.8l-.35-.19-.42-.26c-.15-.1-.26-.17-.44-.31-.17-.13-.34-.27-.51-.41-.15-.13-.36-.32-.56-.53-.2-.21-.36-.39-.58-.66-.22-.28-.43-.57-.62-.87-.11-.17-.31-.52-.22-.37l-.02-.03-.34-.47c-.11-.16-.21-.28-.39-.59-.31-.51-.66-1.1-.89-1.53-.52-.93-.99-1.86-1.4-2.78-.84-1.85-1.52-3.68-2.1-5.46-1.17-3.56-1.88-6.95-2.37-10.16-.46-3.21-.69-6.24-.8-9.07-.12-2.83-.13-5.47-.08-7.88Z"/>
            <path class="cls-3" d="M212.37,66.81c.04-2.41.16-4.61.29-6.54.12-1.94.3-3.61.46-4.99.15-1.38.3-2.46.42-3.2.12-.74.19-1.13.19-1.13.63-3.79,3.46-6.96,7.28-7.66,4.87-.89,9.37,2.24,10.35,7.65h0s.06.4.19,1.13c.11.74.27,1.81.42,3.18.15,1.37.34,3.02.48,4.91.11,1.39.22,2.91.31,4.54-4.47,3.09-7.36,7.25-7.95,12.86-2.3,9.68-1.54,20.16,6.91,25.81,3.41,2.15,7.03,3.59,10.76,4.55-1.83.39-3.7.77-5.66,1.06-1.57.24-3.17.47-4.97.57-.91.05-1.85.08-3.06,0-.62-.05-1.28-.11-2.29-.37-.52-.15-1.12-.32-2.04-.8l-.35-.19-.42-.26c-.15-.1-.26-.17-.44-.31-.17-.13-.34-.27-.51-.41-.15-.13-.36-.32-.56-.53-.2-.21-.36-.39-.58-.66-.22-.28-.43-.57-.62-.87-.11-.17-.31-.52-.22-.37l-.02-.03-.34-.47c-.11-.16-.21-.28-.39-.59-.31-.51-.66-1.1-.89-1.53-.52-.93-.99-1.86-1.4-2.78-.84-1.85-1.52-3.68-2.1-5.46-1.17-3.56-1.88-6.95-2.37-10.16-.46-3.21-.69-6.24-.8-9.07-.12-2.83-.13-5.47-.08-7.88Z"/>
          </g>
          <path class="cls-14" d="M222.74,20.16c0,11.14,8.59,20.16,19.19,20.16s19.19-9.03,19.19-20.16S252.52,0,241.92,0s-19.19,9.03-19.19,20.16Z"/>
          <path class="cls-6" d="M55.52,211.59s2.34-.66,6.38-1.92c2.03-.61,4.47-1.4,7.27-2.33,2.79-.93,5.96-1.96,9.38-3.17,3.43-1.19,7.13-2.53,11.03-4,3.91-1.46,8.01-3.08,12.26-4.8,4.23-1.78,8.61-3.64,13.07-5.85,2.24-1.1,4.5-2.26,6.86-3.66,1.19-.7,2.4-1.45,3.74-2.42.69-.52,1.38-1.02,2.22-1.79.39-.34.9-.86,1.37-1.36.29-.34.58-.7.87-1.06l.1-.14c.49-.73.16-.23.27-.41l.07-.09.14-.18.57-.72c.27-.38.58-.87.86-1.31.64-1,.98-1.62,1.41-2.35.81-1.42,1.5-2.77,2.15-4.11,1.29-2.67,2.38-5.25,3.39-7.82,2.01-5.11,3.56-10.15,4.75-15.1,1.17-4.95,1.98-9.8,2.48-14.46.52-4.66.77-9.12.77-13.31.01-4.19-.23-8.09-.65-11.61-.42-3.53-1.07-6.67-1.72-9.28-.69-2.64-1.41-4.73-1.98-6.17-.59-1.45-.93-2.21-.93-2.21-2.87-6.31-10.06-8.98-16.06-5.97-4.45,2.23-7,6.96-6.85,11.83l.08,2.49s.01.44.09,1.21c.04.37.05.93.11,1.52.06.58.05,1.37.12,2.16.06,1.69.09,3.8.08,6.34-.04,2.54-.16,5.5-.36,8.79-.22,3.29-.53,6.91-.94,10.77-.43,3.85-.95,7.95-1.52,12.16-.55,4.22-1.18,8.58-1.91,12.86-.39,2.12-.83,4.21-1.33,6.15-.25.96-.51,1.88-.76,2.7-.12.38-.44,2.06-.67,2.34-.51.58-1.24,1.28-2,1.97-1.55,1.39-3.29,2.83-5.06,4.25-3.57,2.81-7.23,5.63-10.83,8.3-3.58,2.72-7.11,5.28-10.45,7.75-3.36,2.45-6.54,4.77-9.47,6.91-2.94,2.15-5.64,4.13-8.03,5.88-2.4,1.74-4.49,3.26-6.21,4.54-3.44,2.53-5.4,4-5.4,4-.65.49-.8,1.43-.33,2.12.36.53.98.74,1.55.58Z"/>
          <g>
            <path class="cls-17" d="M118.94,117.42c.17-2.92.28-5.58.31-7.88.01-2.54-.02-4.65-.08-6.34-.08-.8-.06-1.58-.12-2.16-.06-.59-.07-1.15-.11-1.52-.08-.78-.09-1.21-.09-1.21l-.08-2.49c-.15-4.87,2.4-9.6,6.85-11.83,6-3.01,13.19-.34,16.06,5.97,0,0,.34.75.93,2.21.57,1.44,1.29,3.53,1.98,6.17.65,2.61,1.3,5.76,1.72,9.28.42,3.52.66,7.43.65,11.61,0,4.19-.25,8.66-.77,13.31-.5,4.66-1.31,9.51-2.48,14.46-1.18,4.95-2.74,9.99-4.75,15.1-1.01,2.57-2.1,5.15-3.39,7.82-.65,1.33-1.35,2.69-2.15,4.11-.42.73-.77,1.35-1.41,2.35-.28.44-.59.93-.86,1.31l-.57.72-.14.18-.07.09c-.12.18.22-.33-.27.41l-.1.14c-.28.36-.57.72-.87,1.06-.47.51-.98,1.03-1.37,1.36-.85.77-1.53,1.28-2.22,1.79-.05.04-.1.07-.16.11,2.21-6.39,3.84-13.06,4.99-19.81,2.43-14.69.53-37.45-11.41-46.31Z"/>
            <path class="cls-9" d="M54.31,208.89s1.96-1.47,5.4-4c1.71-1.28,3.8-2.81,6.21-4.54,2.39-1.75,5.09-3.72,8.03-5.88,2.93-2.14,6.11-4.46,9.47-6.91,3.34-2.47,6.87-5.03,10.45-7.75,3.6-2.67,7.26-5.48,10.83-8.3,1.77-1.42,3.51-2.86,5.06-4.25.77-.69,1.49-1.39,2-1.97.22-.27.55-1.96.67-2.34.25-.81.52-1.73.76-2.7.5-1.93.94-4.03,1.33-6.15.73-4.28,1.36-8.64,1.91-12.86.58-4.22,1.1-8.31,1.52-12.16.41-3.86.72-7.48.94-10.77.02-.31.03-.6.05-.91,11.94,8.85,13.84,31.62,11.41,46.31-1.15,6.75-2.78,13.42-4.99,19.81-1.28.91-2.44,1.63-3.58,2.31-2.36,1.4-4.62,2.57-6.86,3.66-4.46,2.22-8.84,4.07-13.07,5.85-4.25,1.72-8.35,3.34-12.26,4.8-3.9,1.47-7.6,2.81-11.03,4-3.42,1.21-6.59,2.24-9.38,3.17-2.79.93-5.24,1.72-7.27,2.33-4.04,1.26-6.38,1.92-6.38,1.92-.56.16-1.19-.05-1.55-.58-.46-.68-.31-1.63.33-2.12Z"/>
          </g>
          <path class="cls-13" d="M228.41,45.12c1.72,2.14,2.51,3.72,2.51,4.35,0,3.23-16.89,24.73-38.88,26.88-15.15,1.48-24.96,12.65-29.77,21.74,1.44.64,2.91,1.32,4.42,2.07,3.66,1.84,7.51,4.01,11.44,6.58,3.93,2.55,7.94,5.5,11.87,8.99,3.95,3.48,7.78,7.46,11.54,12.32,1.88,2.47,3.75,5.1,5.54,8.62.44.87.88,1.86,1.3,2.9l.31.83.15.42.19.56c.12.39.24.78.35,1.17l.1.48.02.12v.06c.23.79.13.46.2.75.12.56.23,1.16.28,1.69.12,1.12.09,2.17-.01,3.12-.05.44-.13.92-.21,1.33-.08.39-.18.78-.29,1.17-.1.34-.21.67-.33,1-.12.33-.23.58-.35.87-.48,1.09-.98,1.93-1.43,2.6-.47.7-.9,1.24-1.32,1.74-1.66,1.91-3.05,3-4.39,4.03-1.33,1-2.59,1.82-3.83,2.59-2.48,1.5-4.87,2.74-7.23,3.91-2.35,1.17-4.69,2.19-6.99,3.17-2.3.98-4.56,1.91-6.8,2.76-8.93,3.44-17.29,6.2-24.5,8.43-3.6,1.11-6.92,2.06-9.86,2.9-2.93.85-5.51,1.54-7.63,2.09-4.24,1.12-6.69,1.68-6.69,1.68h0c-.58.13-1.21-.13-1.54-.69-.41-.72-.19-1.65.49-2.08,0,0,2.13-1.35,5.85-3.71,1.86-1.19,4.11-2.63,6.71-4.25,2.58-1.65,5.48-3.51,8.65-5.54,3.16-2.02,6.57-4.24,10.15-6.58,3.57-2.36,7.32-4.84,11.11-7.48,3.78-2.63,7.65-5.38,11.31-8.22,1.37-1.06,2.71-2.13,3.95-3.21-.41-.37-.83-.75-1.27-1.12-1.47-1.25-3.12-2.5-4.81-3.69-1.69-1.22-3.43-2.4-5.16-3.58-3.48-2.32-6.92-4.58-10.21-6.67-3.3-2.08-6.46-4-9.39-5.68-5.85-3.39-10.72-5.89-13.97-7.47-1.64-.77-2.86-1.35-3.69-1.71-.81-.37-1.24-.56-1.24-.56l-1.17-.53c-.89-.41-1.73-.93-2.49-1.54-6.03-4.09-20.04-16.06-7.39-32.46,12.77-16.55,29.11-25.72,30.7-26.35,1.08-.43,9.55-17.35,22.58-27.09-1.4-.44-2.82-.9-4.27-1.36-2.9-.95-5.9-1.94-8.95-2.94-1.53-.47-3.07-.94-4.61-1.38l-1.35-.37c-.57-.16-1.15-.26-1.74-.31-.01,0-.03,0-.04,0-1.56-.13-3.13.12-4.57.76-.51.23-1.04.47-1.56.73-2.73,1.37-5.54,2.96-8.22,4.59-2.7,1.62-5.29,3.31-7.77,4.92-2.46,1.62-4.79,3.19-6.94,4.66-2.15,1.48-4.12,2.83-5.86,4.04-1.74,1.22-3.26,2.29-4.51,3.16-2.5,1.76-3.94,2.77-3.94,2.77-.35.25-.83.26-1.2-.02-.47-.36-.58-1.05-.24-1.54,0,0,1.02-1.49,2.88-4.02.92-1.27,2.07-2.79,3.41-4.52,1.34-1.72,2.85-3.68,4.56-5.76,1.7-2.08,3.58-4.32,5.62-6.64,2.04-2.34,4.26-4.73,6.65-7.2,2.42-2.43,4.97-4.93,7.95-7.3,1.49-1.19,3.07-2.39,4.94-3.51.95-.56,1.97-1.12,3.2-1.63,1.25-.5,2.65-1.03,4.83-1.18l3.67.05c.95.05,1.9.1,2.85.14,1.82.1,3.62.25,5.4.4,3.55.32,7.02.78,10.35,1.44,3.32.67,6.5,1.49,9.47,2.43,2.98.91,5.76,1.93,8.31,2.96,2.54,1.04,5,1.8,6.85,3.12,2.25,1.61,19.45,20.78,25.99,29.8"/>
          <path class="cls-16" d="M237.81.47c-5.59,10.89-3.97,26.59,5.36,34.21,1.9,1.66,3.96,3,6.14,4.1-2.27,1-4.77,1.55-7.39,1.55-10.6,0-19.19-9.03-19.19-20.16,0-9.65,6.46-17.72,15.08-19.69Z"/>
          <path class="cls-15" d="M158.4,166.18c3.57-2.36,7.32-4.84,11.11-7.48,3.78-2.63,7.65-5.38,11.31-8.22,1.37-1.06,2.71-2.13,3.95-3.21-.41-.37-.83-.75-1.27-1.12-1.47-1.25-3.12-2.5-4.81-3.69-1.69-1.22-3.43-2.4-5.16-3.58-3.48-2.32-6.92-4.58-10.21-6.67-3.3-2.08-6.46-4-9.39-5.68-5.85-3.39-10.72-5.89-13.97-7.47-1.64-.77-2.86-1.35-3.69-1.71-.81-.37-1.24-.56-1.24-.56l-1.17-.53c-.89-.41-1.73-.93-2.49-1.54-5.87-3.98-19.31-15.45-8.31-31.2,8,32.51,54.17,32.75,74.05,54.39,6.14,6.45-6.91,15.32-13.81,20.97-12.42,9.14-25.74,14.28-39.48,16.7,1.41-.9,2.88-1.84,4.41-2.83,3.16-2.02,6.57-4.24,10.15-6.58Z"/>
          <path class="cls-20" d="M175.63,13.71c-18.23-3.96-31.31,6.69-41.78,19.98.11-.08.22-.15.34-.22,2.47-1.61,5.06-3.3,7.77-4.92,2.68-1.64,5.49-3.23,8.22-4.59.62-.31,1.24-.6,1.85-.86,1.25-.54,2.61-.77,3.96-.66.18-.02,1.33.12,1.66.22l1.8.5c1.54.43,3.08.9,4.61,1.38,3.05,1,6.04,1.99,8.95,2.94,1.45.46,2.88.92,4.27,1.36-13.03,9.74-21.49,26.67-22.58,27.09-1.41.54-14.6,7.82-26.51,21.29,16.09,4.41,35.69-1.66,47.45-13.49,5.37-5.65,8.44-12.1,9.98-19.36,2.3-11.29,3.84-27.42-9.98-30.65Z"/>
        </g>
        <g>
          <polygon class="cls-2" points="46.55 211.61 0 210.41 46.55 209.21 46.55 211.61"/>
          <polygon class="cls-10" points="52.22 206.62 5.68 205.42 52.22 204.22 52.22 206.62"/>
          <polygon class="cls-11" points="52.22 206.62 5.68 205.42 52.22 204.22 52.22 206.62"/>
          <polygon class="cls-19" points="57.9 201.62 11.36 200.42 57.9 199.22 57.9 201.62"/>
          <polygon class="cls-5" points="57.9 201.62 11.36 200.42 57.9 199.22 57.9 201.62"/>
          <polygon class="cls-4" points="63.58 196.62 17.04 195.42 63.58 194.22 63.58 196.62"/>
        </g>
      </g>
      <g>
        <g>
          <path class="cls-12" d="M737.09,129.22v-59.39c0-8.34,9.03-13.55,16.25-9.38l51.43,29.7,51.43,29.7c7.22,4.17,7.22,14.59,0,18.76l-51.43,29.7-51.43,29.7c-7.22,4.17-16.25-1.04-16.25-9.38v-59.39Z"/>
          <g>
            <path class="cls-8" d="M768.2,123.37c.25,0,.48-.09.69-.26.21-.17.34-.39.4-.64l.43-2.22c.06-.35-.02-.65-.24-.92-.22-.27-.5-.4-.85-.4h-15.8l1.56-7.71h20.34c.88,0,1.69.18,2.44.54s1.36.85,1.84,1.47c.49.62.84,1.32,1.06,2.11.22.79.25,1.61.09,2.46l-1.09,5.35c-.19,1.01-.69,1.85-1.51,2.53-.82.68-1.75,1.02-2.79,1.02h.71c.69,0,1.33.15,1.92.45.58.3,1.08.69,1.49,1.18.41.49.7,1.05.87,1.68s.18,1.28.02,1.94l-1.61,7.95c-.25,1.32-.88,2.4-1.89,3.22-1.01.82-2.18,1.23-3.5,1.23h-23.84l1.56-7.71h17.5c.25,0,.48-.09.69-.26.21-.17.34-.39.4-.64l.9-4.4c.06-.35-.02-.65-.24-.92-.22-.27-.5-.4-.85-.4h-15.47l1.32-6.62h13.43Z"/>
            <path class="cls-8" d="M801.4,123.37c.25,0,.48-.09.69-.26.21-.17.34-.39.4-.64l.43-2.22c.06-.35-.02-.65-.24-.92-.22-.27-.5-.4-.85-.4h-15.8l1.56-7.71h20.34c.88,0,1.69.18,2.44.54s1.36.85,1.84,1.47c.49.62.84,1.32,1.06,2.11.22.79.25,1.61.09,2.46l-1.09,5.35c-.19,1.01-.69,1.85-1.51,2.53-.82.68-1.75,1.02-2.79,1.02h.71c.69,0,1.33.15,1.92.45.58.3,1.08.69,1.49,1.18.41.49.7,1.05.87,1.68s.18,1.28.02,1.94l-1.61,7.95c-.25,1.32-.88,2.4-1.89,3.22-1.01.82-2.18,1.23-3.5,1.23h-23.84l1.56-7.71h17.5c.25,0,.48-.09.69-.26.21-.17.34-.39.4-.64l.9-4.4c.06-.35-.02-.65-.24-.92-.22-.27-.5-.4-.85-.4h-15.47l1.32-6.62h13.43Z"/>
          </g>
        </g>
        <g>
          <polygon class="cls-1" points="307.01 146.09 722.74 148.31 307.02 151.52 307.01 146.09"/>
          <g>
            <path class="cls-8" d="M316.41,165.28l-3.78,7.22v4.38h-1.51v-4.38l-3.79-7.22h1.68l2.86,5.87,2.86-5.87h1.68Z"/>
            <path class="cls-8" d="M318,176.45c-.69-.39-1.24-.94-1.63-1.66-.39-.72-.59-1.54-.59-2.49s.2-1.76.61-2.47c.41-.72.96-1.26,1.66-1.65.7-.38,1.48-.57,2.35-.57s1.65.19,2.35.57c.7.38,1.25.93,1.66,1.64.4.71.61,1.54.61,2.48s-.21,1.77-.62,2.49c-.42.72-.98,1.27-1.69,1.66-.71.39-1.5.58-2.36.58s-1.63-.19-2.32-.58ZM321.86,175.32c.48-.25.86-.64,1.16-1.15.29-.51.44-1.13.44-1.86s-.14-1.35-.43-1.86c-.29-.51-.67-.89-1.13-1.14-.47-.25-.97-.37-1.51-.37s-1.06.13-1.52.37c-.46.25-.83.63-1.11,1.14-.28.51-.42,1.13-.42,1.86s.14,1.37.41,1.88c.27.51.63.89,1.09,1.14.45.25.95.37,1.5.37s1.05-.13,1.53-.38Z"/>
            <path class="cls-8" d="M335.09,167.76v9.12h-1.51v-1.35c-.29.47-.69.83-1.21,1.09s-1.08.39-1.71.39c-.71,0-1.35-.15-1.91-.44-.57-.29-1.01-.73-1.34-1.32s-.49-1.3-.49-2.15v-5.34h1.5v5.14c0,.9.23,1.59.68,2.07s1.08.72,1.86.72,1.45-.25,1.91-.75c.47-.5.7-1.23.7-2.18v-5.01h1.51Z"/>
            <path class="cls-8" d="M340.3,168.03c.49-.29,1.1-.43,1.81-.43v1.56h-.4c-1.7,0-2.55.92-2.55,2.76v4.96h-1.51v-9.12h1.51v1.48c.27-.52.65-.93,1.14-1.21Z"/>
            <path class="cls-8" d="M349.92,176.59c-.6-.27-1.08-.65-1.42-1.13s-.52-1.04-.53-1.67h1.61c.06.54.28,1,.67,1.37.39.37.97.56,1.72.56s1.29-.18,1.71-.54c.42-.36.62-.82.62-1.39,0-.44-.12-.8-.37-1.08-.24-.28-.55-.49-.91-.63-.37-.14-.86-.3-1.48-.47-.77-.2-1.38-.4-1.84-.6-.46-.2-.85-.51-1.18-.94s-.49-1-.49-1.72c0-.63.16-1.19.48-1.68.32-.49.77-.87,1.36-1.13s1.25-.4,2.01-.4c1.09,0,1.98.27,2.67.82.69.54,1.08,1.27,1.17,2.16h-1.66c-.06-.44-.29-.83-.7-1.17-.41-.34-.95-.51-1.63-.51-.63,0-1.15.16-1.55.49s-.6.79-.6,1.37c0,.42.12.77.36,1.03.24.27.53.47.88.61.35.14.84.3,1.47.47.77.21,1.38.42,1.85.62s.87.52,1.2.95c.33.43.5,1.01.5,1.74,0,.57-.15,1.1-.45,1.6-.3.5-.74.9-1.33,1.21-.59.31-1.28.47-2.08.47s-1.45-.14-2.06-.41Z"/>
            <path class="cls-8" d="M360.92,168.14c.59-.35,1.28-.52,2.07-.52s1.54.19,2.21.58c.66.39,1.18.93,1.56,1.64.38.7.57,1.52.57,2.45s-.19,1.74-.57,2.46c-.38.72-.9,1.28-1.56,1.68-.66.4-1.4.6-2.21.6s-1.46-.17-2.06-.52c-.59-.35-1.05-.78-1.36-1.31v6.01h-1.51v-13.45h1.51v1.68c.3-.52.75-.96,1.34-1.31ZM365.36,170.49c-.28-.51-.65-.9-1.12-1.17-.47-.27-.99-.4-1.56-.4s-1.07.14-1.54.41c-.47.27-.85.67-1.13,1.18-.28.52-.42,1.11-.42,1.79s.14,1.29.42,1.81c.28.52.66.91,1.13,1.18.47.27.98.41,1.54.41s1.08-.14,1.56-.41c.47-.27.85-.67,1.12-1.18s.42-1.12.42-1.82-.14-1.29-.42-1.8Z"/>
            <path class="cls-8" d="M370.98,176.45c-.69-.39-1.24-.94-1.63-1.66-.39-.72-.59-1.54-.59-2.49s.2-1.76.61-2.47c.41-.72.96-1.26,1.66-1.65.7-.38,1.48-.57,2.35-.57s1.65.19,2.35.57c.7.38,1.25.93,1.66,1.64.4.71.61,1.54.61,2.48s-.21,1.77-.62,2.49c-.42.72-.98,1.27-1.69,1.66-.71.39-1.5.58-2.36.58s-1.63-.19-2.32-.58ZM374.83,175.32c.48-.25.86-.64,1.16-1.15.29-.51.44-1.13.44-1.86s-.14-1.35-.43-1.86c-.29-.51-.67-.89-1.13-1.14-.47-.25-.97-.37-1.51-.37s-1.06.13-1.52.37c-.46.25-.83.63-1.11,1.14-.28.51-.42,1.13-.42,1.86s.14,1.37.41,1.88c.27.51.63.89,1.09,1.14.45.25.95.37,1.5.37s1.05-.13,1.53-.38Z"/>
            <path class="cls-8" d="M382.63,168.03c.49-.29,1.1-.43,1.81-.43v1.56h-.4c-1.7,0-2.55.92-2.55,2.76v4.96h-1.51v-9.12h1.51v1.48c.27-.52.65-.93,1.14-1.21Z"/>
            <path class="cls-8" d="M388.14,169.01v5.38c0,.44.09.76.28.94.19.18.52.27.98.27h1.11v1.28h-1.36c-.84,0-1.48-.19-1.9-.58-.42-.39-.63-1.03-.63-1.91v-5.38h-1.18v-1.25h1.18v-2.3h1.51v2.3h2.38v1.25h-2.38Z"/>
            <path class="cls-8" d="M393.7,176.67c-.56-.24-.99-.57-1.31-1-.32-.43-.5-.92-.53-1.47h1.56c.04.46.26.83.64,1.11.38.29.88.43,1.51.43.58,0,1.03-.13,1.36-.38.33-.26.5-.58.5-.97s-.18-.7-.53-.89c-.36-.19-.9-.39-1.65-.57-.68-.18-1.23-.36-1.66-.54-.43-.18-.79-.45-1.1-.82-.31-.36-.46-.83-.46-1.42,0-.47.14-.89.42-1.28.28-.39.67-.7,1.18-.92.51-.23,1.09-.34,1.75-.34,1.01,0,1.83.26,2.45.77.62.51.95,1.21,1,2.1h-1.51c-.03-.48-.22-.86-.57-1.15-.35-.29-.82-.43-1.41-.43-.54,0-.98.12-1.3.35-.32.23-.48.54-.48.92,0,.3.1.55.29.74s.44.35.73.47.7.25,1.22.39c.65.18,1.19.35,1.6.52.41.17.76.43,1.06.77.29.34.45.79.46,1.35,0,.5-.14.95-.42,1.35s-.67.71-1.17.94c-.51.23-1.08.34-1.74.34-.7,0-1.33-.12-1.88-.36Z"/>
            <path class="cls-8" d="M407,166.51v3.88h4.23v1.25h-4.23v3.99h4.73v1.25h-6.24v-11.62h6.24v1.25h-4.73Z"/>
            <path class="cls-8" d="M421.16,168.6c.69.67,1.03,1.64,1.03,2.9v5.38h-1.5v-5.16c0-.91-.23-1.61-.68-2.09s-1.08-.72-1.86-.72-1.43.25-1.91.75c-.47.5-.71,1.23-.71,2.18v5.04h-1.51v-9.12h1.51v1.3c.3-.47.71-.83,1.22-1.08s1.08-.38,1.71-.38c1.11,0,2.01.34,2.7,1.01Z"/>
            <path class="cls-8" d="M426.52,169.01v5.38c0,.44.09.76.28.94.19.18.52.27.98.27h1.11v1.28h-1.36c-.84,0-1.48-.19-1.9-.58-.42-.39-.63-1.03-.63-1.91v-5.38h-1.18v-1.25h1.18v-2.3h1.51v2.3h2.38v1.25h-2.38Z"/>
            <path class="cls-8" d="M439,172.89h-7.29c.06.9.36,1.6.92,2.11.56.5,1.24.76,2.04.76.65,0,1.2-.15,1.64-.46.44-.31.75-.71.92-1.22h1.63c-.24.88-.73,1.59-1.46,2.14-.73.55-1.64.82-2.73.82-.87,0-1.64-.19-2.32-.58-.68-.39-1.22-.94-1.61-1.66-.39-.72-.58-1.54-.58-2.49s.19-1.77.57-2.48c.38-.71.91-1.26,1.59-1.64.68-.38,1.47-.57,2.35-.57s1.63.19,2.3.57c.67.38,1.18.9,1.54,1.56.36.66.54,1.41.54,2.24,0,.29-.02.59-.05.92ZM437.1,170.17c-.26-.42-.6-.73-1.04-.95-.44-.22-.92-.32-1.46-.32-.77,0-1.42.24-1.96.73-.54.49-.85,1.17-.92,2.03h5.76c0-.58-.13-1.07-.38-1.49Z"/>
            <path class="cls-8" d="M443.7,168.03c.49-.29,1.1-.43,1.81-.43v1.56h-.4c-1.7,0-2.55.92-2.55,2.76v4.96h-1.51v-9.12h1.51v1.48c.27-.52.65-.93,1.14-1.21Z"/>
            <path class="cls-8" d="M449.24,169.01v5.38c0,.44.09.76.28.94.19.18.52.27.98.27h1.11v1.28h-1.36c-.84,0-1.48-.19-1.9-.58-.42-.39-.63-1.03-.63-1.91v-5.38h-1.18v-1.25h1.18v-2.3h1.51v2.3h2.38v1.25h-2.38Z"/>
            <path class="cls-8" d="M453.45,169.83c.38-.7.9-1.25,1.56-1.64s1.4-.58,2.21-.58,1.49.17,2.08.52c.59.34,1.03.78,1.31,1.3v-1.66h1.53v9.12h-1.53v-1.7c-.3.53-.75.97-1.34,1.32-.59.35-1.28.52-2.07.52s-1.54-.2-2.2-.6c-.65-.4-1.17-.96-1.55-1.68-.38-.72-.57-1.54-.57-2.46s.19-1.75.57-2.45ZM460.19,170.51c-.28-.51-.65-.9-1.12-1.17-.47-.27-.99-.41-1.56-.41s-1.08.13-1.55.4c-.47.27-.84.65-1.11,1.17-.28.51-.42,1.11-.42,1.8s.14,1.31.42,1.82c.28.52.65.91,1.11,1.18.47.27.98.41,1.55.41s1.08-.14,1.56-.41c.47-.27.85-.67,1.12-1.18s.42-1.12.42-1.81-.14-1.29-.42-1.8Z"/>
            <path class="cls-8" d="M464.75,165.98c-.2-.2-.3-.44-.3-.73s.1-.53.3-.73c.2-.2.44-.3.73-.3s.51.1.71.3c.19.2.29.44.29.73s-.1.53-.29.73c-.19.2-.43.3-.71.3s-.53-.1-.73-.3ZM466.21,167.76v9.12h-1.51v-9.12h1.51Z"/>
            <path class="cls-8" d="M475.93,168.6c.69.67,1.03,1.64,1.03,2.9v5.38h-1.5v-5.16c0-.91-.23-1.61-.68-2.09s-1.08-.72-1.86-.72-1.43.25-1.91.75c-.47.5-.71,1.23-.71,2.18v5.04h-1.51v-9.12h1.51v1.3c.3-.47.71-.83,1.22-1.08s1.08-.38,1.71-.38c1.11,0,2.01.34,2.7,1.01Z"/>
            <path class="cls-8" d="M492.31,168.04c.55.29.99.74,1.31,1.32.32.59.48,1.3.48,2.15v5.38h-1.5v-5.16c0-.91-.22-1.61-.67-2.09s-1.06-.72-1.82-.72-1.41.25-1.88.76c-.47.5-.7,1.23-.7,2.19v5.03h-1.5v-5.16c0-.91-.22-1.61-.67-2.09s-1.06-.72-1.82-.72-1.41.25-1.88.76c-.47.5-.7,1.23-.7,2.19v5.03h-1.51v-9.12h1.51v1.31c.3-.48.7-.84,1.21-1.1.5-.26,1.06-.38,1.67-.38.77,0,1.44.17,2.03.52.59.34,1.03.85,1.31,1.51.25-.64.68-1.14,1.26-1.5.59-.35,1.24-.53,1.96-.53s1.34.15,1.9.44Z"/>
            <path class="cls-8" d="M504.85,172.89h-7.29c.06.9.36,1.6.92,2.11.56.5,1.24.76,2.04.76.65,0,1.2-.15,1.64-.46.44-.31.75-.71.92-1.22h1.63c-.24.88-.73,1.59-1.46,2.14-.73.55-1.64.82-2.73.82-.87,0-1.64-.19-2.32-.58-.68-.39-1.22-.94-1.61-1.66-.39-.72-.58-1.54-.58-2.49s.19-1.77.57-2.48c.38-.71.91-1.26,1.59-1.64.68-.38,1.47-.57,2.35-.57s1.63.19,2.3.57c.67.38,1.18.9,1.54,1.56.36.66.54,1.41.54,2.24,0,.29-.02.59-.05.92ZM502.96,170.17c-.26-.42-.6-.73-1.04-.95-.44-.22-.92-.32-1.46-.32-.77,0-1.42.24-1.96.73-.54.49-.85,1.17-.92,2.03h5.76c0-.58-.13-1.07-.38-1.49Z"/>
            <path class="cls-8" d="M514.04,168.6c.69.67,1.03,1.64,1.03,2.9v5.38h-1.5v-5.16c0-.91-.23-1.61-.68-2.09s-1.08-.72-1.86-.72-1.43.25-1.91.75c-.47.5-.71,1.23-.71,2.18v5.04h-1.51v-9.12h1.51v1.3c.3-.47.71-.83,1.22-1.08s1.08-.38,1.71-.38c1.11,0,2.01.34,2.7,1.01Z"/>
            <path class="cls-8" d="M519.4,169.01v5.38c0,.44.09.76.28.94.19.18.52.27.98.27h1.11v1.28h-1.36c-.84,0-1.48-.19-1.9-.58-.42-.39-.63-1.03-.63-1.91v-5.38h-1.18v-1.25h1.18v-2.3h1.51v2.3h2.38v1.25h-2.38Z"/>
            <path class="cls-8" d="M528.05,169.83c.38-.7.9-1.25,1.56-1.64s1.4-.58,2.21-.58,1.49.17,2.08.52c.59.34,1.03.78,1.31,1.3v-1.66h1.53v9.12h-1.53v-1.7c-.3.53-.75.97-1.34,1.32-.59.35-1.28.52-2.07.52s-1.54-.2-2.2-.6c-.65-.4-1.17-.96-1.55-1.68-.38-.72-.57-1.54-.57-2.46s.19-1.75.57-2.45ZM534.79,170.51c-.28-.51-.65-.9-1.12-1.17-.47-.27-.99-.41-1.56-.41s-1.08.13-1.55.4c-.47.27-.84.65-1.11,1.17-.28.51-.42,1.11-.42,1.8s.14,1.31.42,1.82c.28.52.65.91,1.11,1.18.47.27.98.41,1.55.41s1.08-.14,1.56-.41c.47-.27.85-.67,1.12-1.18s.42-1.12.42-1.81-.14-1.29-.42-1.8Z"/>
            <path class="cls-8" d="M546.44,168.6c.69.67,1.03,1.64,1.03,2.9v5.38h-1.5v-5.16c0-.91-.23-1.61-.68-2.09s-1.08-.72-1.86-.72-1.43.25-1.91.75c-.47.5-.71,1.23-.71,2.18v5.04h-1.51v-9.12h1.51v1.3c.3-.47.71-.83,1.22-1.08s1.08-.38,1.71-.38c1.11,0,2.01.34,2.7,1.01Z"/>
            <path class="cls-8" d="M549.96,169.83c.38-.7.9-1.25,1.56-1.64s1.4-.58,2.22-.58c.71,0,1.37.16,1.98.49.61.33,1.08.76,1.4,1.29v-4.83h1.53v12.32h-1.53v-1.71c-.3.54-.74.99-1.33,1.34-.59.35-1.28.52-2.06.52s-1.55-.2-2.21-.6-1.18-.96-1.56-1.68c-.38-.72-.57-1.54-.57-2.46s.19-1.75.57-2.45ZM556.7,170.51c-.28-.51-.65-.9-1.12-1.17-.47-.27-.99-.41-1.56-.41s-1.08.13-1.55.4c-.47.27-.84.65-1.11,1.17-.28.51-.42,1.11-.42,1.8s.14,1.31.42,1.82c.28.52.65.91,1.11,1.18.47.27.98.41,1.55.41s1.08-.14,1.56-.41c.47-.27.85-.67,1.12-1.18s.42-1.12.42-1.81-.14-1.29-.42-1.8Z"/>
            <path class="cls-8" d="M580.23,165.28l-3.36,11.6h-1.7l-2.7-9.34-2.8,9.34-1.68.02-3.25-11.62h1.61l2.53,9.84,2.8-9.84h1.7l2.66,9.8,2.55-9.8h1.63Z"/>
            <path class="cls-8" d="M589.68,172.89h-7.29c.06.9.36,1.6.92,2.11.56.5,1.24.76,2.04.76.65,0,1.2-.15,1.64-.46.44-.31.75-.71.92-1.22h1.63c-.24.88-.73,1.59-1.46,2.14-.73.55-1.64.82-2.73.82-.87,0-1.64-.19-2.32-.58-.68-.39-1.22-.94-1.61-1.66-.39-.72-.58-1.54-.58-2.49s.19-1.77.57-2.48c.38-.71.91-1.26,1.59-1.64.68-.38,1.47-.57,2.35-.57s1.63.19,2.3.57c.67.38,1.18.9,1.54,1.56.36.66.54,1.41.54,2.24,0,.29-.02.59-.05.92ZM587.78,170.17c-.26-.42-.6-.73-1.04-.95-.44-.22-.92-.32-1.46-.32-.77,0-1.42.24-1.96.73-.54.49-.85,1.17-.92,2.03h5.76c0-.58-.13-1.07-.38-1.49Z"/>
            <path class="cls-8" d="M593.24,164.57v12.32h-1.51v-12.32h1.51Z"/>
            <path class="cls-8" d="M597.34,164.57v12.32h-1.51v-12.32h1.51Z"/>
            <path class="cls-8" d="M606.24,170.14v1.28h-6.64v-1.28h6.64Z"/>
            <path class="cls-8" d="M611.96,168.13c.6-.34,1.28-.52,2.05-.52.82,0,1.56.19,2.21.58.65.39,1.17.93,1.55,1.64.38.7.57,1.52.57,2.45s-.19,1.74-.57,2.46c-.38.72-.9,1.28-1.56,1.68-.66.4-1.4.6-2.21.6s-1.48-.17-2.07-.52c-.59-.34-1.04-.78-1.34-1.31v1.68h-1.51v-12.32h1.51v4.89c.31-.54.77-.99,1.36-1.33ZM616.37,170.49c-.28-.51-.65-.9-1.12-1.17-.47-.27-.99-.4-1.56-.4s-1.07.14-1.54.41c-.47.27-.85.67-1.13,1.18-.28.52-.42,1.11-.42,1.79s.14,1.29.42,1.81c.28.52.66.91,1.13,1.18.47.27.98.41,1.54.41s1.08-.14,1.56-.41c.47-.27.85-.67,1.12-1.18s.42-1.12.42-1.82-.14-1.29-.42-1.8Z"/>
            <path class="cls-8" d="M628.61,172.89h-7.29c.06.9.36,1.6.92,2.11.56.5,1.24.76,2.04.76.65,0,1.2-.15,1.64-.46.44-.31.75-.71.92-1.22h1.63c-.24.88-.73,1.59-1.46,2.14-.73.55-1.64.82-2.73.82-.87,0-1.64-.19-2.32-.58-.68-.39-1.22-.94-1.61-1.66-.39-.72-.58-1.54-.58-2.49s.19-1.77.57-2.48c.38-.71.91-1.26,1.59-1.64.68-.38,1.47-.57,2.35-.57s1.63.19,2.3.57c.67.38,1.18.9,1.54,1.56.36.66.54,1.41.54,2.24,0,.29-.02.59-.05.92ZM626.71,170.17c-.26-.42-.6-.73-1.04-.95-.44-.22-.92-.32-1.46-.32-.77,0-1.42.24-1.96.73-.54.49-.85,1.17-.92,2.03h5.76c0-.58-.13-1.07-.38-1.49Z"/>
            <path class="cls-8" d="M630.7,165.98c-.2-.2-.3-.44-.3-.73s.1-.53.3-.73c.2-.2.44-.3.73-.3s.51.1.71.3c.19.2.29.44.29.73s-.1.53-.29.73c-.19.2-.43.3-.71.3s-.53-.1-.73-.3ZM632.17,167.76v9.12h-1.51v-9.12h1.51Z"/>
            <path class="cls-8" d="M641.89,168.6c.69.67,1.03,1.64,1.03,2.9v5.38h-1.5v-5.16c0-.91-.23-1.61-.68-2.09s-1.08-.72-1.86-.72-1.43.25-1.91.75c-.47.5-.71,1.23-.71,2.18v5.04h-1.51v-9.12h1.51v1.3c.3-.47.71-.83,1.22-1.08s1.08-.38,1.71-.38c1.11,0,2.01.34,2.7,1.01Z"/>
            <path class="cls-8" d="M651.23,168.13c.59.34,1.03.78,1.32,1.3v-1.66h1.53v9.32c0,.83-.18,1.57-.53,2.22-.36.65-.86,1.16-1.52,1.52s-1.43.55-2.3.55c-1.2,0-2.2-.28-3-.85-.8-.57-1.27-1.34-1.41-2.31h1.5c.17.55.51,1,1.03,1.34.52.34,1.15.51,1.88.51.83,0,1.51-.26,2.04-.78.53-.52.79-1.25.79-2.2v-1.91c-.3.53-.74.98-1.33,1.33-.59.35-1.28.53-2.06.53s-1.55-.2-2.21-.6-1.18-.96-1.56-1.68c-.38-.72-.57-1.54-.57-2.46s.19-1.75.57-2.45c.38-.7.9-1.25,1.56-1.64s1.4-.58,2.21-.58,1.48.17,2.07.52ZM652.14,170.51c-.28-.51-.65-.9-1.12-1.17-.47-.27-.99-.41-1.56-.41s-1.08.13-1.55.4c-.47.27-.84.65-1.11,1.17-.28.51-.42,1.11-.42,1.8s.14,1.31.42,1.82c.28.52.65.91,1.11,1.18.47.27.98.41,1.55.41s1.08-.14,1.56-.41c.47-.27.85-.67,1.12-1.18s.42-1.12.42-1.81-.14-1.29-.42-1.8Z"/>
            <path class="cls-8" d="M667.86,171.08c-.66.64-1.67.96-3.02.96h-2.23v4.84h-1.51v-11.6h3.74c1.31,0,2.31.32,2.99.95.68.63,1.02,1.45,1.02,2.45s-.33,1.77-.99,2.4ZM666.7,170.24c.4-.37.6-.89.6-1.56,0-1.43-.82-2.15-2.46-2.15h-2.23v4.26h2.23c.84,0,1.46-.18,1.86-.55Z"/>
            <path class="cls-8" d="M670.73,169.83c.38-.7.9-1.25,1.56-1.64s1.4-.58,2.21-.58,1.49.17,2.08.52c.59.34,1.03.78,1.31,1.3v-1.66h1.53v9.12h-1.53v-1.7c-.3.53-.75.97-1.34,1.32-.59.35-1.28.52-2.07.52s-1.54-.2-2.2-.6c-.65-.4-1.17-.96-1.55-1.68-.38-.72-.57-1.54-.57-2.46s.19-1.75.57-2.45ZM677.47,170.51c-.28-.51-.65-.9-1.12-1.17-.47-.27-.99-.41-1.56-.41s-1.08.13-1.55.4c-.47.27-.84.65-1.11,1.17-.28.51-.42,1.11-.42,1.8s.14,1.31.42,1.82c.28.52.65.91,1.11,1.18.47.27.98.41,1.55.41s1.08-.14,1.56-.41c.47-.27.85-.67,1.12-1.18s.42-1.12.42-1.81-.14-1.29-.42-1.8Z"/>
            <path class="cls-8" d="M684.63,168.03c.49-.29,1.1-.43,1.81-.43v1.56h-.4c-1.7,0-2.55.92-2.55,2.76v4.96h-1.51v-9.12h1.51v1.48c.27-.52.65-.93,1.14-1.21Z"/>
            <path class="cls-8" d="M690.15,169.01v5.38c0,.44.09.76.28.94.19.18.52.27.98.27h1.11v1.28h-1.36c-.84,0-1.48-.19-1.9-.58-.42-.39-.63-1.03-.63-1.91v-5.38h-1.18v-1.25h1.18v-2.3h1.51v2.3h2.38v1.25h-2.38Z"/>
            <path class="cls-8" d="M701.5,168.6c.69.67,1.03,1.64,1.03,2.9v5.38h-1.5v-5.16c0-.91-.23-1.61-.68-2.09s-1.08-.72-1.86-.72-1.43.25-1.91.75c-.47.5-.71,1.23-.71,2.18v5.04h-1.51v-9.12h1.51v1.3c.3-.47.71-.83,1.22-1.08s1.08-.38,1.71-.38c1.11,0,2.01.34,2.7,1.01Z"/>
            <path class="cls-8" d="M713.28,172.89h-7.29c.06.9.36,1.6.92,2.11.56.5,1.24.76,2.04.76.65,0,1.2-.15,1.64-.46.44-.31.75-.71.92-1.22h1.63c-.24.88-.73,1.59-1.46,2.14-.73.55-1.64.82-2.73.82-.87,0-1.64-.19-2.32-.58-.68-.39-1.22-.94-1.61-1.66-.39-.72-.58-1.54-.58-2.49s.19-1.77.57-2.48c.38-.71.91-1.26,1.59-1.64.68-.38,1.47-.57,2.35-.57s1.63.19,2.3.57c.67.38,1.18.9,1.54,1.56.36.66.54,1.41.54,2.24,0,.29-.02.59-.05.92ZM711.39,170.17c-.26-.42-.6-.73-1.04-.95-.44-.22-.92-.32-1.46-.32-.77,0-1.42.24-1.96.73-.54.49-.85,1.17-.92,2.03h5.76c0-.58-.13-1.07-.38-1.49Z"/>
            <path class="cls-8" d="M717.98,168.03c.49-.29,1.1-.43,1.81-.43v1.56h-.4c-1.7,0-2.55.92-2.55,2.76v4.96h-1.51v-9.12h1.51v1.48c.27-.52.65-.93,1.14-1.21Z"/>
          </g>
          <g>
            <path class="cls-8" d="M395.93,78.9h20.79l-8.04,38.49h32.22l-2.88,14.16h-53.01l10.91-52.65Z"/>
            <path class="cls-8" d="M486.4,125.5h-21.68l-3.47,6.05h-22.12l33.33-52.65h25.51l11.5,52.65h-22.12l-.96-6.05ZM481.82,94.82l-9.88,17.84h12.53l-2.51-17.84h-.15Z"/>
            <path class="cls-7" d="M649.66,97.7c2.09-5.01,4.82-8.97,8.19-11.87,3.37-2.9,7.46-5.09,12.28-6.56,4.82-1.47,11.48-2.21,19.98-2.21,10.81,0,18.54,1.75,23.19,5.23,4.65,3.49,6.97,8.58,6.97,15.26-.05,5.21-1.11,10.31-3.17,15.3-2.06,4.99-4.81,8.92-8.22,11.8-3.42,2.88-7.55,5.05-12.39,6.53-4.84,1.47-11.17,2.21-18.99,2.21-11.45,0-19.48-1.72-24.07-5.16-4.6-3.44-6.89-8.53-6.89-15.26,0-5.16,1.04-10.25,3.13-15.26ZM679.15,91.65c-2.04.88-3.63,1.97-4.76,3.24-1.13,1.28-2.08,2.72-2.84,4.31-.76,1.6-1.39,3.32-1.88,5.16-.49,1.84-.76,3.82-.81,5.94,0,6.54,3.81,9.81,11.43,9.81,6.24,0,10.73-2.13,13.46-6.38,2.73-4.25,4.09-8.74,4.09-13.46,0-6.64-3.81-9.95-11.43-9.95-2.8,0-5.22.44-7.26,1.33Z"/>
            <path class="cls-8" d="M378.98,81.96c-2.9-2.04-7.01-3.06-12.31-3.06h-43.28l-.68,3.28,23.97.62-24.23.62-1.44,6.97,16.55.43h0s0,0,0,0l-16.73.43-1.52,7.35,9.14.24-9.24.24-1.6,7.74,1.73.04-1.74.04-5.11,24.64h20.79l3.39-16.37h22.71c7.37,0,13.21-2.16,17.51-6.49,4.3-4.33,6.45-10.08,6.45-17.25,0-4.28-1.45-7.43-4.35-9.47ZM359.59,100.17c-1.13,1.45-3.32,2.18-6.56,2.18h-13.71l2.29-11.06h13.71c1.97,0,3.45.28,4.46.85,1.01.57,1.51,1.49,1.51,2.77,0,2.06-.57,3.82-1.7,5.27Z"/>
            <polygon class="cls-7" points="646.01 78.9 588.58 78.9 587.62 83.54 639.38 84.88 587.07 86.22 585.93 91.75 602.05 92.17 615.27 92.17 614.83 92.5 630.27 92.9 630.26 92.9 630.27 92.9 613.74 93.32 604.24 100.48 621.15 100.92 603.04 101.39 593.65 108.47 612.03 108.94 592.35 109.45 577.81 120.41 575.52 131.54 634.29 131.54 637.02 118.27 607.01 118.27 643.65 90.4 646.01 78.9"/>
            <path class="cls-8" d="M529.23,116.72l-15.48-37.83h23.74l5.75,20.65,14.3-20.65h23.74l-31.26,37.83-3.02,14.82h-20.79l3.02-14.82Z"/>
          </g>
        </g>
      </g>
    </g>
  </g>
</svg>